G04 #@! TF.GenerationSoftware,KiCad,Pcbnew,(5.1.2)-1*
G04 #@! TF.CreationDate,2019-10-30T10:00:19+01:00*
G04 #@! TF.ProjectId,temalab_comparator,74656d61-6c61-4625-9f63-6f6d70617261,rev?*
G04 #@! TF.SameCoordinates,Original*
G04 #@! TF.FileFunction,Soldermask,Top*
G04 #@! TF.FilePolarity,Negative*
%FSLAX46Y46*%
G04 Gerber Fmt 4.6, Leading zero omitted, Abs format (unit mm)*
G04 Created by KiCad (PCBNEW (5.1.2)-1) date 2019-10-30 10:00:19*
%MOMM*%
%LPD*%
G04 APERTURE LIST*
%ADD10C,0.100000*%
G04 APERTURE END LIST*
D10*
G36*
X129670476Y-128749261D02*
G01*
X129773645Y-128769782D01*
X129859036Y-128805153D01*
X129919416Y-128830163D01*
X130050608Y-128917822D01*
X130162178Y-129029392D01*
X130249837Y-129160584D01*
X130268766Y-129206282D01*
X130310218Y-129306355D01*
X130341000Y-129461109D01*
X130341000Y-129618891D01*
X130310218Y-129773645D01*
X130274847Y-129859036D01*
X130249837Y-129919416D01*
X130162178Y-130050608D01*
X130050608Y-130162178D01*
X129919416Y-130249837D01*
X129859036Y-130274847D01*
X129773645Y-130310218D01*
X129670476Y-130330739D01*
X129618892Y-130341000D01*
X129461108Y-130341000D01*
X129409524Y-130330739D01*
X129306355Y-130310218D01*
X129220964Y-130274847D01*
X129160584Y-130249837D01*
X129029392Y-130162178D01*
X128917822Y-130050608D01*
X128830163Y-129919416D01*
X128805153Y-129859036D01*
X128769782Y-129773645D01*
X128739000Y-129618891D01*
X128739000Y-129461109D01*
X128769782Y-129306355D01*
X128811234Y-129206282D01*
X128830163Y-129160584D01*
X128917822Y-129029392D01*
X129029392Y-128917822D01*
X129160584Y-128830163D01*
X129220964Y-128805153D01*
X129306355Y-128769782D01*
X129409524Y-128749261D01*
X129461108Y-128739000D01*
X129618892Y-128739000D01*
X129670476Y-128749261D01*
X129670476Y-128749261D01*
G37*
G36*
X107892321Y-128038617D02*
G01*
X107932691Y-128050864D01*
X107969887Y-128070745D01*
X108002495Y-128097505D01*
X108029255Y-128130113D01*
X108049136Y-128167309D01*
X108061383Y-128207679D01*
X108066000Y-128254559D01*
X108066000Y-129065441D01*
X108061383Y-129112321D01*
X108049136Y-129152691D01*
X108029255Y-129189887D01*
X108002495Y-129222495D01*
X107969887Y-129249255D01*
X107932691Y-129269136D01*
X107892321Y-129281383D01*
X107845441Y-129286000D01*
X106784559Y-129286000D01*
X106737679Y-129281383D01*
X106697309Y-129269136D01*
X106660113Y-129249255D01*
X106627505Y-129222495D01*
X106600745Y-129189887D01*
X106580864Y-129152691D01*
X106568617Y-129112321D01*
X106564000Y-129065441D01*
X106564000Y-128254559D01*
X106568617Y-128207679D01*
X106580864Y-128167309D01*
X106600745Y-128130113D01*
X106627505Y-128097505D01*
X106660113Y-128070745D01*
X106697309Y-128050864D01*
X106737679Y-128038617D01*
X106784559Y-128034000D01*
X107845441Y-128034000D01*
X107892321Y-128038617D01*
X107892321Y-128038617D01*
G37*
G36*
X107892321Y-125988617D02*
G01*
X107932691Y-126000864D01*
X107969887Y-126020745D01*
X108002495Y-126047505D01*
X108029255Y-126080113D01*
X108049136Y-126117309D01*
X108061383Y-126157679D01*
X108066000Y-126204559D01*
X108066000Y-127015441D01*
X108061383Y-127062321D01*
X108049136Y-127102691D01*
X108029255Y-127139887D01*
X108002495Y-127172495D01*
X107969887Y-127199255D01*
X107932691Y-127219136D01*
X107892321Y-127231383D01*
X107845441Y-127236000D01*
X106784559Y-127236000D01*
X106737679Y-127231383D01*
X106697309Y-127219136D01*
X106660113Y-127199255D01*
X106627505Y-127172495D01*
X106600745Y-127139887D01*
X106580864Y-127102691D01*
X106568617Y-127062321D01*
X106564000Y-127015441D01*
X106564000Y-126204559D01*
X106568617Y-126157679D01*
X106580864Y-126117309D01*
X106600745Y-126080113D01*
X106627505Y-126047505D01*
X106660113Y-126020745D01*
X106697309Y-126000864D01*
X106737679Y-125988617D01*
X106784559Y-125984000D01*
X107845441Y-125984000D01*
X107892321Y-125988617D01*
X107892321Y-125988617D01*
G37*
G36*
X107892321Y-122958617D02*
G01*
X107932691Y-122970864D01*
X107969887Y-122990745D01*
X108002495Y-123017505D01*
X108029255Y-123050113D01*
X108049136Y-123087309D01*
X108061383Y-123127679D01*
X108066000Y-123174559D01*
X108066000Y-123985441D01*
X108061383Y-124032321D01*
X108049136Y-124072691D01*
X108029255Y-124109887D01*
X108002495Y-124142495D01*
X107969887Y-124169255D01*
X107932691Y-124189136D01*
X107892321Y-124201383D01*
X107845441Y-124206000D01*
X106784559Y-124206000D01*
X106737679Y-124201383D01*
X106697309Y-124189136D01*
X106660113Y-124169255D01*
X106627505Y-124142495D01*
X106600745Y-124109887D01*
X106580864Y-124072691D01*
X106568617Y-124032321D01*
X106564000Y-123985441D01*
X106564000Y-123174559D01*
X106568617Y-123127679D01*
X106580864Y-123087309D01*
X106600745Y-123050113D01*
X106627505Y-123017505D01*
X106660113Y-122990745D01*
X106697309Y-122970864D01*
X106737679Y-122958617D01*
X106784559Y-122954000D01*
X107845441Y-122954000D01*
X107892321Y-122958617D01*
X107892321Y-122958617D01*
G37*
G36*
X107892321Y-120908617D02*
G01*
X107932691Y-120920864D01*
X107969887Y-120940745D01*
X108002495Y-120967505D01*
X108029255Y-121000113D01*
X108049136Y-121037309D01*
X108061383Y-121077679D01*
X108066000Y-121124559D01*
X108066000Y-121935441D01*
X108061383Y-121982321D01*
X108049136Y-122022691D01*
X108029255Y-122059887D01*
X108002495Y-122092495D01*
X107969887Y-122119255D01*
X107932691Y-122139136D01*
X107892321Y-122151383D01*
X107845441Y-122156000D01*
X106784559Y-122156000D01*
X106737679Y-122151383D01*
X106697309Y-122139136D01*
X106660113Y-122119255D01*
X106627505Y-122092495D01*
X106600745Y-122059887D01*
X106580864Y-122022691D01*
X106568617Y-121982321D01*
X106564000Y-121935441D01*
X106564000Y-121124559D01*
X106568617Y-121077679D01*
X106580864Y-121037309D01*
X106600745Y-121000113D01*
X106627505Y-120967505D01*
X106660113Y-120940745D01*
X106697309Y-120920864D01*
X106737679Y-120908617D01*
X106784559Y-120904000D01*
X107845441Y-120904000D01*
X107892321Y-120908617D01*
X107892321Y-120908617D01*
G37*
G36*
X127765476Y-116684261D02*
G01*
X127868645Y-116704782D01*
X127954036Y-116740153D01*
X128014416Y-116765163D01*
X128145608Y-116852822D01*
X128257178Y-116964392D01*
X128344837Y-117095584D01*
X128369847Y-117155964D01*
X128405218Y-117241355D01*
X128436000Y-117396109D01*
X128436000Y-117553891D01*
X128405218Y-117708645D01*
X128369847Y-117794036D01*
X128344837Y-117854416D01*
X128257178Y-117985608D01*
X128145608Y-118097178D01*
X128014416Y-118184837D01*
X127954036Y-118209847D01*
X127868645Y-118245218D01*
X127765476Y-118265739D01*
X127713892Y-118276000D01*
X127556108Y-118276000D01*
X127504524Y-118265739D01*
X127401355Y-118245218D01*
X127315964Y-118209847D01*
X127255584Y-118184837D01*
X127124392Y-118097178D01*
X127012822Y-117985608D01*
X126925163Y-117854416D01*
X126900153Y-117794036D01*
X126864782Y-117708645D01*
X126834000Y-117553891D01*
X126834000Y-117396109D01*
X126864782Y-117241355D01*
X126900153Y-117155964D01*
X126925163Y-117095584D01*
X127012822Y-116964392D01*
X127124392Y-116852822D01*
X127255584Y-116765163D01*
X127315964Y-116740153D01*
X127401355Y-116704782D01*
X127504524Y-116684261D01*
X127556108Y-116674000D01*
X127713892Y-116674000D01*
X127765476Y-116684261D01*
X127765476Y-116684261D01*
G37*
G36*
X154689476Y-115922261D02*
G01*
X154792645Y-115942782D01*
X154878036Y-115978153D01*
X154938416Y-116003163D01*
X154938417Y-116003164D01*
X155042921Y-116072990D01*
X155069608Y-116090822D01*
X155181178Y-116202392D01*
X155268837Y-116333584D01*
X155282647Y-116366925D01*
X155329218Y-116479355D01*
X155360000Y-116634109D01*
X155360000Y-116791891D01*
X155329218Y-116946645D01*
X155321866Y-116964393D01*
X155268837Y-117092416D01*
X155181178Y-117223608D01*
X155069608Y-117335178D01*
X154938416Y-117422837D01*
X154878036Y-117447847D01*
X154792645Y-117483218D01*
X154689476Y-117503739D01*
X154637892Y-117514000D01*
X154480108Y-117514000D01*
X154428524Y-117503739D01*
X154325355Y-117483218D01*
X154239964Y-117447847D01*
X154179584Y-117422837D01*
X154048392Y-117335178D01*
X153936822Y-117223608D01*
X153849163Y-117092416D01*
X153796134Y-116964393D01*
X153788782Y-116946645D01*
X153758000Y-116791891D01*
X153758000Y-116634109D01*
X153788782Y-116479355D01*
X153835353Y-116366925D01*
X153849163Y-116333584D01*
X153936822Y-116202392D01*
X154048392Y-116090822D01*
X154075080Y-116072990D01*
X154179583Y-116003164D01*
X154179584Y-116003163D01*
X154239964Y-115978153D01*
X154325355Y-115942782D01*
X154428524Y-115922261D01*
X154480108Y-115912000D01*
X154637892Y-115912000D01*
X154689476Y-115922261D01*
X154689476Y-115922261D01*
G37*
G36*
X116147321Y-115338617D02*
G01*
X116187691Y-115350864D01*
X116224887Y-115370745D01*
X116257495Y-115397505D01*
X116284255Y-115430113D01*
X116304136Y-115467309D01*
X116316383Y-115507679D01*
X116321000Y-115554559D01*
X116321000Y-116365441D01*
X116316383Y-116412321D01*
X116304136Y-116452691D01*
X116284255Y-116489887D01*
X116257495Y-116522495D01*
X116224887Y-116549255D01*
X116187691Y-116569136D01*
X116147321Y-116581383D01*
X116100441Y-116586000D01*
X115039559Y-116586000D01*
X114992679Y-116581383D01*
X114952309Y-116569136D01*
X114915113Y-116549255D01*
X114882505Y-116522495D01*
X114855745Y-116489887D01*
X114835864Y-116452691D01*
X114823617Y-116412321D01*
X114819000Y-116365441D01*
X114819000Y-115554559D01*
X114823617Y-115507679D01*
X114835864Y-115467309D01*
X114855745Y-115430113D01*
X114882505Y-115397505D01*
X114915113Y-115370745D01*
X114952309Y-115350864D01*
X114992679Y-115338617D01*
X115039559Y-115334000D01*
X116100441Y-115334000D01*
X116147321Y-115338617D01*
X116147321Y-115338617D01*
G37*
G36*
X119957321Y-115338617D02*
G01*
X119997691Y-115350864D01*
X120034887Y-115370745D01*
X120067495Y-115397505D01*
X120094255Y-115430113D01*
X120114136Y-115467309D01*
X120126383Y-115507679D01*
X120131000Y-115554559D01*
X120131000Y-116365441D01*
X120126383Y-116412321D01*
X120114136Y-116452691D01*
X120094255Y-116489887D01*
X120067495Y-116522495D01*
X120034887Y-116549255D01*
X119997691Y-116569136D01*
X119957321Y-116581383D01*
X119910441Y-116586000D01*
X118849559Y-116586000D01*
X118802679Y-116581383D01*
X118762309Y-116569136D01*
X118725113Y-116549255D01*
X118692505Y-116522495D01*
X118665745Y-116489887D01*
X118645864Y-116452691D01*
X118633617Y-116412321D01*
X118629000Y-116365441D01*
X118629000Y-115554559D01*
X118633617Y-115507679D01*
X118645864Y-115467309D01*
X118665745Y-115430113D01*
X118692505Y-115397505D01*
X118725113Y-115370745D01*
X118762309Y-115350864D01*
X118802679Y-115338617D01*
X118849559Y-115334000D01*
X119910441Y-115334000D01*
X119957321Y-115338617D01*
X119957321Y-115338617D01*
G37*
G36*
X106823535Y-114678778D02*
G01*
X106856627Y-114682037D01*
X106969853Y-114716384D01*
X107026467Y-114733557D01*
X107182990Y-114817220D01*
X107320186Y-114929814D01*
X107432780Y-115067010D01*
X107516443Y-115223533D01*
X107516443Y-115223534D01*
X107567963Y-115393373D01*
X107567963Y-115393375D01*
X107585360Y-115570000D01*
X107570826Y-115717559D01*
X107567963Y-115746627D01*
X107533616Y-115859853D01*
X107516443Y-115916467D01*
X107432780Y-116072990D01*
X107320186Y-116210186D01*
X107182990Y-116322780D01*
X107026467Y-116406443D01*
X107007089Y-116412321D01*
X106856627Y-116457963D01*
X106823535Y-116461222D01*
X106724264Y-116471000D01*
X106635736Y-116471000D01*
X106536465Y-116461222D01*
X106503373Y-116457963D01*
X106352911Y-116412321D01*
X106333533Y-116406443D01*
X106177010Y-116322780D01*
X106039814Y-116210186D01*
X105927220Y-116072990D01*
X105843557Y-115916467D01*
X105826384Y-115859853D01*
X105792037Y-115746627D01*
X105789174Y-115717559D01*
X105774640Y-115570000D01*
X105792037Y-115393375D01*
X105792037Y-115393373D01*
X105843557Y-115223534D01*
X105843557Y-115223533D01*
X105927220Y-115067010D01*
X106039814Y-114929814D01*
X106177010Y-114817220D01*
X106333533Y-114733557D01*
X106390147Y-114716384D01*
X106503373Y-114682037D01*
X106536465Y-114678778D01*
X106635736Y-114669000D01*
X106724264Y-114669000D01*
X106823535Y-114678778D01*
X106823535Y-114678778D01*
G37*
G36*
X105041000Y-116471000D02*
G01*
X103239000Y-116471000D01*
X103239000Y-114669000D01*
X105041000Y-114669000D01*
X105041000Y-116471000D01*
X105041000Y-116471000D01*
G37*
G36*
X119957321Y-113288617D02*
G01*
X119997691Y-113300864D01*
X120034887Y-113320745D01*
X120067495Y-113347505D01*
X120094255Y-113380113D01*
X120114136Y-113417309D01*
X120126383Y-113457679D01*
X120131000Y-113504559D01*
X120131000Y-114315441D01*
X120126383Y-114362321D01*
X120114136Y-114402691D01*
X120094255Y-114439887D01*
X120067495Y-114472495D01*
X120034887Y-114499255D01*
X119997691Y-114519136D01*
X119957321Y-114531383D01*
X119910441Y-114536000D01*
X118849559Y-114536000D01*
X118802679Y-114531383D01*
X118762309Y-114519136D01*
X118725113Y-114499255D01*
X118692505Y-114472495D01*
X118665745Y-114439887D01*
X118645864Y-114402691D01*
X118633617Y-114362321D01*
X118629000Y-114315441D01*
X118629000Y-113504559D01*
X118633617Y-113457679D01*
X118645864Y-113417309D01*
X118665745Y-113380113D01*
X118692505Y-113347505D01*
X118725113Y-113320745D01*
X118762309Y-113300864D01*
X118802679Y-113288617D01*
X118849559Y-113284000D01*
X119910441Y-113284000D01*
X119957321Y-113288617D01*
X119957321Y-113288617D01*
G37*
G36*
X116147321Y-113288617D02*
G01*
X116187691Y-113300864D01*
X116224887Y-113320745D01*
X116257495Y-113347505D01*
X116284255Y-113380113D01*
X116304136Y-113417309D01*
X116316383Y-113457679D01*
X116321000Y-113504559D01*
X116321000Y-114315441D01*
X116316383Y-114362321D01*
X116304136Y-114402691D01*
X116284255Y-114439887D01*
X116257495Y-114472495D01*
X116224887Y-114499255D01*
X116187691Y-114519136D01*
X116147321Y-114531383D01*
X116100441Y-114536000D01*
X115039559Y-114536000D01*
X114992679Y-114531383D01*
X114952309Y-114519136D01*
X114915113Y-114499255D01*
X114882505Y-114472495D01*
X114855745Y-114439887D01*
X114835864Y-114402691D01*
X114823617Y-114362321D01*
X114819000Y-114315441D01*
X114819000Y-113504559D01*
X114823617Y-113457679D01*
X114835864Y-113417309D01*
X114855745Y-113380113D01*
X114882505Y-113347505D01*
X114915113Y-113320745D01*
X114952309Y-113300864D01*
X114992679Y-113288617D01*
X115039559Y-113284000D01*
X116100441Y-113284000D01*
X116147321Y-113288617D01*
X116147321Y-113288617D01*
G37*
G36*
X106823535Y-112138778D02*
G01*
X106856627Y-112142037D01*
X106969853Y-112176384D01*
X107026467Y-112193557D01*
X107182990Y-112277220D01*
X107320186Y-112389814D01*
X107432780Y-112527010D01*
X107516443Y-112683533D01*
X107516443Y-112683534D01*
X107567963Y-112853373D01*
X107567963Y-112853375D01*
X107585360Y-113030000D01*
X107570966Y-113176136D01*
X107567963Y-113206627D01*
X107538207Y-113304718D01*
X107516443Y-113376467D01*
X107432780Y-113532990D01*
X107320186Y-113670186D01*
X107182990Y-113782780D01*
X107026467Y-113866443D01*
X106969853Y-113883616D01*
X106856627Y-113917963D01*
X106823535Y-113921222D01*
X106724264Y-113931000D01*
X106635736Y-113931000D01*
X106536465Y-113921222D01*
X106503373Y-113917963D01*
X106390147Y-113883616D01*
X106333533Y-113866443D01*
X106177010Y-113782780D01*
X106039814Y-113670186D01*
X105927220Y-113532990D01*
X105843557Y-113376467D01*
X105821793Y-113304718D01*
X105792037Y-113206627D01*
X105789034Y-113176136D01*
X105774640Y-113030000D01*
X105792037Y-112853375D01*
X105792037Y-112853373D01*
X105843557Y-112683534D01*
X105843557Y-112683533D01*
X105927220Y-112527010D01*
X106039814Y-112389814D01*
X106177010Y-112277220D01*
X106333533Y-112193557D01*
X106390147Y-112176384D01*
X106503373Y-112142037D01*
X106536465Y-112138778D01*
X106635736Y-112129000D01*
X106724264Y-112129000D01*
X106823535Y-112138778D01*
X106823535Y-112138778D01*
G37*
G36*
X104283535Y-112138778D02*
G01*
X104316627Y-112142037D01*
X104429853Y-112176384D01*
X104486467Y-112193557D01*
X104642990Y-112277220D01*
X104780186Y-112389814D01*
X104892780Y-112527010D01*
X104976443Y-112683533D01*
X104976443Y-112683534D01*
X105027963Y-112853373D01*
X105027963Y-112853375D01*
X105045360Y-113030000D01*
X105030966Y-113176136D01*
X105027963Y-113206627D01*
X104998207Y-113304718D01*
X104976443Y-113376467D01*
X104892780Y-113532990D01*
X104780186Y-113670186D01*
X104642990Y-113782780D01*
X104486467Y-113866443D01*
X104429853Y-113883616D01*
X104316627Y-113917963D01*
X104283535Y-113921222D01*
X104184264Y-113931000D01*
X104095736Y-113931000D01*
X103996465Y-113921222D01*
X103963373Y-113917963D01*
X103850147Y-113883616D01*
X103793533Y-113866443D01*
X103637010Y-113782780D01*
X103499814Y-113670186D01*
X103387220Y-113532990D01*
X103303557Y-113376467D01*
X103281793Y-113304718D01*
X103252037Y-113206627D01*
X103249034Y-113176136D01*
X103234640Y-113030000D01*
X103252037Y-112853375D01*
X103252037Y-112853373D01*
X103303557Y-112683534D01*
X103303557Y-112683533D01*
X103387220Y-112527010D01*
X103499814Y-112389814D01*
X103637010Y-112277220D01*
X103793533Y-112193557D01*
X103850147Y-112176384D01*
X103963373Y-112142037D01*
X103996465Y-112138778D01*
X104095736Y-112129000D01*
X104184264Y-112129000D01*
X104283535Y-112138778D01*
X104283535Y-112138778D01*
G37*
G36*
X111271136Y-112548253D02*
G01*
X111271138Y-112548254D01*
X111271139Y-112548254D01*
X111362314Y-112586021D01*
X111444368Y-112640847D01*
X111514153Y-112710632D01*
X111568979Y-112792686D01*
X111606746Y-112883861D01*
X111626000Y-112980658D01*
X111626000Y-113079342D01*
X111606746Y-113176139D01*
X111568979Y-113267314D01*
X111514153Y-113349368D01*
X111444368Y-113419153D01*
X111362314Y-113473979D01*
X111271139Y-113511746D01*
X111271138Y-113511746D01*
X111271136Y-113511747D01*
X111174344Y-113531000D01*
X111075656Y-113531000D01*
X110978864Y-113511747D01*
X110978862Y-113511746D01*
X110978861Y-113511746D01*
X110887686Y-113473979D01*
X110805632Y-113419153D01*
X110735847Y-113349368D01*
X110681021Y-113267314D01*
X110643254Y-113176139D01*
X110624000Y-113079342D01*
X110624000Y-112980658D01*
X110643254Y-112883861D01*
X110681021Y-112792686D01*
X110735847Y-112710632D01*
X110805632Y-112640847D01*
X110887686Y-112586021D01*
X110978861Y-112548254D01*
X110978862Y-112548254D01*
X110978864Y-112548253D01*
X111075656Y-112529000D01*
X111174344Y-112529000D01*
X111271136Y-112548253D01*
X111271136Y-112548253D01*
G37*
G36*
X133516823Y-110921313D02*
G01*
X133677240Y-110969975D01*
X133825077Y-111048995D01*
X133954659Y-111155341D01*
X134061005Y-111284923D01*
X134140025Y-111432760D01*
X134188687Y-111593177D01*
X134205118Y-111760000D01*
X134188687Y-111926823D01*
X134140025Y-112087240D01*
X134061005Y-112235077D01*
X133954659Y-112364659D01*
X133825077Y-112471005D01*
X133677240Y-112550025D01*
X133516823Y-112598687D01*
X133391806Y-112611000D01*
X133308194Y-112611000D01*
X133183177Y-112598687D01*
X133022760Y-112550025D01*
X132874923Y-112471005D01*
X132745341Y-112364659D01*
X132638995Y-112235077D01*
X132559975Y-112087240D01*
X132511313Y-111926823D01*
X132494882Y-111760000D01*
X132511313Y-111593177D01*
X132559975Y-111432760D01*
X132638995Y-111284923D01*
X132745341Y-111155341D01*
X132874923Y-111048995D01*
X133022760Y-110969975D01*
X133183177Y-110921313D01*
X133308194Y-110909000D01*
X133391806Y-110909000D01*
X133516823Y-110921313D01*
X133516823Y-110921313D01*
G37*
G36*
X125896823Y-110921313D02*
G01*
X126057240Y-110969975D01*
X126205077Y-111048995D01*
X126334659Y-111155341D01*
X126441005Y-111284923D01*
X126520025Y-111432760D01*
X126568687Y-111593177D01*
X126585118Y-111760000D01*
X126568687Y-111926823D01*
X126520025Y-112087240D01*
X126441005Y-112235077D01*
X126334659Y-112364659D01*
X126205077Y-112471005D01*
X126057240Y-112550025D01*
X125896823Y-112598687D01*
X125771806Y-112611000D01*
X125688194Y-112611000D01*
X125563177Y-112598687D01*
X125402760Y-112550025D01*
X125254923Y-112471005D01*
X125125341Y-112364659D01*
X125018995Y-112235077D01*
X124939975Y-112087240D01*
X124891313Y-111926823D01*
X124874882Y-111760000D01*
X124891313Y-111593177D01*
X124939975Y-111432760D01*
X125018995Y-111284923D01*
X125125341Y-111155341D01*
X125254923Y-111048995D01*
X125402760Y-110969975D01*
X125563177Y-110921313D01*
X125688194Y-110909000D01*
X125771806Y-110909000D01*
X125896823Y-110921313D01*
X125896823Y-110921313D01*
G37*
G36*
X123397321Y-111013617D02*
G01*
X123437691Y-111025864D01*
X123474887Y-111045745D01*
X123507495Y-111072505D01*
X123534255Y-111105113D01*
X123554136Y-111142309D01*
X123566383Y-111182679D01*
X123571000Y-111229559D01*
X123571000Y-112290441D01*
X123566383Y-112337321D01*
X123554136Y-112377691D01*
X123534255Y-112414887D01*
X123507495Y-112447495D01*
X123474887Y-112474255D01*
X123437691Y-112494136D01*
X123397321Y-112506383D01*
X123350441Y-112511000D01*
X122539559Y-112511000D01*
X122492679Y-112506383D01*
X122452309Y-112494136D01*
X122415113Y-112474255D01*
X122382505Y-112447495D01*
X122355745Y-112414887D01*
X122335864Y-112377691D01*
X122323617Y-112337321D01*
X122319000Y-112290441D01*
X122319000Y-111229559D01*
X122323617Y-111182679D01*
X122335864Y-111142309D01*
X122355745Y-111105113D01*
X122382505Y-111072505D01*
X122415113Y-111045745D01*
X122452309Y-111025864D01*
X122492679Y-111013617D01*
X122539559Y-111009000D01*
X123350441Y-111009000D01*
X123397321Y-111013617D01*
X123397321Y-111013617D01*
G37*
G36*
X121347321Y-111013617D02*
G01*
X121387691Y-111025864D01*
X121424887Y-111045745D01*
X121457495Y-111072505D01*
X121484255Y-111105113D01*
X121504136Y-111142309D01*
X121516383Y-111182679D01*
X121521000Y-111229559D01*
X121521000Y-112290441D01*
X121516383Y-112337321D01*
X121504136Y-112377691D01*
X121484255Y-112414887D01*
X121457495Y-112447495D01*
X121424887Y-112474255D01*
X121387691Y-112494136D01*
X121347321Y-112506383D01*
X121300441Y-112511000D01*
X120489559Y-112511000D01*
X120442679Y-112506383D01*
X120402309Y-112494136D01*
X120365113Y-112474255D01*
X120332505Y-112447495D01*
X120305745Y-112414887D01*
X120285864Y-112377691D01*
X120273617Y-112337321D01*
X120269000Y-112290441D01*
X120269000Y-111229559D01*
X120273617Y-111182679D01*
X120285864Y-111142309D01*
X120305745Y-111105113D01*
X120332505Y-111072505D01*
X120365113Y-111045745D01*
X120402309Y-111025864D01*
X120442679Y-111013617D01*
X120489559Y-111009000D01*
X121300441Y-111009000D01*
X121347321Y-111013617D01*
X121347321Y-111013617D01*
G37*
G36*
X146180476Y-110334261D02*
G01*
X146283645Y-110354782D01*
X146369036Y-110390153D01*
X146429416Y-110415163D01*
X146495012Y-110458993D01*
X146541419Y-110490000D01*
X146560608Y-110502822D01*
X146672178Y-110614392D01*
X146759837Y-110745584D01*
X146784847Y-110805964D01*
X146820218Y-110891355D01*
X146851000Y-111046109D01*
X146851000Y-111203891D01*
X146820218Y-111358645D01*
X146784847Y-111444036D01*
X146759837Y-111504416D01*
X146759836Y-111504417D01*
X146672179Y-111635607D01*
X146560607Y-111747179D01*
X146495012Y-111791007D01*
X146429416Y-111834837D01*
X146369036Y-111859847D01*
X146283645Y-111895218D01*
X146180476Y-111915739D01*
X146128892Y-111926000D01*
X145971108Y-111926000D01*
X145919524Y-111915739D01*
X145816355Y-111895218D01*
X145730964Y-111859847D01*
X145670584Y-111834837D01*
X145604988Y-111791007D01*
X145539393Y-111747179D01*
X145427821Y-111635607D01*
X145340164Y-111504417D01*
X145340163Y-111504416D01*
X145315153Y-111444036D01*
X145279782Y-111358645D01*
X145249000Y-111203891D01*
X145249000Y-111046109D01*
X145279782Y-110891355D01*
X145315153Y-110805964D01*
X145340163Y-110745584D01*
X145427822Y-110614392D01*
X145539392Y-110502822D01*
X145558582Y-110490000D01*
X145604988Y-110458992D01*
X145670584Y-110415163D01*
X145730964Y-110390153D01*
X145816355Y-110354782D01*
X145919524Y-110334261D01*
X145971108Y-110324000D01*
X146128892Y-110324000D01*
X146180476Y-110334261D01*
X146180476Y-110334261D01*
G37*
G36*
X149355476Y-110334261D02*
G01*
X149458645Y-110354782D01*
X149544036Y-110390153D01*
X149604416Y-110415163D01*
X149670012Y-110458993D01*
X149716419Y-110490000D01*
X149735608Y-110502822D01*
X149847178Y-110614392D01*
X149934837Y-110745584D01*
X149959847Y-110805964D01*
X149995218Y-110891355D01*
X150026000Y-111046109D01*
X150026000Y-111203891D01*
X149995218Y-111358645D01*
X149959847Y-111444036D01*
X149934837Y-111504416D01*
X149934836Y-111504417D01*
X149847179Y-111635607D01*
X149735607Y-111747179D01*
X149670012Y-111791007D01*
X149604416Y-111834837D01*
X149544036Y-111859847D01*
X149458645Y-111895218D01*
X149355476Y-111915739D01*
X149303892Y-111926000D01*
X149146108Y-111926000D01*
X149094524Y-111915739D01*
X148991355Y-111895218D01*
X148905964Y-111859847D01*
X148845584Y-111834837D01*
X148779988Y-111791007D01*
X148714393Y-111747179D01*
X148602821Y-111635607D01*
X148515164Y-111504417D01*
X148515163Y-111504416D01*
X148490153Y-111444036D01*
X148454782Y-111358645D01*
X148424000Y-111203891D01*
X148424000Y-111046109D01*
X148454782Y-110891355D01*
X148490153Y-110805964D01*
X148515163Y-110745584D01*
X148602822Y-110614392D01*
X148714392Y-110502822D01*
X148733582Y-110490000D01*
X148779988Y-110458992D01*
X148845584Y-110415163D01*
X148905964Y-110390153D01*
X148991355Y-110354782D01*
X149094524Y-110334261D01*
X149146108Y-110324000D01*
X149303892Y-110324000D01*
X149355476Y-110334261D01*
X149355476Y-110334261D01*
G37*
G36*
X106823535Y-109598778D02*
G01*
X106856627Y-109602037D01*
X106969853Y-109636384D01*
X107026467Y-109653557D01*
X107182990Y-109737220D01*
X107320186Y-109849814D01*
X107432780Y-109987010D01*
X107516443Y-110143533D01*
X107516443Y-110143534D01*
X107567963Y-110313373D01*
X107567963Y-110313375D01*
X107585360Y-110490000D01*
X107579844Y-110546000D01*
X107567963Y-110666627D01*
X107544012Y-110745583D01*
X107516443Y-110836467D01*
X107432780Y-110992990D01*
X107320186Y-111130186D01*
X107182990Y-111242780D01*
X107026467Y-111326443D01*
X106969853Y-111343616D01*
X106856627Y-111377963D01*
X106823535Y-111381222D01*
X106724264Y-111391000D01*
X106635736Y-111391000D01*
X106536465Y-111381222D01*
X106503373Y-111377963D01*
X106390147Y-111343616D01*
X106333533Y-111326443D01*
X106177010Y-111242780D01*
X106039814Y-111130186D01*
X105927220Y-110992990D01*
X105843557Y-110836467D01*
X105815988Y-110745583D01*
X105792037Y-110666627D01*
X105780156Y-110546000D01*
X105774640Y-110490000D01*
X105792037Y-110313375D01*
X105792037Y-110313373D01*
X105843557Y-110143534D01*
X105843557Y-110143533D01*
X105927220Y-109987010D01*
X106039814Y-109849814D01*
X106177010Y-109737220D01*
X106333533Y-109653557D01*
X106390147Y-109636384D01*
X106503373Y-109602037D01*
X106536465Y-109598778D01*
X106635736Y-109589000D01*
X106724264Y-109589000D01*
X106823535Y-109598778D01*
X106823535Y-109598778D01*
G37*
G36*
X104283535Y-109598778D02*
G01*
X104316627Y-109602037D01*
X104429853Y-109636384D01*
X104486467Y-109653557D01*
X104642990Y-109737220D01*
X104780186Y-109849814D01*
X104892780Y-109987010D01*
X104976443Y-110143533D01*
X104976443Y-110143534D01*
X105027963Y-110313373D01*
X105027963Y-110313375D01*
X105045360Y-110490000D01*
X105039844Y-110546000D01*
X105027963Y-110666627D01*
X105004012Y-110745583D01*
X104976443Y-110836467D01*
X104892780Y-110992990D01*
X104780186Y-111130186D01*
X104642990Y-111242780D01*
X104486467Y-111326443D01*
X104429853Y-111343616D01*
X104316627Y-111377963D01*
X104283535Y-111381222D01*
X104184264Y-111391000D01*
X104095736Y-111391000D01*
X103996465Y-111381222D01*
X103963373Y-111377963D01*
X103850147Y-111343616D01*
X103793533Y-111326443D01*
X103637010Y-111242780D01*
X103499814Y-111130186D01*
X103387220Y-110992990D01*
X103303557Y-110836467D01*
X103275988Y-110745583D01*
X103252037Y-110666627D01*
X103240156Y-110546000D01*
X103234640Y-110490000D01*
X103252037Y-110313375D01*
X103252037Y-110313373D01*
X103303557Y-110143534D01*
X103303557Y-110143533D01*
X103387220Y-109987010D01*
X103499814Y-109849814D01*
X103637010Y-109737220D01*
X103793533Y-109653557D01*
X103850147Y-109636384D01*
X103963373Y-109602037D01*
X103996465Y-109598778D01*
X104095736Y-109589000D01*
X104184264Y-109589000D01*
X104283535Y-109598778D01*
X104283535Y-109598778D01*
G37*
G36*
X121626136Y-109563253D02*
G01*
X121626138Y-109563254D01*
X121626139Y-109563254D01*
X121717314Y-109601021D01*
X121799368Y-109655847D01*
X121869153Y-109725632D01*
X121923979Y-109807686D01*
X121958607Y-109891282D01*
X121961747Y-109898864D01*
X121981000Y-109995656D01*
X121981000Y-110094344D01*
X121971216Y-110143534D01*
X121961746Y-110191139D01*
X121923979Y-110282314D01*
X121869153Y-110364368D01*
X121799368Y-110434153D01*
X121717314Y-110488979D01*
X121717313Y-110488980D01*
X121717312Y-110488980D01*
X121683897Y-110502821D01*
X121626139Y-110526746D01*
X121626138Y-110526746D01*
X121626136Y-110526747D01*
X121529344Y-110546000D01*
X121430656Y-110546000D01*
X121333864Y-110526747D01*
X121333862Y-110526746D01*
X121333861Y-110526746D01*
X121276103Y-110502821D01*
X121242688Y-110488980D01*
X121242687Y-110488980D01*
X121242686Y-110488979D01*
X121160632Y-110434153D01*
X121090847Y-110364368D01*
X121036021Y-110282314D01*
X120998254Y-110191139D01*
X120988785Y-110143534D01*
X120979000Y-110094344D01*
X120979000Y-109995656D01*
X120998253Y-109898864D01*
X121001394Y-109891282D01*
X121036021Y-109807686D01*
X121090847Y-109725632D01*
X121160632Y-109655847D01*
X121242686Y-109601021D01*
X121333861Y-109563254D01*
X121333862Y-109563254D01*
X121333864Y-109563253D01*
X121430656Y-109544000D01*
X121529344Y-109544000D01*
X121626136Y-109563253D01*
X121626136Y-109563253D01*
G37*
G36*
X153178535Y-108328778D02*
G01*
X153211627Y-108332037D01*
X153324853Y-108366384D01*
X153381467Y-108383557D01*
X153537990Y-108467220D01*
X153675186Y-108579814D01*
X153787780Y-108717010D01*
X153871443Y-108873533D01*
X153880797Y-108904369D01*
X153918597Y-109028979D01*
X153922963Y-109043374D01*
X153940360Y-109220000D01*
X153927041Y-109355218D01*
X153922963Y-109396627D01*
X153904554Y-109457312D01*
X153871443Y-109566467D01*
X153787780Y-109722990D01*
X153675186Y-109860186D01*
X153537990Y-109972780D01*
X153381467Y-110056443D01*
X153374069Y-110058687D01*
X153211627Y-110107963D01*
X153178535Y-110111222D01*
X153079264Y-110121000D01*
X152990736Y-110121000D01*
X152891465Y-110111222D01*
X152858373Y-110107963D01*
X152695931Y-110058687D01*
X152688533Y-110056443D01*
X152532010Y-109972780D01*
X152394814Y-109860186D01*
X152282220Y-109722990D01*
X152198557Y-109566467D01*
X152165446Y-109457312D01*
X152147037Y-109396627D01*
X152142959Y-109355218D01*
X152129640Y-109220000D01*
X152147037Y-109043374D01*
X152151404Y-109028979D01*
X152189203Y-108904369D01*
X152198557Y-108873533D01*
X152282220Y-108717010D01*
X152394814Y-108579814D01*
X152532010Y-108467220D01*
X152688533Y-108383557D01*
X152745147Y-108366384D01*
X152858373Y-108332037D01*
X152891465Y-108328778D01*
X152990736Y-108319000D01*
X153079264Y-108319000D01*
X153178535Y-108328778D01*
X153178535Y-108328778D01*
G37*
G36*
X125896823Y-108381313D02*
G01*
X126057240Y-108429975D01*
X126205077Y-108508995D01*
X126334659Y-108615341D01*
X126441005Y-108744923D01*
X126520025Y-108892760D01*
X126568687Y-109053177D01*
X126585118Y-109220000D01*
X126568687Y-109386823D01*
X126520025Y-109547240D01*
X126441005Y-109695077D01*
X126334659Y-109824659D01*
X126205077Y-109931005D01*
X126057240Y-110010025D01*
X125896823Y-110058687D01*
X125771806Y-110071000D01*
X125688194Y-110071000D01*
X125563177Y-110058687D01*
X125402760Y-110010025D01*
X125254923Y-109931005D01*
X125125341Y-109824659D01*
X125018995Y-109695077D01*
X124939975Y-109547240D01*
X124891313Y-109386823D01*
X124874882Y-109220000D01*
X124891313Y-109053177D01*
X124939975Y-108892760D01*
X125018995Y-108744923D01*
X125125341Y-108615341D01*
X125254923Y-108508995D01*
X125402760Y-108429975D01*
X125563177Y-108381313D01*
X125688194Y-108369000D01*
X125771806Y-108369000D01*
X125896823Y-108381313D01*
X125896823Y-108381313D01*
G37*
G36*
X133516823Y-108381313D02*
G01*
X133677240Y-108429975D01*
X133825077Y-108508995D01*
X133954659Y-108615341D01*
X134061005Y-108744923D01*
X134140025Y-108892760D01*
X134188687Y-109053177D01*
X134205118Y-109220000D01*
X134188687Y-109386823D01*
X134140025Y-109547240D01*
X134061005Y-109695077D01*
X133954659Y-109824659D01*
X133825077Y-109931005D01*
X133677240Y-110010025D01*
X133516823Y-110058687D01*
X133391806Y-110071000D01*
X133308194Y-110071000D01*
X133183177Y-110058687D01*
X133022760Y-110010025D01*
X132874923Y-109931005D01*
X132745341Y-109824659D01*
X132638995Y-109695077D01*
X132559975Y-109547240D01*
X132511313Y-109386823D01*
X132494882Y-109220000D01*
X132511313Y-109053177D01*
X132559975Y-108892760D01*
X132638995Y-108744923D01*
X132745341Y-108615341D01*
X132874923Y-108508995D01*
X133022760Y-108429975D01*
X133183177Y-108381313D01*
X133308194Y-108369000D01*
X133391806Y-108369000D01*
X133516823Y-108381313D01*
X133516823Y-108381313D01*
G37*
G36*
X138637321Y-108473617D02*
G01*
X138677691Y-108485864D01*
X138714887Y-108505745D01*
X138747495Y-108532505D01*
X138774255Y-108565113D01*
X138794136Y-108602309D01*
X138806383Y-108642679D01*
X138811000Y-108689559D01*
X138811000Y-109750441D01*
X138806383Y-109797321D01*
X138794136Y-109837691D01*
X138774255Y-109874887D01*
X138747495Y-109907495D01*
X138714887Y-109934255D01*
X138677691Y-109954136D01*
X138637321Y-109966383D01*
X138590441Y-109971000D01*
X137779559Y-109971000D01*
X137732679Y-109966383D01*
X137692309Y-109954136D01*
X137655113Y-109934255D01*
X137622505Y-109907495D01*
X137595745Y-109874887D01*
X137575864Y-109837691D01*
X137563617Y-109797321D01*
X137559000Y-109750441D01*
X137559000Y-108689559D01*
X137563617Y-108642679D01*
X137575864Y-108602309D01*
X137595745Y-108565113D01*
X137622505Y-108532505D01*
X137655113Y-108505745D01*
X137692309Y-108485864D01*
X137732679Y-108473617D01*
X137779559Y-108469000D01*
X138590441Y-108469000D01*
X138637321Y-108473617D01*
X138637321Y-108473617D01*
G37*
G36*
X118562321Y-108473617D02*
G01*
X118602691Y-108485864D01*
X118639887Y-108505745D01*
X118672495Y-108532505D01*
X118699255Y-108565113D01*
X118719136Y-108602309D01*
X118731383Y-108642679D01*
X118736000Y-108689559D01*
X118736000Y-109750441D01*
X118731383Y-109797321D01*
X118719136Y-109837691D01*
X118699255Y-109874887D01*
X118672495Y-109907495D01*
X118639887Y-109934255D01*
X118602691Y-109954136D01*
X118562321Y-109966383D01*
X118515441Y-109971000D01*
X117704559Y-109971000D01*
X117657679Y-109966383D01*
X117617309Y-109954136D01*
X117580113Y-109934255D01*
X117547505Y-109907495D01*
X117520745Y-109874887D01*
X117500864Y-109837691D01*
X117488617Y-109797321D01*
X117484000Y-109750441D01*
X117484000Y-108689559D01*
X117488617Y-108642679D01*
X117500864Y-108602309D01*
X117520745Y-108565113D01*
X117547505Y-108532505D01*
X117580113Y-108505745D01*
X117617309Y-108485864D01*
X117657679Y-108473617D01*
X117704559Y-108469000D01*
X118515441Y-108469000D01*
X118562321Y-108473617D01*
X118562321Y-108473617D01*
G37*
G36*
X136587321Y-108473617D02*
G01*
X136627691Y-108485864D01*
X136664887Y-108505745D01*
X136697495Y-108532505D01*
X136724255Y-108565113D01*
X136744136Y-108602309D01*
X136756383Y-108642679D01*
X136761000Y-108689559D01*
X136761000Y-109750441D01*
X136756383Y-109797321D01*
X136744136Y-109837691D01*
X136724255Y-109874887D01*
X136697495Y-109907495D01*
X136664887Y-109934255D01*
X136627691Y-109954136D01*
X136587321Y-109966383D01*
X136540441Y-109971000D01*
X135729559Y-109971000D01*
X135682679Y-109966383D01*
X135642309Y-109954136D01*
X135605113Y-109934255D01*
X135572505Y-109907495D01*
X135545745Y-109874887D01*
X135525864Y-109837691D01*
X135513617Y-109797321D01*
X135509000Y-109750441D01*
X135509000Y-108689559D01*
X135513617Y-108642679D01*
X135525864Y-108602309D01*
X135545745Y-108565113D01*
X135572505Y-108532505D01*
X135605113Y-108505745D01*
X135642309Y-108485864D01*
X135682679Y-108473617D01*
X135729559Y-108469000D01*
X136540441Y-108469000D01*
X136587321Y-108473617D01*
X136587321Y-108473617D01*
G37*
G36*
X116512321Y-108473617D02*
G01*
X116552691Y-108485864D01*
X116589887Y-108505745D01*
X116622495Y-108532505D01*
X116649255Y-108565113D01*
X116669136Y-108602309D01*
X116681383Y-108642679D01*
X116686000Y-108689559D01*
X116686000Y-109750441D01*
X116681383Y-109797321D01*
X116669136Y-109837691D01*
X116649255Y-109874887D01*
X116622495Y-109907495D01*
X116589887Y-109934255D01*
X116552691Y-109954136D01*
X116512321Y-109966383D01*
X116465441Y-109971000D01*
X115654559Y-109971000D01*
X115607679Y-109966383D01*
X115567309Y-109954136D01*
X115530113Y-109934255D01*
X115497505Y-109907495D01*
X115470745Y-109874887D01*
X115450864Y-109837691D01*
X115438617Y-109797321D01*
X115434000Y-109750441D01*
X115434000Y-108689559D01*
X115438617Y-108642679D01*
X115450864Y-108602309D01*
X115470745Y-108565113D01*
X115497505Y-108532505D01*
X115530113Y-108505745D01*
X115567309Y-108485864D01*
X115607679Y-108473617D01*
X115654559Y-108469000D01*
X116465441Y-108469000D01*
X116512321Y-108473617D01*
X116512321Y-108473617D01*
G37*
G36*
X140608136Y-108738253D02*
G01*
X140608138Y-108738254D01*
X140608139Y-108738254D01*
X140699314Y-108776021D01*
X140781368Y-108830847D01*
X140851153Y-108900632D01*
X140905979Y-108982686D01*
X140931118Y-109043374D01*
X140943747Y-109073864D01*
X140963000Y-109170656D01*
X140963000Y-109269344D01*
X140945919Y-109355218D01*
X140943746Y-109366139D01*
X140905979Y-109457314D01*
X140851153Y-109539368D01*
X140781368Y-109609153D01*
X140699314Y-109663979D01*
X140608139Y-109701746D01*
X140608138Y-109701746D01*
X140608136Y-109701747D01*
X140511344Y-109721000D01*
X140412656Y-109721000D01*
X140315864Y-109701747D01*
X140315862Y-109701746D01*
X140315861Y-109701746D01*
X140224686Y-109663979D01*
X140142632Y-109609153D01*
X140072847Y-109539368D01*
X140018021Y-109457314D01*
X139980254Y-109366139D01*
X139978082Y-109355218D01*
X139961000Y-109269344D01*
X139961000Y-109170656D01*
X139980253Y-109073864D01*
X139992883Y-109043374D01*
X140018021Y-108982686D01*
X140072847Y-108900632D01*
X140142632Y-108830847D01*
X140224686Y-108776021D01*
X140315861Y-108738254D01*
X140315862Y-108738254D01*
X140315864Y-108738253D01*
X140412656Y-108719000D01*
X140511344Y-108719000D01*
X140608136Y-108738253D01*
X140608136Y-108738253D01*
G37*
G36*
X109985476Y-107794261D02*
G01*
X110088645Y-107814782D01*
X110174036Y-107850153D01*
X110234416Y-107875163D01*
X110234417Y-107875164D01*
X110346419Y-107950000D01*
X110365608Y-107962822D01*
X110477178Y-108074392D01*
X110564837Y-108205584D01*
X110589709Y-108265631D01*
X110625218Y-108351355D01*
X110656000Y-108506109D01*
X110656000Y-108663891D01*
X110625218Y-108818645D01*
X110591258Y-108900631D01*
X110564837Y-108964416D01*
X110558331Y-108974153D01*
X110477179Y-109095607D01*
X110365607Y-109207179D01*
X110300012Y-109251008D01*
X110234416Y-109294837D01*
X110174036Y-109319847D01*
X110088645Y-109355218D01*
X109985476Y-109375739D01*
X109933892Y-109386000D01*
X109776108Y-109386000D01*
X109724524Y-109375739D01*
X109621355Y-109355218D01*
X109535964Y-109319847D01*
X109475584Y-109294837D01*
X109409988Y-109251008D01*
X109344393Y-109207179D01*
X109232821Y-109095607D01*
X109151669Y-108974153D01*
X109145163Y-108964416D01*
X109118742Y-108900631D01*
X109084782Y-108818645D01*
X109054000Y-108663891D01*
X109054000Y-108506109D01*
X109084782Y-108351355D01*
X109120291Y-108265631D01*
X109145163Y-108205584D01*
X109232822Y-108074392D01*
X109344392Y-107962822D01*
X109363582Y-107950000D01*
X109475583Y-107875164D01*
X109475584Y-107875163D01*
X109535964Y-107850153D01*
X109621355Y-107814782D01*
X109724524Y-107794261D01*
X109776108Y-107784000D01*
X109933892Y-107784000D01*
X109985476Y-107794261D01*
X109985476Y-107794261D01*
G37*
G36*
X150006136Y-108103253D02*
G01*
X150006138Y-108103254D01*
X150006139Y-108103254D01*
X150097314Y-108141021D01*
X150179368Y-108195847D01*
X150249153Y-108265632D01*
X150298278Y-108339153D01*
X150303980Y-108347688D01*
X150341747Y-108438864D01*
X150361000Y-108535656D01*
X150361000Y-108634344D01*
X150344557Y-108717010D01*
X150341746Y-108731139D01*
X150303979Y-108822314D01*
X150249153Y-108904368D01*
X150179368Y-108974153D01*
X150097314Y-109028979D01*
X150006139Y-109066746D01*
X150006138Y-109066746D01*
X150006136Y-109066747D01*
X149909344Y-109086000D01*
X149810656Y-109086000D01*
X149713864Y-109066747D01*
X149713862Y-109066746D01*
X149713861Y-109066746D01*
X149622686Y-109028979D01*
X149540632Y-108974153D01*
X149470847Y-108904368D01*
X149416021Y-108822314D01*
X149378254Y-108731139D01*
X149375444Y-108717010D01*
X149359000Y-108634344D01*
X149359000Y-108535656D01*
X149378253Y-108438864D01*
X149416020Y-108347688D01*
X149421723Y-108339153D01*
X149470847Y-108265632D01*
X149540632Y-108195847D01*
X149622686Y-108141021D01*
X149713861Y-108103254D01*
X149713862Y-108103254D01*
X149713864Y-108103253D01*
X149810656Y-108084000D01*
X149909344Y-108084000D01*
X150006136Y-108103253D01*
X150006136Y-108103253D01*
G37*
G36*
X104283535Y-107058778D02*
G01*
X104316627Y-107062037D01*
X104429853Y-107096384D01*
X104486467Y-107113557D01*
X104642990Y-107197220D01*
X104780186Y-107309814D01*
X104892780Y-107447010D01*
X104976443Y-107603533D01*
X104985797Y-107634369D01*
X105027963Y-107773373D01*
X105027963Y-107773375D01*
X105045360Y-107950000D01*
X105033108Y-108074392D01*
X105027963Y-108126627D01*
X105009554Y-108187312D01*
X104976443Y-108296467D01*
X104892780Y-108452990D01*
X104780186Y-108590186D01*
X104642990Y-108702780D01*
X104486467Y-108786443D01*
X104429853Y-108803616D01*
X104316627Y-108837963D01*
X104283535Y-108841222D01*
X104184264Y-108851000D01*
X104095736Y-108851000D01*
X103996465Y-108841222D01*
X103963373Y-108837963D01*
X103850147Y-108803616D01*
X103793533Y-108786443D01*
X103637010Y-108702780D01*
X103499814Y-108590186D01*
X103387220Y-108452990D01*
X103303557Y-108296467D01*
X103270446Y-108187312D01*
X103252037Y-108126627D01*
X103246892Y-108074392D01*
X103234640Y-107950000D01*
X103252037Y-107773375D01*
X103252037Y-107773373D01*
X103294203Y-107634369D01*
X103303557Y-107603533D01*
X103387220Y-107447010D01*
X103499814Y-107309814D01*
X103637010Y-107197220D01*
X103793533Y-107113557D01*
X103850147Y-107096384D01*
X103963373Y-107062037D01*
X103996465Y-107058778D01*
X104095736Y-107049000D01*
X104184264Y-107049000D01*
X104283535Y-107058778D01*
X104283535Y-107058778D01*
G37*
G36*
X106823535Y-107058778D02*
G01*
X106856627Y-107062037D01*
X106969853Y-107096384D01*
X107026467Y-107113557D01*
X107182990Y-107197220D01*
X107320186Y-107309814D01*
X107432780Y-107447010D01*
X107516443Y-107603533D01*
X107525797Y-107634369D01*
X107567963Y-107773373D01*
X107567963Y-107773375D01*
X107585360Y-107950000D01*
X107573108Y-108074392D01*
X107567963Y-108126627D01*
X107549554Y-108187312D01*
X107516443Y-108296467D01*
X107432780Y-108452990D01*
X107320186Y-108590186D01*
X107182990Y-108702780D01*
X107026467Y-108786443D01*
X106969853Y-108803616D01*
X106856627Y-108837963D01*
X106823535Y-108841222D01*
X106724264Y-108851000D01*
X106635736Y-108851000D01*
X106536465Y-108841222D01*
X106503373Y-108837963D01*
X106390147Y-108803616D01*
X106333533Y-108786443D01*
X106177010Y-108702780D01*
X106039814Y-108590186D01*
X105927220Y-108452990D01*
X105843557Y-108296467D01*
X105810446Y-108187312D01*
X105792037Y-108126627D01*
X105786892Y-108074392D01*
X105774640Y-107950000D01*
X105792037Y-107773375D01*
X105792037Y-107773373D01*
X105834203Y-107634369D01*
X105843557Y-107603533D01*
X105927220Y-107447010D01*
X106039814Y-107309814D01*
X106177010Y-107197220D01*
X106333533Y-107113557D01*
X106390147Y-107096384D01*
X106503373Y-107062037D01*
X106536465Y-107058778D01*
X106635736Y-107049000D01*
X106724264Y-107049000D01*
X106823535Y-107058778D01*
X106823535Y-107058778D01*
G37*
G36*
X113176136Y-107468253D02*
G01*
X113176138Y-107468254D01*
X113176139Y-107468254D01*
X113267314Y-107506021D01*
X113349368Y-107560847D01*
X113419153Y-107630632D01*
X113468278Y-107704153D01*
X113473980Y-107712688D01*
X113511747Y-107803864D01*
X113514161Y-107816000D01*
X113531000Y-107900658D01*
X113531000Y-107999342D01*
X113511746Y-108096139D01*
X113473979Y-108187314D01*
X113419153Y-108269368D01*
X113349368Y-108339153D01*
X113267314Y-108393979D01*
X113176139Y-108431746D01*
X113176138Y-108431746D01*
X113176136Y-108431747D01*
X113079344Y-108451000D01*
X112980656Y-108451000D01*
X112883864Y-108431747D01*
X112883862Y-108431746D01*
X112883861Y-108431746D01*
X112792686Y-108393979D01*
X112710632Y-108339153D01*
X112640847Y-108269368D01*
X112586021Y-108187314D01*
X112548254Y-108096139D01*
X112529000Y-107999342D01*
X112529000Y-107900658D01*
X112545839Y-107816000D01*
X112548253Y-107803864D01*
X112586020Y-107712688D01*
X112591723Y-107704153D01*
X112640847Y-107630632D01*
X112710632Y-107560847D01*
X112792686Y-107506021D01*
X112883861Y-107468254D01*
X112883862Y-107468254D01*
X112883864Y-107468253D01*
X112980656Y-107449000D01*
X113079344Y-107449000D01*
X113176136Y-107468253D01*
X113176136Y-107468253D01*
G37*
G36*
X136036136Y-106833253D02*
G01*
X136036138Y-106833254D01*
X136036139Y-106833254D01*
X136127314Y-106871021D01*
X136209368Y-106925847D01*
X136279153Y-106995632D01*
X136323523Y-107062037D01*
X136333980Y-107077688D01*
X136336020Y-107082613D01*
X136367590Y-107158827D01*
X136371747Y-107168864D01*
X136391000Y-107265656D01*
X136391000Y-107364344D01*
X136374557Y-107447010D01*
X136371746Y-107461139D01*
X136333979Y-107552314D01*
X136279153Y-107634368D01*
X136209368Y-107704153D01*
X136127314Y-107758979D01*
X136036139Y-107796746D01*
X136036138Y-107796746D01*
X136036136Y-107796747D01*
X135939344Y-107816000D01*
X135840656Y-107816000D01*
X135743864Y-107796747D01*
X135743862Y-107796746D01*
X135743861Y-107796746D01*
X135652686Y-107758979D01*
X135570632Y-107704153D01*
X135500847Y-107634368D01*
X135446021Y-107552314D01*
X135408254Y-107461139D01*
X135405444Y-107447010D01*
X135389000Y-107364344D01*
X135389000Y-107265656D01*
X135408253Y-107168864D01*
X135412411Y-107158827D01*
X135443980Y-107082613D01*
X135446020Y-107077688D01*
X135456478Y-107062037D01*
X135500847Y-106995632D01*
X135570632Y-106925847D01*
X135652686Y-106871021D01*
X135743861Y-106833254D01*
X135743862Y-106833254D01*
X135743864Y-106833253D01*
X135840656Y-106814000D01*
X135939344Y-106814000D01*
X136036136Y-106833253D01*
X136036136Y-106833253D01*
G37*
G36*
X153178535Y-105788778D02*
G01*
X153211627Y-105792037D01*
X153324853Y-105826384D01*
X153381467Y-105843557D01*
X153537990Y-105927220D01*
X153675186Y-106039814D01*
X153787780Y-106177010D01*
X153871443Y-106333533D01*
X153880797Y-106364369D01*
X153918597Y-106488979D01*
X153922963Y-106503374D01*
X153940360Y-106680000D01*
X153927161Y-106814000D01*
X153922963Y-106856627D01*
X153901965Y-106925847D01*
X153871443Y-107026467D01*
X153787780Y-107182990D01*
X153675186Y-107320186D01*
X153537990Y-107432780D01*
X153381467Y-107516443D01*
X153374069Y-107518687D01*
X153211627Y-107567963D01*
X153178535Y-107571222D01*
X153079264Y-107581000D01*
X152990736Y-107581000D01*
X152891465Y-107571222D01*
X152858373Y-107567963D01*
X152695931Y-107518687D01*
X152688533Y-107516443D01*
X152532010Y-107432780D01*
X152394814Y-107320186D01*
X152282220Y-107182990D01*
X152198557Y-107026467D01*
X152168035Y-106925847D01*
X152147037Y-106856627D01*
X152142839Y-106814000D01*
X152129640Y-106680000D01*
X152147037Y-106503374D01*
X152151404Y-106488979D01*
X152189203Y-106364369D01*
X152198557Y-106333533D01*
X152282220Y-106177010D01*
X152394814Y-106039814D01*
X152532010Y-105927220D01*
X152688533Y-105843557D01*
X152745147Y-105826384D01*
X152858373Y-105792037D01*
X152891465Y-105788778D01*
X152990736Y-105779000D01*
X153079264Y-105779000D01*
X153178535Y-105788778D01*
X153178535Y-105788778D01*
G37*
G36*
X133516823Y-105841313D02*
G01*
X133677240Y-105889975D01*
X133825077Y-105968995D01*
X133954659Y-106075341D01*
X134061005Y-106204923D01*
X134140025Y-106352760D01*
X134188687Y-106513177D01*
X134205118Y-106680000D01*
X134188687Y-106846823D01*
X134140025Y-107007240D01*
X134061005Y-107155077D01*
X133954659Y-107284659D01*
X133825077Y-107391005D01*
X133677240Y-107470025D01*
X133516823Y-107518687D01*
X133391806Y-107531000D01*
X133308194Y-107531000D01*
X133183177Y-107518687D01*
X133022760Y-107470025D01*
X132874923Y-107391005D01*
X132745341Y-107284659D01*
X132638995Y-107155077D01*
X132559975Y-107007240D01*
X132511313Y-106846823D01*
X132494882Y-106680000D01*
X132511313Y-106513177D01*
X132559975Y-106352760D01*
X132638995Y-106204923D01*
X132745341Y-106075341D01*
X132874923Y-105968995D01*
X133022760Y-105889975D01*
X133183177Y-105841313D01*
X133308194Y-105829000D01*
X133391806Y-105829000D01*
X133516823Y-105841313D01*
X133516823Y-105841313D01*
G37*
G36*
X125896823Y-105841313D02*
G01*
X126057240Y-105889975D01*
X126205077Y-105968995D01*
X126334659Y-106075341D01*
X126441005Y-106204923D01*
X126520025Y-106352760D01*
X126568687Y-106513177D01*
X126585118Y-106680000D01*
X126568687Y-106846823D01*
X126520025Y-107007240D01*
X126441005Y-107155077D01*
X126334659Y-107284659D01*
X126205077Y-107391005D01*
X126057240Y-107470025D01*
X125896823Y-107518687D01*
X125771806Y-107531000D01*
X125688194Y-107531000D01*
X125563177Y-107518687D01*
X125402760Y-107470025D01*
X125254923Y-107391005D01*
X125125341Y-107284659D01*
X125018995Y-107155077D01*
X124939975Y-107007240D01*
X124891313Y-106846823D01*
X124874882Y-106680000D01*
X124891313Y-106513177D01*
X124939975Y-106352760D01*
X125018995Y-106204923D01*
X125125341Y-106075341D01*
X125254923Y-105968995D01*
X125402760Y-105889975D01*
X125563177Y-105841313D01*
X125688194Y-105829000D01*
X125771806Y-105829000D01*
X125896823Y-105841313D01*
X125896823Y-105841313D01*
G37*
G36*
X116512321Y-105933617D02*
G01*
X116552691Y-105945864D01*
X116589887Y-105965745D01*
X116622495Y-105992505D01*
X116649255Y-106025113D01*
X116669136Y-106062309D01*
X116681383Y-106102679D01*
X116686000Y-106149559D01*
X116686000Y-107210441D01*
X116681383Y-107257321D01*
X116669136Y-107297691D01*
X116649255Y-107334887D01*
X116622495Y-107367495D01*
X116589887Y-107394255D01*
X116552691Y-107414136D01*
X116512321Y-107426383D01*
X116465441Y-107431000D01*
X115654559Y-107431000D01*
X115607679Y-107426383D01*
X115567309Y-107414136D01*
X115530113Y-107394255D01*
X115497505Y-107367495D01*
X115470745Y-107334887D01*
X115450864Y-107297691D01*
X115438617Y-107257321D01*
X115434000Y-107210441D01*
X115434000Y-106149559D01*
X115438617Y-106102679D01*
X115450864Y-106062309D01*
X115470745Y-106025113D01*
X115497505Y-105992505D01*
X115530113Y-105965745D01*
X115567309Y-105945864D01*
X115607679Y-105933617D01*
X115654559Y-105929000D01*
X116465441Y-105929000D01*
X116512321Y-105933617D01*
X116512321Y-105933617D01*
G37*
G36*
X118562321Y-105933617D02*
G01*
X118602691Y-105945864D01*
X118639887Y-105965745D01*
X118672495Y-105992505D01*
X118699255Y-106025113D01*
X118719136Y-106062309D01*
X118731383Y-106102679D01*
X118736000Y-106149559D01*
X118736000Y-107210441D01*
X118731383Y-107257321D01*
X118719136Y-107297691D01*
X118699255Y-107334887D01*
X118672495Y-107367495D01*
X118639887Y-107394255D01*
X118602691Y-107414136D01*
X118562321Y-107426383D01*
X118515441Y-107431000D01*
X117704559Y-107431000D01*
X117657679Y-107426383D01*
X117617309Y-107414136D01*
X117580113Y-107394255D01*
X117547505Y-107367495D01*
X117520745Y-107334887D01*
X117500864Y-107297691D01*
X117488617Y-107257321D01*
X117484000Y-107210441D01*
X117484000Y-106149559D01*
X117488617Y-106102679D01*
X117500864Y-106062309D01*
X117520745Y-106025113D01*
X117547505Y-105992505D01*
X117580113Y-105965745D01*
X117617309Y-105945864D01*
X117657679Y-105933617D01*
X117704559Y-105929000D01*
X118515441Y-105929000D01*
X118562321Y-105933617D01*
X118562321Y-105933617D01*
G37*
G36*
X143048057Y-106211713D02*
G01*
X143048059Y-106211714D01*
X143048060Y-106211714D01*
X143139235Y-106249481D01*
X143211794Y-106297963D01*
X143221290Y-106304308D01*
X143291073Y-106374091D01*
X143345901Y-106456148D01*
X143383668Y-106547324D01*
X143402921Y-106644116D01*
X143402921Y-106742804D01*
X143384930Y-106833253D01*
X143383667Y-106839599D01*
X143370652Y-106871020D01*
X143347941Y-106925848D01*
X143345900Y-106930774D01*
X143291074Y-107012828D01*
X143221289Y-107082613D01*
X143139235Y-107137439D01*
X143048060Y-107175206D01*
X143048059Y-107175206D01*
X143048057Y-107175207D01*
X142951265Y-107194460D01*
X142852577Y-107194460D01*
X142755785Y-107175207D01*
X142755783Y-107175206D01*
X142755782Y-107175206D01*
X142664607Y-107137439D01*
X142582553Y-107082613D01*
X142512768Y-107012828D01*
X142457942Y-106930774D01*
X142455902Y-106925848D01*
X142433190Y-106871020D01*
X142420175Y-106839599D01*
X142418913Y-106833253D01*
X142400921Y-106742804D01*
X142400921Y-106644116D01*
X142420174Y-106547324D01*
X142457941Y-106456148D01*
X142512769Y-106374091D01*
X142582552Y-106304308D01*
X142592048Y-106297963D01*
X142664607Y-106249481D01*
X142755782Y-106211714D01*
X142755783Y-106211714D01*
X142755785Y-106211713D01*
X142852577Y-106192460D01*
X142951265Y-106192460D01*
X143048057Y-106211713D01*
X143048057Y-106211713D01*
G37*
G36*
X114446136Y-105563253D02*
G01*
X114446138Y-105563254D01*
X114446139Y-105563254D01*
X114537314Y-105601021D01*
X114619368Y-105655847D01*
X114689153Y-105725632D01*
X114743979Y-105807686D01*
X114770262Y-105871136D01*
X114781747Y-105898864D01*
X114801000Y-105995656D01*
X114801000Y-106094344D01*
X114784557Y-106177010D01*
X114781746Y-106191139D01*
X114743979Y-106282314D01*
X114689153Y-106364368D01*
X114619368Y-106434153D01*
X114537314Y-106488979D01*
X114446139Y-106526746D01*
X114446138Y-106526746D01*
X114446136Y-106526747D01*
X114349344Y-106546000D01*
X114250656Y-106546000D01*
X114153864Y-106526747D01*
X114153862Y-106526746D01*
X114153861Y-106526746D01*
X114062686Y-106488979D01*
X113980632Y-106434153D01*
X113910847Y-106364368D01*
X113856021Y-106282314D01*
X113818254Y-106191139D01*
X113815444Y-106177010D01*
X113799000Y-106094344D01*
X113799000Y-105995656D01*
X113818253Y-105898864D01*
X113829739Y-105871136D01*
X113856021Y-105807686D01*
X113910847Y-105725632D01*
X113980632Y-105655847D01*
X114062686Y-105601021D01*
X114153861Y-105563254D01*
X114153862Y-105563254D01*
X114153864Y-105563253D01*
X114250656Y-105544000D01*
X114349344Y-105544000D01*
X114446136Y-105563253D01*
X114446136Y-105563253D01*
G37*
G36*
X104283535Y-104518778D02*
G01*
X104316627Y-104522037D01*
X104429853Y-104556384D01*
X104486467Y-104573557D01*
X104642990Y-104657220D01*
X104780186Y-104769814D01*
X104892780Y-104907010D01*
X104976443Y-105063533D01*
X104988213Y-105102335D01*
X105027963Y-105233373D01*
X105027963Y-105233375D01*
X105045360Y-105410000D01*
X105037708Y-105487686D01*
X105027963Y-105586627D01*
X105006965Y-105655847D01*
X104976443Y-105756467D01*
X104892780Y-105912990D01*
X104780186Y-106050186D01*
X104642990Y-106162780D01*
X104486467Y-106246443D01*
X104429853Y-106263616D01*
X104316627Y-106297963D01*
X104283535Y-106301222D01*
X104184264Y-106311000D01*
X104095736Y-106311000D01*
X103996465Y-106301222D01*
X103963373Y-106297963D01*
X103850147Y-106263616D01*
X103793533Y-106246443D01*
X103637010Y-106162780D01*
X103499814Y-106050186D01*
X103387220Y-105912990D01*
X103303557Y-105756467D01*
X103273035Y-105655847D01*
X103252037Y-105586627D01*
X103242292Y-105487686D01*
X103234640Y-105410000D01*
X103252037Y-105233375D01*
X103252037Y-105233373D01*
X103291787Y-105102335D01*
X103303557Y-105063533D01*
X103387220Y-104907010D01*
X103499814Y-104769814D01*
X103637010Y-104657220D01*
X103793533Y-104573557D01*
X103850147Y-104556384D01*
X103963373Y-104522037D01*
X103996465Y-104518778D01*
X104095736Y-104509000D01*
X104184264Y-104509000D01*
X104283535Y-104518778D01*
X104283535Y-104518778D01*
G37*
G36*
X106823535Y-104518778D02*
G01*
X106856627Y-104522037D01*
X106969853Y-104556384D01*
X107026467Y-104573557D01*
X107182990Y-104657220D01*
X107320186Y-104769814D01*
X107432780Y-104907010D01*
X107516443Y-105063533D01*
X107528213Y-105102335D01*
X107567963Y-105233373D01*
X107567963Y-105233375D01*
X107585360Y-105410000D01*
X107577708Y-105487686D01*
X107567963Y-105586627D01*
X107546965Y-105655847D01*
X107516443Y-105756467D01*
X107432780Y-105912990D01*
X107320186Y-106050186D01*
X107182990Y-106162780D01*
X107026467Y-106246443D01*
X106969853Y-106263616D01*
X106856627Y-106297963D01*
X106823535Y-106301222D01*
X106724264Y-106311000D01*
X106635736Y-106311000D01*
X106536465Y-106301222D01*
X106503373Y-106297963D01*
X106390147Y-106263616D01*
X106333533Y-106246443D01*
X106177010Y-106162780D01*
X106039814Y-106050186D01*
X105927220Y-105912990D01*
X105843557Y-105756467D01*
X105813035Y-105655847D01*
X105792037Y-105586627D01*
X105782292Y-105487686D01*
X105774640Y-105410000D01*
X105792037Y-105233375D01*
X105792037Y-105233373D01*
X105831787Y-105102335D01*
X105843557Y-105063533D01*
X105927220Y-104907010D01*
X106039814Y-104769814D01*
X106177010Y-104657220D01*
X106333533Y-104573557D01*
X106390147Y-104556384D01*
X106503373Y-104522037D01*
X106536465Y-104518778D01*
X106635736Y-104509000D01*
X106724264Y-104509000D01*
X106823535Y-104518778D01*
X106823535Y-104518778D01*
G37*
G36*
X148421136Y-105243253D02*
G01*
X148421138Y-105243254D01*
X148421139Y-105243254D01*
X148512314Y-105281021D01*
X148594368Y-105335847D01*
X148664153Y-105405632D01*
X148684662Y-105436326D01*
X148718980Y-105487688D01*
X148756747Y-105578864D01*
X148776000Y-105675656D01*
X148776000Y-105774344D01*
X148762233Y-105843557D01*
X148756746Y-105871139D01*
X148718979Y-105962314D01*
X148664153Y-106044368D01*
X148594368Y-106114153D01*
X148512314Y-106168979D01*
X148512313Y-106168980D01*
X148512312Y-106168980D01*
X148492926Y-106177010D01*
X148421139Y-106206746D01*
X148421138Y-106206746D01*
X148421136Y-106206747D01*
X148324344Y-106226000D01*
X148225656Y-106226000D01*
X148128864Y-106206747D01*
X148128862Y-106206746D01*
X148128861Y-106206746D01*
X148057074Y-106177010D01*
X148037688Y-106168980D01*
X148037687Y-106168980D01*
X148037686Y-106168979D01*
X147955632Y-106114153D01*
X147885847Y-106044368D01*
X147831021Y-105962314D01*
X147793254Y-105871139D01*
X147787768Y-105843557D01*
X147774000Y-105774344D01*
X147774000Y-105675656D01*
X147793253Y-105578864D01*
X147831020Y-105487688D01*
X147865339Y-105436326D01*
X147885847Y-105405632D01*
X147955632Y-105335847D01*
X148037686Y-105281021D01*
X148128861Y-105243254D01*
X148128862Y-105243254D01*
X148128864Y-105243253D01*
X148225656Y-105224000D01*
X148324344Y-105224000D01*
X148421136Y-105243253D01*
X148421136Y-105243253D01*
G37*
G36*
X144711049Y-105351163D02*
G01*
X144717687Y-105353177D01*
X144723798Y-105356444D01*
X144729158Y-105360842D01*
X144733556Y-105366202D01*
X144736823Y-105372313D01*
X144738837Y-105378951D01*
X144740000Y-105390766D01*
X144740000Y-106059234D01*
X144738837Y-106071049D01*
X144736823Y-106077687D01*
X144733556Y-106083798D01*
X144729158Y-106089158D01*
X144723798Y-106093556D01*
X144717687Y-106096823D01*
X144711049Y-106098837D01*
X144699234Y-106100000D01*
X143730766Y-106100000D01*
X143718951Y-106098837D01*
X143712313Y-106096823D01*
X143706202Y-106093556D01*
X143700842Y-106089158D01*
X143696444Y-106083798D01*
X143693177Y-106077687D01*
X143691163Y-106071049D01*
X143690000Y-106059234D01*
X143690000Y-105390766D01*
X143691163Y-105378951D01*
X143693177Y-105372313D01*
X143696444Y-105366202D01*
X143700842Y-105360842D01*
X143706202Y-105356444D01*
X143712313Y-105353177D01*
X143718951Y-105351163D01*
X143730766Y-105350000D01*
X144699234Y-105350000D01*
X144711049Y-105351163D01*
X144711049Y-105351163D01*
G37*
G36*
X147111049Y-105351163D02*
G01*
X147117687Y-105353177D01*
X147123798Y-105356444D01*
X147129158Y-105360842D01*
X147133556Y-105366202D01*
X147136823Y-105372313D01*
X147138837Y-105378951D01*
X147140000Y-105390766D01*
X147140000Y-106059234D01*
X147138837Y-106071049D01*
X147136823Y-106077687D01*
X147133556Y-106083798D01*
X147129158Y-106089158D01*
X147123798Y-106093556D01*
X147117687Y-106096823D01*
X147111049Y-106098837D01*
X147099234Y-106100000D01*
X146130766Y-106100000D01*
X146118951Y-106098837D01*
X146112313Y-106096823D01*
X146106202Y-106093556D01*
X146100842Y-106089158D01*
X146096444Y-106083798D01*
X146093177Y-106077687D01*
X146091163Y-106071049D01*
X146090000Y-106059234D01*
X146090000Y-105390766D01*
X146091163Y-105378951D01*
X146093177Y-105372313D01*
X146096444Y-105366202D01*
X146100842Y-105360842D01*
X146106202Y-105356444D01*
X146112313Y-105353177D01*
X146118951Y-105351163D01*
X146130766Y-105350000D01*
X147099234Y-105350000D01*
X147111049Y-105351163D01*
X147111049Y-105351163D01*
G37*
G36*
X147111049Y-104401163D02*
G01*
X147117687Y-104403177D01*
X147123798Y-104406444D01*
X147129158Y-104410842D01*
X147133556Y-104416202D01*
X147136823Y-104422313D01*
X147138837Y-104428951D01*
X147140000Y-104440766D01*
X147140000Y-105109234D01*
X147138837Y-105121049D01*
X147136823Y-105127687D01*
X147133556Y-105133798D01*
X147129158Y-105139158D01*
X147123798Y-105143556D01*
X147117687Y-105146823D01*
X147111049Y-105148837D01*
X147099234Y-105150000D01*
X146130766Y-105150000D01*
X146118951Y-105148837D01*
X146112313Y-105146823D01*
X146106202Y-105143556D01*
X146100842Y-105139158D01*
X146096444Y-105133798D01*
X146093177Y-105127687D01*
X146091163Y-105121049D01*
X146090000Y-105109234D01*
X146090000Y-104440766D01*
X146091163Y-104428951D01*
X146093177Y-104422313D01*
X146096444Y-104416202D01*
X146100842Y-104410842D01*
X146106202Y-104406444D01*
X146112313Y-104403177D01*
X146118951Y-104401163D01*
X146130766Y-104400000D01*
X147099234Y-104400000D01*
X147111049Y-104401163D01*
X147111049Y-104401163D01*
G37*
G36*
X144711049Y-104401163D02*
G01*
X144717687Y-104403177D01*
X144723798Y-104406444D01*
X144729158Y-104410842D01*
X144733556Y-104416202D01*
X144736823Y-104422313D01*
X144738837Y-104428951D01*
X144740000Y-104440766D01*
X144740000Y-105109234D01*
X144738837Y-105121049D01*
X144736823Y-105127687D01*
X144733556Y-105133798D01*
X144729158Y-105139158D01*
X144723798Y-105143556D01*
X144717687Y-105146823D01*
X144711049Y-105148837D01*
X144699234Y-105150000D01*
X143730766Y-105150000D01*
X143718951Y-105148837D01*
X143712313Y-105146823D01*
X143706202Y-105143556D01*
X143700842Y-105139158D01*
X143696444Y-105133798D01*
X143693177Y-105127687D01*
X143691163Y-105121049D01*
X143690000Y-105109234D01*
X143690000Y-104440766D01*
X143691163Y-104428951D01*
X143693177Y-104422313D01*
X143696444Y-104416202D01*
X143700842Y-104410842D01*
X143706202Y-104406444D01*
X143712313Y-104403177D01*
X143718951Y-104401163D01*
X143730766Y-104400000D01*
X144699234Y-104400000D01*
X144711049Y-104401163D01*
X144711049Y-104401163D01*
G37*
G36*
X153178535Y-103248778D02*
G01*
X153211627Y-103252037D01*
X153324853Y-103286384D01*
X153381467Y-103303557D01*
X153537990Y-103387220D01*
X153675186Y-103499814D01*
X153787780Y-103637010D01*
X153871443Y-103793533D01*
X153880797Y-103824369D01*
X153918597Y-103948979D01*
X153922963Y-103963374D01*
X153940360Y-104140000D01*
X153934450Y-104200000D01*
X153922963Y-104316627D01*
X153894383Y-104410842D01*
X153871443Y-104486467D01*
X153787780Y-104642990D01*
X153675186Y-104780186D01*
X153537990Y-104892780D01*
X153381467Y-104976443D01*
X153374069Y-104978687D01*
X153211627Y-105027963D01*
X153178535Y-105031222D01*
X153079264Y-105041000D01*
X152990736Y-105041000D01*
X152891465Y-105031222D01*
X152858373Y-105027963D01*
X152695931Y-104978687D01*
X152688533Y-104976443D01*
X152532010Y-104892780D01*
X152394814Y-104780186D01*
X152282220Y-104642990D01*
X152198557Y-104486467D01*
X152175617Y-104410842D01*
X152147037Y-104316627D01*
X152135550Y-104200000D01*
X152129640Y-104140000D01*
X152147037Y-103963374D01*
X152151404Y-103948979D01*
X152189203Y-103824369D01*
X152198557Y-103793533D01*
X152282220Y-103637010D01*
X152394814Y-103499814D01*
X152532010Y-103387220D01*
X152688533Y-103303557D01*
X152745147Y-103286384D01*
X152858373Y-103252037D01*
X152891465Y-103248778D01*
X152990736Y-103239000D01*
X153079264Y-103239000D01*
X153178535Y-103248778D01*
X153178535Y-103248778D01*
G37*
G36*
X133516823Y-103301313D02*
G01*
X133677240Y-103349975D01*
X133825077Y-103428995D01*
X133954659Y-103535341D01*
X134061005Y-103664923D01*
X134140025Y-103812760D01*
X134188687Y-103973177D01*
X134205118Y-104140000D01*
X134188687Y-104306823D01*
X134140025Y-104467240D01*
X134061005Y-104615077D01*
X133954659Y-104744659D01*
X133825077Y-104851005D01*
X133677240Y-104930025D01*
X133516823Y-104978687D01*
X133391806Y-104991000D01*
X133308194Y-104991000D01*
X133183177Y-104978687D01*
X133022760Y-104930025D01*
X132874923Y-104851005D01*
X132745341Y-104744659D01*
X132638995Y-104615077D01*
X132559975Y-104467240D01*
X132511313Y-104306823D01*
X132494882Y-104140000D01*
X132511313Y-103973177D01*
X132559975Y-103812760D01*
X132638995Y-103664923D01*
X132745341Y-103535341D01*
X132874923Y-103428995D01*
X133022760Y-103349975D01*
X133183177Y-103301313D01*
X133308194Y-103289000D01*
X133391806Y-103289000D01*
X133516823Y-103301313D01*
X133516823Y-103301313D01*
G37*
G36*
X125896823Y-103301313D02*
G01*
X126057240Y-103349975D01*
X126205077Y-103428995D01*
X126334659Y-103535341D01*
X126441005Y-103664923D01*
X126520025Y-103812760D01*
X126568687Y-103973177D01*
X126585118Y-104140000D01*
X126568687Y-104306823D01*
X126520025Y-104467240D01*
X126441005Y-104615077D01*
X126334659Y-104744659D01*
X126205077Y-104851005D01*
X126057240Y-104930025D01*
X125896823Y-104978687D01*
X125771806Y-104991000D01*
X125688194Y-104991000D01*
X125563177Y-104978687D01*
X125402760Y-104930025D01*
X125254923Y-104851005D01*
X125125341Y-104744659D01*
X125018995Y-104615077D01*
X124939975Y-104467240D01*
X124891313Y-104306823D01*
X124874882Y-104140000D01*
X124891313Y-103973177D01*
X124939975Y-103812760D01*
X125018995Y-103664923D01*
X125125341Y-103535341D01*
X125254923Y-103428995D01*
X125402760Y-103349975D01*
X125563177Y-103301313D01*
X125688194Y-103289000D01*
X125771806Y-103289000D01*
X125896823Y-103301313D01*
X125896823Y-103301313D01*
G37*
G36*
X136587321Y-103393617D02*
G01*
X136627691Y-103405864D01*
X136664887Y-103425745D01*
X136697495Y-103452505D01*
X136724255Y-103485113D01*
X136744136Y-103522309D01*
X136756383Y-103562679D01*
X136761000Y-103609559D01*
X136761000Y-104670441D01*
X136756383Y-104717321D01*
X136744136Y-104757691D01*
X136724255Y-104794887D01*
X136697495Y-104827495D01*
X136664887Y-104854255D01*
X136627691Y-104874136D01*
X136587321Y-104886383D01*
X136540441Y-104891000D01*
X135729559Y-104891000D01*
X135682679Y-104886383D01*
X135642309Y-104874136D01*
X135605113Y-104854255D01*
X135572505Y-104827495D01*
X135545745Y-104794887D01*
X135525864Y-104757691D01*
X135513617Y-104717321D01*
X135509000Y-104670441D01*
X135509000Y-103609559D01*
X135513617Y-103562679D01*
X135525864Y-103522309D01*
X135545745Y-103485113D01*
X135572505Y-103452505D01*
X135605113Y-103425745D01*
X135642309Y-103405864D01*
X135682679Y-103393617D01*
X135729559Y-103389000D01*
X136540441Y-103389000D01*
X136587321Y-103393617D01*
X136587321Y-103393617D01*
G37*
G36*
X138637321Y-103393617D02*
G01*
X138677691Y-103405864D01*
X138714887Y-103425745D01*
X138747495Y-103452505D01*
X138774255Y-103485113D01*
X138794136Y-103522309D01*
X138806383Y-103562679D01*
X138811000Y-103609559D01*
X138811000Y-104670441D01*
X138806383Y-104717321D01*
X138794136Y-104757691D01*
X138774255Y-104794887D01*
X138747495Y-104827495D01*
X138714887Y-104854255D01*
X138677691Y-104874136D01*
X138637321Y-104886383D01*
X138590441Y-104891000D01*
X137779559Y-104891000D01*
X137732679Y-104886383D01*
X137692309Y-104874136D01*
X137655113Y-104854255D01*
X137622505Y-104827495D01*
X137595745Y-104794887D01*
X137575864Y-104757691D01*
X137563617Y-104717321D01*
X137559000Y-104670441D01*
X137559000Y-103609559D01*
X137563617Y-103562679D01*
X137575864Y-103522309D01*
X137595745Y-103485113D01*
X137622505Y-103452505D01*
X137655113Y-103425745D01*
X137692309Y-103405864D01*
X137732679Y-103393617D01*
X137779559Y-103389000D01*
X138590441Y-103389000D01*
X138637321Y-103393617D01*
X138637321Y-103393617D01*
G37*
G36*
X120161136Y-103658253D02*
G01*
X120161138Y-103658254D01*
X120161139Y-103658254D01*
X120252314Y-103696021D01*
X120334368Y-103750847D01*
X120404153Y-103820632D01*
X120458979Y-103902686D01*
X120484118Y-103963374D01*
X120496747Y-103993864D01*
X120516000Y-104090656D01*
X120516000Y-104189344D01*
X120514112Y-104198837D01*
X120496746Y-104286139D01*
X120458979Y-104377314D01*
X120404153Y-104459368D01*
X120334368Y-104529153D01*
X120252314Y-104583979D01*
X120161139Y-104621746D01*
X120161138Y-104621746D01*
X120161136Y-104621747D01*
X120064344Y-104641000D01*
X119965656Y-104641000D01*
X119868864Y-104621747D01*
X119868862Y-104621746D01*
X119868861Y-104621746D01*
X119777686Y-104583979D01*
X119695632Y-104529153D01*
X119625847Y-104459368D01*
X119571021Y-104377314D01*
X119533254Y-104286139D01*
X119515889Y-104198837D01*
X119514000Y-104189344D01*
X119514000Y-104090656D01*
X119533253Y-103993864D01*
X119545883Y-103963374D01*
X119571021Y-103902686D01*
X119625847Y-103820632D01*
X119695632Y-103750847D01*
X119777686Y-103696021D01*
X119868861Y-103658254D01*
X119868862Y-103658254D01*
X119868864Y-103658253D01*
X119965656Y-103639000D01*
X120064344Y-103639000D01*
X120161136Y-103658253D01*
X120161136Y-103658253D01*
G37*
G36*
X147111049Y-103451163D02*
G01*
X147117687Y-103453177D01*
X147123798Y-103456444D01*
X147129158Y-103460842D01*
X147133556Y-103466202D01*
X147136823Y-103472313D01*
X147138837Y-103478951D01*
X147140000Y-103490766D01*
X147140000Y-104159234D01*
X147138837Y-104171049D01*
X147136823Y-104177687D01*
X147133556Y-104183798D01*
X147129158Y-104189158D01*
X147123798Y-104193556D01*
X147117687Y-104196823D01*
X147111049Y-104198837D01*
X147099234Y-104200000D01*
X146130766Y-104200000D01*
X146118951Y-104198837D01*
X146112313Y-104196823D01*
X146106202Y-104193556D01*
X146100842Y-104189158D01*
X146096444Y-104183798D01*
X146093177Y-104177687D01*
X146091163Y-104171049D01*
X146090000Y-104159234D01*
X146090000Y-103490766D01*
X146091163Y-103478951D01*
X146093177Y-103472313D01*
X146096444Y-103466202D01*
X146100842Y-103460842D01*
X146106202Y-103456444D01*
X146112313Y-103453177D01*
X146118951Y-103451163D01*
X146130766Y-103450000D01*
X147099234Y-103450000D01*
X147111049Y-103451163D01*
X147111049Y-103451163D01*
G37*
G36*
X144740000Y-104200000D02*
G01*
X143690000Y-104200000D01*
X143690000Y-103450000D01*
X144740000Y-103450000D01*
X144740000Y-104200000D01*
X144740000Y-104200000D01*
G37*
G36*
X142386136Y-103023253D02*
G01*
X142386138Y-103023254D01*
X142386139Y-103023254D01*
X142439552Y-103045379D01*
X142474799Y-103059979D01*
X142477314Y-103061021D01*
X142559368Y-103115847D01*
X142629153Y-103185632D01*
X142678278Y-103259153D01*
X142683980Y-103267688D01*
X142721747Y-103358864D01*
X142741000Y-103455656D01*
X142741000Y-103554344D01*
X142724557Y-103637010D01*
X142721746Y-103651139D01*
X142683979Y-103742314D01*
X142629153Y-103824368D01*
X142559368Y-103894153D01*
X142477314Y-103948979D01*
X142386139Y-103986746D01*
X142386138Y-103986746D01*
X142386136Y-103986747D01*
X142289344Y-104006000D01*
X142190656Y-104006000D01*
X142093864Y-103986747D01*
X142093862Y-103986746D01*
X142093861Y-103986746D01*
X142002686Y-103948979D01*
X141920632Y-103894153D01*
X141850847Y-103824368D01*
X141796021Y-103742314D01*
X141758254Y-103651139D01*
X141755444Y-103637010D01*
X141739000Y-103554344D01*
X141739000Y-103455656D01*
X141758253Y-103358864D01*
X141796020Y-103267688D01*
X141801723Y-103259153D01*
X141850847Y-103185632D01*
X141920632Y-103115847D01*
X142002686Y-103061021D01*
X142005202Y-103059979D01*
X142040448Y-103045379D01*
X142093861Y-103023254D01*
X142093862Y-103023254D01*
X142093864Y-103023253D01*
X142190656Y-103004000D01*
X142289344Y-103004000D01*
X142386136Y-103023253D01*
X142386136Y-103023253D01*
G37*
G36*
X106823535Y-101978778D02*
G01*
X106856627Y-101982037D01*
X106969853Y-102016384D01*
X107026467Y-102033557D01*
X107182990Y-102117220D01*
X107320186Y-102229814D01*
X107432780Y-102367010D01*
X107516443Y-102523533D01*
X107533616Y-102580147D01*
X107567963Y-102693373D01*
X107567963Y-102693375D01*
X107585360Y-102870000D01*
X107574494Y-102980314D01*
X107567963Y-103046627D01*
X107542019Y-103132152D01*
X107516443Y-103216467D01*
X107432780Y-103372990D01*
X107320186Y-103510186D01*
X107182990Y-103622780D01*
X107026467Y-103706443D01*
X106969853Y-103723616D01*
X106856627Y-103757963D01*
X106823535Y-103761222D01*
X106724264Y-103771000D01*
X106635736Y-103771000D01*
X106536465Y-103761222D01*
X106503373Y-103757963D01*
X106390147Y-103723616D01*
X106333533Y-103706443D01*
X106177010Y-103622780D01*
X106039814Y-103510186D01*
X105927220Y-103372990D01*
X105843557Y-103216467D01*
X105817981Y-103132152D01*
X105792037Y-103046627D01*
X105785506Y-102980314D01*
X105774640Y-102870000D01*
X105792037Y-102693375D01*
X105792037Y-102693373D01*
X105826384Y-102580147D01*
X105843557Y-102523533D01*
X105927220Y-102367010D01*
X106039814Y-102229814D01*
X106177010Y-102117220D01*
X106333533Y-102033557D01*
X106390147Y-102016384D01*
X106503373Y-101982037D01*
X106536465Y-101978778D01*
X106635736Y-101969000D01*
X106724264Y-101969000D01*
X106823535Y-101978778D01*
X106823535Y-101978778D01*
G37*
G36*
X104283535Y-101978778D02*
G01*
X104316627Y-101982037D01*
X104429853Y-102016384D01*
X104486467Y-102033557D01*
X104642990Y-102117220D01*
X104780186Y-102229814D01*
X104892780Y-102367010D01*
X104976443Y-102523533D01*
X104993616Y-102580147D01*
X105027963Y-102693373D01*
X105027963Y-102693375D01*
X105045360Y-102870000D01*
X105034494Y-102980314D01*
X105027963Y-103046627D01*
X105002019Y-103132152D01*
X104976443Y-103216467D01*
X104892780Y-103372990D01*
X104780186Y-103510186D01*
X104642990Y-103622780D01*
X104486467Y-103706443D01*
X104429853Y-103723616D01*
X104316627Y-103757963D01*
X104283535Y-103761222D01*
X104184264Y-103771000D01*
X104095736Y-103771000D01*
X103996465Y-103761222D01*
X103963373Y-103757963D01*
X103850147Y-103723616D01*
X103793533Y-103706443D01*
X103637010Y-103622780D01*
X103499814Y-103510186D01*
X103387220Y-103372990D01*
X103303557Y-103216467D01*
X103277981Y-103132152D01*
X103252037Y-103046627D01*
X103245506Y-102980314D01*
X103234640Y-102870000D01*
X103252037Y-102693375D01*
X103252037Y-102693373D01*
X103286384Y-102580147D01*
X103303557Y-102523533D01*
X103387220Y-102367010D01*
X103499814Y-102229814D01*
X103637010Y-102117220D01*
X103793533Y-102033557D01*
X103850147Y-102016384D01*
X103963373Y-101982037D01*
X103996465Y-101978778D01*
X104095736Y-101969000D01*
X104184264Y-101969000D01*
X104283535Y-101978778D01*
X104283535Y-101978778D01*
G37*
G36*
X116351136Y-102388253D02*
G01*
X116351138Y-102388254D01*
X116351139Y-102388254D01*
X116355414Y-102390025D01*
X116436545Y-102423631D01*
X116442314Y-102426021D01*
X116524368Y-102480847D01*
X116594153Y-102550632D01*
X116625044Y-102596864D01*
X116648980Y-102632688D01*
X116686747Y-102723864D01*
X116706000Y-102820656D01*
X116706000Y-102919344D01*
X116688932Y-103005153D01*
X116686746Y-103016139D01*
X116648979Y-103107314D01*
X116594153Y-103189368D01*
X116524368Y-103259153D01*
X116442314Y-103313979D01*
X116351139Y-103351746D01*
X116351138Y-103351746D01*
X116351136Y-103351747D01*
X116254344Y-103371000D01*
X116155656Y-103371000D01*
X116058864Y-103351747D01*
X116058862Y-103351746D01*
X116058861Y-103351746D01*
X115967686Y-103313979D01*
X115885632Y-103259153D01*
X115815847Y-103189368D01*
X115761021Y-103107314D01*
X115723254Y-103016139D01*
X115721069Y-103005153D01*
X115704000Y-102919344D01*
X115704000Y-102820656D01*
X115723253Y-102723864D01*
X115761020Y-102632688D01*
X115784957Y-102596864D01*
X115815847Y-102550632D01*
X115885632Y-102480847D01*
X115967686Y-102426021D01*
X115973456Y-102423631D01*
X116054586Y-102390025D01*
X116058861Y-102388254D01*
X116058862Y-102388254D01*
X116058864Y-102388253D01*
X116155656Y-102369000D01*
X116254344Y-102369000D01*
X116351136Y-102388253D01*
X116351136Y-102388253D01*
G37*
G36*
X150895136Y-102261253D02*
G01*
X150895138Y-102261254D01*
X150895139Y-102261254D01*
X150948552Y-102283379D01*
X150980545Y-102296631D01*
X150986314Y-102299021D01*
X151068368Y-102353847D01*
X151138153Y-102423632D01*
X151169044Y-102469864D01*
X151192980Y-102505688D01*
X151230747Y-102596864D01*
X151250000Y-102693656D01*
X151250000Y-102792344D01*
X151237873Y-102853312D01*
X151230746Y-102889139D01*
X151192979Y-102980314D01*
X151138153Y-103062368D01*
X151068368Y-103132153D01*
X150986314Y-103186979D01*
X150986313Y-103186980D01*
X150986312Y-103186980D01*
X150948552Y-103202621D01*
X150895139Y-103224746D01*
X150895138Y-103224746D01*
X150895136Y-103224747D01*
X150798344Y-103244000D01*
X150699656Y-103244000D01*
X150602864Y-103224747D01*
X150602862Y-103224746D01*
X150602861Y-103224746D01*
X150549448Y-103202621D01*
X150511688Y-103186980D01*
X150511687Y-103186980D01*
X150511686Y-103186979D01*
X150429632Y-103132153D01*
X150359847Y-103062368D01*
X150305021Y-102980314D01*
X150267254Y-102889139D01*
X150260128Y-102853312D01*
X150248000Y-102792344D01*
X150248000Y-102693656D01*
X150267253Y-102596864D01*
X150305020Y-102505688D01*
X150328957Y-102469864D01*
X150359847Y-102423632D01*
X150429632Y-102353847D01*
X150511686Y-102299021D01*
X150517456Y-102296631D01*
X150549448Y-102283379D01*
X150602861Y-102261254D01*
X150602862Y-102261254D01*
X150602864Y-102261253D01*
X150699656Y-102242000D01*
X150798344Y-102242000D01*
X150895136Y-102261253D01*
X150895136Y-102261253D01*
G37*
G36*
X148101136Y-102134253D02*
G01*
X148101138Y-102134254D01*
X148101139Y-102134254D01*
X148192314Y-102172021D01*
X148274368Y-102226847D01*
X148344153Y-102296632D01*
X148398979Y-102378686D01*
X148423833Y-102438686D01*
X148436747Y-102469864D01*
X148456000Y-102566656D01*
X148456000Y-102665344D01*
X148444360Y-102723864D01*
X148436746Y-102762139D01*
X148398979Y-102853314D01*
X148344153Y-102935368D01*
X148274368Y-103005153D01*
X148192314Y-103059979D01*
X148192313Y-103059980D01*
X148192312Y-103059980D01*
X148154552Y-103075621D01*
X148101139Y-103097746D01*
X148101138Y-103097746D01*
X148101136Y-103097747D01*
X148004344Y-103117000D01*
X147905656Y-103117000D01*
X147808864Y-103097747D01*
X147808862Y-103097746D01*
X147808861Y-103097746D01*
X147755448Y-103075621D01*
X147717688Y-103059980D01*
X147717687Y-103059980D01*
X147717686Y-103059979D01*
X147635632Y-103005153D01*
X147565847Y-102935368D01*
X147511021Y-102853314D01*
X147473254Y-102762139D01*
X147465641Y-102723864D01*
X147454000Y-102665344D01*
X147454000Y-102566656D01*
X147473253Y-102469864D01*
X147486168Y-102438686D01*
X147511021Y-102378686D01*
X147565847Y-102296632D01*
X147635632Y-102226847D01*
X147717686Y-102172021D01*
X147808861Y-102134254D01*
X147808862Y-102134254D01*
X147808864Y-102134253D01*
X147905656Y-102115000D01*
X148004344Y-102115000D01*
X148101136Y-102134253D01*
X148101136Y-102134253D01*
G37*
G36*
X153178535Y-100708778D02*
G01*
X153211627Y-100712037D01*
X153323140Y-100745864D01*
X153381467Y-100763557D01*
X153537990Y-100847220D01*
X153675186Y-100959814D01*
X153787780Y-101097010D01*
X153871443Y-101253533D01*
X153922963Y-101423374D01*
X153940360Y-101600000D01*
X153929641Y-101708827D01*
X153922963Y-101776627D01*
X153890123Y-101884887D01*
X153871443Y-101946467D01*
X153787780Y-102102990D01*
X153675186Y-102240186D01*
X153537990Y-102352780D01*
X153381467Y-102436443D01*
X153374069Y-102438687D01*
X153211627Y-102487963D01*
X153178535Y-102491222D01*
X153079264Y-102501000D01*
X152990736Y-102501000D01*
X152891465Y-102491222D01*
X152858373Y-102487963D01*
X152695931Y-102438687D01*
X152688533Y-102436443D01*
X152532010Y-102352780D01*
X152394814Y-102240186D01*
X152282220Y-102102990D01*
X152198557Y-101946467D01*
X152179877Y-101884887D01*
X152147037Y-101776627D01*
X152140359Y-101708827D01*
X152129640Y-101600000D01*
X152147037Y-101423374D01*
X152198557Y-101253533D01*
X152282220Y-101097010D01*
X152394814Y-100959814D01*
X152532010Y-100847220D01*
X152688533Y-100763557D01*
X152746860Y-100745864D01*
X152858373Y-100712037D01*
X152891465Y-100708778D01*
X152990736Y-100699000D01*
X153079264Y-100699000D01*
X153178535Y-100708778D01*
X153178535Y-100708778D01*
G37*
G36*
X133516823Y-100761313D02*
G01*
X133677240Y-100809975D01*
X133825077Y-100888995D01*
X133954659Y-100995341D01*
X134061005Y-101124923D01*
X134140025Y-101272760D01*
X134188687Y-101433177D01*
X134205118Y-101600000D01*
X134188687Y-101766823D01*
X134140025Y-101927240D01*
X134061005Y-102075077D01*
X133954659Y-102204659D01*
X133825077Y-102311005D01*
X133677240Y-102390025D01*
X133516823Y-102438687D01*
X133391806Y-102451000D01*
X133308194Y-102451000D01*
X133183177Y-102438687D01*
X133022760Y-102390025D01*
X132874923Y-102311005D01*
X132745341Y-102204659D01*
X132638995Y-102075077D01*
X132559975Y-101927240D01*
X132511313Y-101766823D01*
X132494882Y-101600000D01*
X132511313Y-101433177D01*
X132559975Y-101272760D01*
X132638995Y-101124923D01*
X132745341Y-100995341D01*
X132874923Y-100888995D01*
X133022760Y-100809975D01*
X133183177Y-100761313D01*
X133308194Y-100749000D01*
X133391806Y-100749000D01*
X133516823Y-100761313D01*
X133516823Y-100761313D01*
G37*
G36*
X125896823Y-100761313D02*
G01*
X126057240Y-100809975D01*
X126205077Y-100888995D01*
X126334659Y-100995341D01*
X126441005Y-101124923D01*
X126520025Y-101272760D01*
X126568687Y-101433177D01*
X126585118Y-101600000D01*
X126568687Y-101766823D01*
X126520025Y-101927240D01*
X126441005Y-102075077D01*
X126334659Y-102204659D01*
X126205077Y-102311005D01*
X126057240Y-102390025D01*
X125896823Y-102438687D01*
X125771806Y-102451000D01*
X125688194Y-102451000D01*
X125563177Y-102438687D01*
X125402760Y-102390025D01*
X125254923Y-102311005D01*
X125125341Y-102204659D01*
X125018995Y-102075077D01*
X124939975Y-101927240D01*
X124891313Y-101766823D01*
X124874882Y-101600000D01*
X124891313Y-101433177D01*
X124939975Y-101272760D01*
X125018995Y-101124923D01*
X125125341Y-100995341D01*
X125254923Y-100888995D01*
X125402760Y-100809975D01*
X125563177Y-100761313D01*
X125688194Y-100749000D01*
X125771806Y-100749000D01*
X125896823Y-100761313D01*
X125896823Y-100761313D01*
G37*
G36*
X141751136Y-101118253D02*
G01*
X141751138Y-101118254D01*
X141751139Y-101118254D01*
X141842314Y-101156021D01*
X141924368Y-101210847D01*
X141994153Y-101280632D01*
X142048979Y-101362686D01*
X142086746Y-101453861D01*
X142106000Y-101550658D01*
X142106000Y-101649342D01*
X142086746Y-101746139D01*
X142048979Y-101837314D01*
X141994153Y-101919368D01*
X141924368Y-101989153D01*
X141842314Y-102043979D01*
X141751139Y-102081746D01*
X141751138Y-102081746D01*
X141751136Y-102081747D01*
X141654344Y-102101000D01*
X141555656Y-102101000D01*
X141458864Y-102081747D01*
X141458862Y-102081746D01*
X141458861Y-102081746D01*
X141367686Y-102043979D01*
X141285632Y-101989153D01*
X141215847Y-101919368D01*
X141161021Y-101837314D01*
X141123254Y-101746139D01*
X141104000Y-101649342D01*
X141104000Y-101550658D01*
X141123254Y-101453861D01*
X141161021Y-101362686D01*
X141215847Y-101280632D01*
X141285632Y-101210847D01*
X141367686Y-101156021D01*
X141458861Y-101118254D01*
X141458862Y-101118254D01*
X141458864Y-101118253D01*
X141555656Y-101099000D01*
X141654344Y-101099000D01*
X141751136Y-101118253D01*
X141751136Y-101118253D01*
G37*
G36*
X146121136Y-101118253D02*
G01*
X146121138Y-101118254D01*
X146121139Y-101118254D01*
X146212314Y-101156021D01*
X146294368Y-101210847D01*
X146364153Y-101280632D01*
X146418979Y-101362686D01*
X146456746Y-101453861D01*
X146476000Y-101550658D01*
X146476000Y-101649342D01*
X146456746Y-101746139D01*
X146418979Y-101837314D01*
X146364153Y-101919368D01*
X146294368Y-101989153D01*
X146212314Y-102043979D01*
X146121139Y-102081746D01*
X146121138Y-102081746D01*
X146121136Y-102081747D01*
X146024344Y-102101000D01*
X145925656Y-102101000D01*
X145828864Y-102081747D01*
X145828862Y-102081746D01*
X145828861Y-102081746D01*
X145737686Y-102043979D01*
X145655632Y-101989153D01*
X145585847Y-101919368D01*
X145531021Y-101837314D01*
X145493254Y-101746139D01*
X145474000Y-101649342D01*
X145474000Y-101550658D01*
X145493254Y-101453861D01*
X145531021Y-101362686D01*
X145585847Y-101280632D01*
X145655632Y-101210847D01*
X145737686Y-101156021D01*
X145828861Y-101118254D01*
X145828862Y-101118254D01*
X145828864Y-101118253D01*
X145925656Y-101099000D01*
X146024344Y-101099000D01*
X146121136Y-101118253D01*
X146121136Y-101118253D01*
G37*
G36*
X118687321Y-100733617D02*
G01*
X118727691Y-100745864D01*
X118764887Y-100765745D01*
X118797495Y-100792505D01*
X118824255Y-100825113D01*
X118844136Y-100862309D01*
X118856383Y-100902679D01*
X118861000Y-100949559D01*
X118861000Y-101760441D01*
X118856383Y-101807321D01*
X118844136Y-101847691D01*
X118824255Y-101884887D01*
X118797495Y-101917495D01*
X118764887Y-101944255D01*
X118727691Y-101964136D01*
X118687321Y-101976383D01*
X118640441Y-101981000D01*
X117579559Y-101981000D01*
X117532679Y-101976383D01*
X117492309Y-101964136D01*
X117455113Y-101944255D01*
X117422505Y-101917495D01*
X117395745Y-101884887D01*
X117375864Y-101847691D01*
X117363617Y-101807321D01*
X117359000Y-101760441D01*
X117359000Y-100949559D01*
X117363617Y-100902679D01*
X117375864Y-100862309D01*
X117395745Y-100825113D01*
X117422505Y-100792505D01*
X117455113Y-100765745D01*
X117492309Y-100745864D01*
X117532679Y-100733617D01*
X117579559Y-100729000D01*
X118640441Y-100729000D01*
X118687321Y-100733617D01*
X118687321Y-100733617D01*
G37*
G36*
X106823535Y-99438778D02*
G01*
X106856627Y-99442037D01*
X106969853Y-99476384D01*
X107026467Y-99493557D01*
X107182990Y-99577220D01*
X107320186Y-99689814D01*
X107432780Y-99827010D01*
X107516443Y-99983533D01*
X107525797Y-100014369D01*
X107567963Y-100153373D01*
X107567963Y-100153375D01*
X107585360Y-100330000D01*
X107572041Y-100465218D01*
X107567963Y-100506627D01*
X107533616Y-100619853D01*
X107516443Y-100676467D01*
X107432780Y-100832990D01*
X107320186Y-100970186D01*
X107182990Y-101082780D01*
X107026467Y-101166443D01*
X106969853Y-101183616D01*
X106856627Y-101217963D01*
X106823535Y-101221222D01*
X106724264Y-101231000D01*
X106635736Y-101231000D01*
X106536465Y-101221222D01*
X106503373Y-101217963D01*
X106390147Y-101183616D01*
X106333533Y-101166443D01*
X106177010Y-101082780D01*
X106039814Y-100970186D01*
X105927220Y-100832990D01*
X105843557Y-100676467D01*
X105826384Y-100619853D01*
X105792037Y-100506627D01*
X105787959Y-100465218D01*
X105774640Y-100330000D01*
X105792037Y-100153375D01*
X105792037Y-100153373D01*
X105834203Y-100014369D01*
X105843557Y-99983533D01*
X105927220Y-99827010D01*
X106039814Y-99689814D01*
X106177010Y-99577220D01*
X106333533Y-99493557D01*
X106390147Y-99476384D01*
X106503373Y-99442037D01*
X106536465Y-99438778D01*
X106635736Y-99429000D01*
X106724264Y-99429000D01*
X106823535Y-99438778D01*
X106823535Y-99438778D01*
G37*
G36*
X104283535Y-99438778D02*
G01*
X104316627Y-99442037D01*
X104429853Y-99476384D01*
X104486467Y-99493557D01*
X104642990Y-99577220D01*
X104780186Y-99689814D01*
X104892780Y-99827010D01*
X104976443Y-99983533D01*
X104985797Y-100014369D01*
X105027963Y-100153373D01*
X105027963Y-100153375D01*
X105045360Y-100330000D01*
X105032041Y-100465218D01*
X105027963Y-100506627D01*
X104993616Y-100619853D01*
X104976443Y-100676467D01*
X104892780Y-100832990D01*
X104780186Y-100970186D01*
X104642990Y-101082780D01*
X104486467Y-101166443D01*
X104429853Y-101183616D01*
X104316627Y-101217963D01*
X104283535Y-101221222D01*
X104184264Y-101231000D01*
X104095736Y-101231000D01*
X103996465Y-101221222D01*
X103963373Y-101217963D01*
X103850147Y-101183616D01*
X103793533Y-101166443D01*
X103637010Y-101082780D01*
X103499814Y-100970186D01*
X103387220Y-100832990D01*
X103303557Y-100676467D01*
X103286384Y-100619853D01*
X103252037Y-100506627D01*
X103247959Y-100465218D01*
X103234640Y-100330000D01*
X103252037Y-100153375D01*
X103252037Y-100153373D01*
X103294203Y-100014369D01*
X103303557Y-99983533D01*
X103387220Y-99827010D01*
X103499814Y-99689814D01*
X103637010Y-99577220D01*
X103793533Y-99493557D01*
X103850147Y-99476384D01*
X103963373Y-99442037D01*
X103996465Y-99438778D01*
X104095736Y-99429000D01*
X104184264Y-99429000D01*
X104283535Y-99438778D01*
X104283535Y-99438778D01*
G37*
G36*
X149355476Y-98904261D02*
G01*
X149458645Y-98924782D01*
X149522357Y-98951173D01*
X149604416Y-98985163D01*
X149604417Y-98985164D01*
X149716419Y-99060000D01*
X149735608Y-99072822D01*
X149847178Y-99184392D01*
X149934837Y-99315584D01*
X149959709Y-99375631D01*
X149995218Y-99461355D01*
X150026000Y-99616109D01*
X150026000Y-99773891D01*
X149995218Y-99928645D01*
X149959847Y-100014036D01*
X149934837Y-100074416D01*
X149928331Y-100084153D01*
X149847179Y-100205607D01*
X149735607Y-100317179D01*
X149670012Y-100361007D01*
X149604416Y-100404837D01*
X149544036Y-100429847D01*
X149458645Y-100465218D01*
X149355476Y-100485739D01*
X149303892Y-100496000D01*
X149146108Y-100496000D01*
X149094524Y-100485739D01*
X148991355Y-100465218D01*
X148905964Y-100429847D01*
X148845584Y-100404837D01*
X148779988Y-100361007D01*
X148714393Y-100317179D01*
X148602821Y-100205607D01*
X148521669Y-100084153D01*
X148515163Y-100074416D01*
X148490153Y-100014036D01*
X148454782Y-99928645D01*
X148424000Y-99773891D01*
X148424000Y-99616109D01*
X148454782Y-99461355D01*
X148490291Y-99375631D01*
X148515163Y-99315584D01*
X148602822Y-99184392D01*
X148714392Y-99072822D01*
X148733582Y-99060000D01*
X148845583Y-98985164D01*
X148845584Y-98985163D01*
X148927643Y-98951173D01*
X148991355Y-98924782D01*
X149094524Y-98904261D01*
X149146108Y-98894000D01*
X149303892Y-98894000D01*
X149355476Y-98904261D01*
X149355476Y-98904261D01*
G37*
G36*
X112541136Y-99213253D02*
G01*
X112541138Y-99213254D01*
X112541139Y-99213254D01*
X112632314Y-99251021D01*
X112714368Y-99305847D01*
X112784153Y-99375632D01*
X112838979Y-99457686D01*
X112872590Y-99538827D01*
X112876747Y-99548864D01*
X112896000Y-99645656D01*
X112896000Y-99744344D01*
X112879557Y-99827010D01*
X112876746Y-99841139D01*
X112838979Y-99932314D01*
X112784153Y-100014368D01*
X112714368Y-100084153D01*
X112632314Y-100138979D01*
X112541139Y-100176746D01*
X112541138Y-100176746D01*
X112541136Y-100176747D01*
X112444344Y-100196000D01*
X112345656Y-100196000D01*
X112248864Y-100176747D01*
X112248862Y-100176746D01*
X112248861Y-100176746D01*
X112157686Y-100138979D01*
X112075632Y-100084153D01*
X112005847Y-100014368D01*
X111951021Y-99932314D01*
X111913254Y-99841139D01*
X111910444Y-99827010D01*
X111894000Y-99744344D01*
X111894000Y-99645656D01*
X111913253Y-99548864D01*
X111917411Y-99538827D01*
X111951021Y-99457686D01*
X112005847Y-99375632D01*
X112075632Y-99305847D01*
X112157686Y-99251021D01*
X112248861Y-99213254D01*
X112248862Y-99213254D01*
X112248864Y-99213253D01*
X112345656Y-99194000D01*
X112444344Y-99194000D01*
X112541136Y-99213253D01*
X112541136Y-99213253D01*
G37*
G36*
X153936000Y-99961000D02*
G01*
X152134000Y-99961000D01*
X152134000Y-98159000D01*
X153936000Y-98159000D01*
X153936000Y-99961000D01*
X153936000Y-99961000D01*
G37*
G36*
X118687321Y-98683617D02*
G01*
X118727691Y-98695864D01*
X118764887Y-98715745D01*
X118797495Y-98742505D01*
X118824255Y-98775113D01*
X118844136Y-98812309D01*
X118856383Y-98852679D01*
X118861000Y-98899559D01*
X118861000Y-99710441D01*
X118856383Y-99757321D01*
X118844136Y-99797691D01*
X118824255Y-99834887D01*
X118797495Y-99867495D01*
X118764887Y-99894255D01*
X118727691Y-99914136D01*
X118687321Y-99926383D01*
X118640441Y-99931000D01*
X117579559Y-99931000D01*
X117532679Y-99926383D01*
X117492309Y-99914136D01*
X117455113Y-99894255D01*
X117422505Y-99867495D01*
X117395745Y-99834887D01*
X117375864Y-99797691D01*
X117363617Y-99757321D01*
X117359000Y-99710441D01*
X117359000Y-98899559D01*
X117363617Y-98852679D01*
X117375864Y-98812309D01*
X117395745Y-98775113D01*
X117422505Y-98742505D01*
X117455113Y-98715745D01*
X117492309Y-98695864D01*
X117532679Y-98683617D01*
X117579559Y-98679000D01*
X118640441Y-98679000D01*
X118687321Y-98683617D01*
X118687321Y-98683617D01*
G37*
G36*
X125896823Y-98221313D02*
G01*
X126057240Y-98269975D01*
X126205077Y-98348995D01*
X126334659Y-98455341D01*
X126441005Y-98584923D01*
X126520025Y-98732760D01*
X126568687Y-98893177D01*
X126585118Y-99060000D01*
X126568687Y-99226823D01*
X126520025Y-99387240D01*
X126441005Y-99535077D01*
X126334659Y-99664659D01*
X126205077Y-99771005D01*
X126057240Y-99850025D01*
X125896823Y-99898687D01*
X125771806Y-99911000D01*
X125688194Y-99911000D01*
X125563177Y-99898687D01*
X125402760Y-99850025D01*
X125254923Y-99771005D01*
X125125341Y-99664659D01*
X125018995Y-99535077D01*
X124939975Y-99387240D01*
X124891313Y-99226823D01*
X124874882Y-99060000D01*
X124891313Y-98893177D01*
X124939975Y-98732760D01*
X125018995Y-98584923D01*
X125125341Y-98455341D01*
X125254923Y-98348995D01*
X125402760Y-98269975D01*
X125563177Y-98221313D01*
X125688194Y-98209000D01*
X125771806Y-98209000D01*
X125896823Y-98221313D01*
X125896823Y-98221313D01*
G37*
G36*
X133516823Y-98221313D02*
G01*
X133677240Y-98269975D01*
X133825077Y-98348995D01*
X133954659Y-98455341D01*
X134061005Y-98584923D01*
X134140025Y-98732760D01*
X134188687Y-98893177D01*
X134205118Y-99060000D01*
X134188687Y-99226823D01*
X134140025Y-99387240D01*
X134061005Y-99535077D01*
X133954659Y-99664659D01*
X133825077Y-99771005D01*
X133677240Y-99850025D01*
X133516823Y-99898687D01*
X133391806Y-99911000D01*
X133308194Y-99911000D01*
X133183177Y-99898687D01*
X133022760Y-99850025D01*
X132874923Y-99771005D01*
X132745341Y-99664659D01*
X132638995Y-99535077D01*
X132559975Y-99387240D01*
X132511313Y-99226823D01*
X132494882Y-99060000D01*
X132511313Y-98893177D01*
X132559975Y-98732760D01*
X132638995Y-98584923D01*
X132745341Y-98455341D01*
X132874923Y-98348995D01*
X133022760Y-98269975D01*
X133183177Y-98221313D01*
X133308194Y-98209000D01*
X133391806Y-98209000D01*
X133516823Y-98221313D01*
X133516823Y-98221313D01*
G37*
G36*
X138002321Y-98313617D02*
G01*
X138042691Y-98325864D01*
X138079887Y-98345745D01*
X138112495Y-98372505D01*
X138139255Y-98405113D01*
X138159136Y-98442309D01*
X138171383Y-98482679D01*
X138176000Y-98529559D01*
X138176000Y-99590441D01*
X138171383Y-99637321D01*
X138159136Y-99677691D01*
X138139255Y-99714887D01*
X138112495Y-99747495D01*
X138079887Y-99774255D01*
X138042691Y-99794136D01*
X138002321Y-99806383D01*
X137955441Y-99811000D01*
X137144559Y-99811000D01*
X137097679Y-99806383D01*
X137057309Y-99794136D01*
X137020113Y-99774255D01*
X136987505Y-99747495D01*
X136960745Y-99714887D01*
X136940864Y-99677691D01*
X136928617Y-99637321D01*
X136924000Y-99590441D01*
X136924000Y-98529559D01*
X136928617Y-98482679D01*
X136940864Y-98442309D01*
X136960745Y-98405113D01*
X136987505Y-98372505D01*
X137020113Y-98345745D01*
X137057309Y-98325864D01*
X137097679Y-98313617D01*
X137144559Y-98309000D01*
X137955441Y-98309000D01*
X138002321Y-98313617D01*
X138002321Y-98313617D01*
G37*
G36*
X135952321Y-98313617D02*
G01*
X135992691Y-98325864D01*
X136029887Y-98345745D01*
X136062495Y-98372505D01*
X136089255Y-98405113D01*
X136109136Y-98442309D01*
X136121383Y-98482679D01*
X136126000Y-98529559D01*
X136126000Y-99590441D01*
X136121383Y-99637321D01*
X136109136Y-99677691D01*
X136089255Y-99714887D01*
X136062495Y-99747495D01*
X136029887Y-99774255D01*
X135992691Y-99794136D01*
X135952321Y-99806383D01*
X135905441Y-99811000D01*
X135094559Y-99811000D01*
X135047679Y-99806383D01*
X135007309Y-99794136D01*
X134970113Y-99774255D01*
X134937505Y-99747495D01*
X134910745Y-99714887D01*
X134890864Y-99677691D01*
X134878617Y-99637321D01*
X134874000Y-99590441D01*
X134874000Y-98529559D01*
X134878617Y-98482679D01*
X134890864Y-98442309D01*
X134910745Y-98405113D01*
X134937505Y-98372505D01*
X134970113Y-98345745D01*
X135007309Y-98325864D01*
X135047679Y-98313617D01*
X135094559Y-98309000D01*
X135905441Y-98309000D01*
X135952321Y-98313617D01*
X135952321Y-98313617D01*
G37*
G36*
X106823535Y-96898778D02*
G01*
X106856627Y-96902037D01*
X106969853Y-96936384D01*
X107026467Y-96953557D01*
X107182990Y-97037220D01*
X107320186Y-97149814D01*
X107432780Y-97287010D01*
X107516443Y-97443533D01*
X107525797Y-97474369D01*
X107567963Y-97613373D01*
X107567963Y-97613375D01*
X107585360Y-97790000D01*
X107570826Y-97937559D01*
X107567963Y-97966627D01*
X107533616Y-98079853D01*
X107516443Y-98136467D01*
X107432780Y-98292990D01*
X107320186Y-98430186D01*
X107182990Y-98542780D01*
X107026467Y-98626443D01*
X106969853Y-98643616D01*
X106856627Y-98677963D01*
X106823535Y-98681222D01*
X106724264Y-98691000D01*
X106635736Y-98691000D01*
X106536465Y-98681222D01*
X106503373Y-98677963D01*
X106390147Y-98643616D01*
X106333533Y-98626443D01*
X106177010Y-98542780D01*
X106039814Y-98430186D01*
X105927220Y-98292990D01*
X105843557Y-98136467D01*
X105826384Y-98079853D01*
X105792037Y-97966627D01*
X105789174Y-97937559D01*
X105774640Y-97790000D01*
X105792037Y-97613375D01*
X105792037Y-97613373D01*
X105834203Y-97474369D01*
X105843557Y-97443533D01*
X105927220Y-97287010D01*
X106039814Y-97149814D01*
X106177010Y-97037220D01*
X106333533Y-96953557D01*
X106390147Y-96936384D01*
X106503373Y-96902037D01*
X106536465Y-96898778D01*
X106635736Y-96889000D01*
X106724264Y-96889000D01*
X106823535Y-96898778D01*
X106823535Y-96898778D01*
G37*
G36*
X104283535Y-96898778D02*
G01*
X104316627Y-96902037D01*
X104429853Y-96936384D01*
X104486467Y-96953557D01*
X104642990Y-97037220D01*
X104780186Y-97149814D01*
X104892780Y-97287010D01*
X104976443Y-97443533D01*
X104985797Y-97474369D01*
X105027963Y-97613373D01*
X105027963Y-97613375D01*
X105045360Y-97790000D01*
X105030826Y-97937559D01*
X105027963Y-97966627D01*
X104993616Y-98079853D01*
X104976443Y-98136467D01*
X104892780Y-98292990D01*
X104780186Y-98430186D01*
X104642990Y-98542780D01*
X104486467Y-98626443D01*
X104429853Y-98643616D01*
X104316627Y-98677963D01*
X104283535Y-98681222D01*
X104184264Y-98691000D01*
X104095736Y-98691000D01*
X103996465Y-98681222D01*
X103963373Y-98677963D01*
X103850147Y-98643616D01*
X103793533Y-98626443D01*
X103637010Y-98542780D01*
X103499814Y-98430186D01*
X103387220Y-98292990D01*
X103303557Y-98136467D01*
X103286384Y-98079853D01*
X103252037Y-97966627D01*
X103249174Y-97937559D01*
X103234640Y-97790000D01*
X103252037Y-97613375D01*
X103252037Y-97613373D01*
X103294203Y-97474369D01*
X103303557Y-97443533D01*
X103387220Y-97287010D01*
X103499814Y-97149814D01*
X103637010Y-97037220D01*
X103793533Y-96953557D01*
X103850147Y-96936384D01*
X103963373Y-96902037D01*
X103996465Y-96898778D01*
X104095736Y-96889000D01*
X104184264Y-96889000D01*
X104283535Y-96898778D01*
X104283535Y-96898778D01*
G37*
G36*
X110191136Y-96673253D02*
G01*
X110191138Y-96673254D01*
X110191139Y-96673254D01*
X110282314Y-96711021D01*
X110364368Y-96765847D01*
X110434153Y-96835632D01*
X110483278Y-96909153D01*
X110488980Y-96917688D01*
X110526747Y-97008864D01*
X110546000Y-97105656D01*
X110546000Y-97204344D01*
X110529557Y-97287010D01*
X110526746Y-97301139D01*
X110488979Y-97392314D01*
X110434153Y-97474368D01*
X110364368Y-97544153D01*
X110282314Y-97598979D01*
X110191139Y-97636746D01*
X110191138Y-97636746D01*
X110191136Y-97636747D01*
X110094344Y-97656000D01*
X109995656Y-97656000D01*
X109898864Y-97636747D01*
X109898862Y-97636746D01*
X109898861Y-97636746D01*
X109807686Y-97598979D01*
X109725632Y-97544153D01*
X109655847Y-97474368D01*
X109601021Y-97392314D01*
X109563254Y-97301139D01*
X109560444Y-97287010D01*
X109544000Y-97204344D01*
X109544000Y-97105656D01*
X109563253Y-97008864D01*
X109601020Y-96917688D01*
X109606723Y-96909153D01*
X109655847Y-96835632D01*
X109725632Y-96765847D01*
X109807686Y-96711021D01*
X109898861Y-96673254D01*
X109898862Y-96673254D01*
X109898864Y-96673253D01*
X109995656Y-96654000D01*
X110094344Y-96654000D01*
X110191136Y-96673253D01*
X110191136Y-96673253D01*
G37*
G36*
X133516823Y-95681313D02*
G01*
X133677240Y-95729975D01*
X133825077Y-95808995D01*
X133954659Y-95915341D01*
X134061005Y-96044923D01*
X134140025Y-96192760D01*
X134188687Y-96353177D01*
X134205118Y-96520000D01*
X134188687Y-96686823D01*
X134140025Y-96847240D01*
X134061005Y-96995077D01*
X133954659Y-97124659D01*
X133825077Y-97231005D01*
X133677240Y-97310025D01*
X133516823Y-97358687D01*
X133391806Y-97371000D01*
X133308194Y-97371000D01*
X133183177Y-97358687D01*
X133022760Y-97310025D01*
X132874923Y-97231005D01*
X132745341Y-97124659D01*
X132638995Y-96995077D01*
X132559975Y-96847240D01*
X132511313Y-96686823D01*
X132494882Y-96520000D01*
X132511313Y-96353177D01*
X132559975Y-96192760D01*
X132638995Y-96044923D01*
X132745341Y-95915341D01*
X132874923Y-95808995D01*
X133022760Y-95729975D01*
X133183177Y-95681313D01*
X133308194Y-95669000D01*
X133391806Y-95669000D01*
X133516823Y-95681313D01*
X133516823Y-95681313D01*
G37*
G36*
X126581000Y-97371000D02*
G01*
X124879000Y-97371000D01*
X124879000Y-95669000D01*
X126581000Y-95669000D01*
X126581000Y-97371000D01*
X126581000Y-97371000D01*
G37*
G36*
X114446136Y-96038253D02*
G01*
X114446138Y-96038254D01*
X114446139Y-96038254D01*
X114537314Y-96076021D01*
X114619368Y-96130847D01*
X114689153Y-96200632D01*
X114743979Y-96282686D01*
X114781746Y-96373861D01*
X114801000Y-96470658D01*
X114801000Y-96569342D01*
X114781746Y-96666139D01*
X114743979Y-96757314D01*
X114689153Y-96839368D01*
X114619368Y-96909153D01*
X114537314Y-96963979D01*
X114446139Y-97001746D01*
X114446138Y-97001746D01*
X114446136Y-97001747D01*
X114349344Y-97021000D01*
X114250656Y-97021000D01*
X114153864Y-97001747D01*
X114153862Y-97001746D01*
X114153861Y-97001746D01*
X114062686Y-96963979D01*
X113980632Y-96909153D01*
X113910847Y-96839368D01*
X113856021Y-96757314D01*
X113818254Y-96666139D01*
X113799000Y-96569342D01*
X113799000Y-96470658D01*
X113818254Y-96373861D01*
X113856021Y-96282686D01*
X113910847Y-96200632D01*
X113980632Y-96130847D01*
X114062686Y-96076021D01*
X114153861Y-96038254D01*
X114153862Y-96038254D01*
X114153864Y-96038253D01*
X114250656Y-96019000D01*
X114349344Y-96019000D01*
X114446136Y-96038253D01*
X114446136Y-96038253D01*
G37*
G36*
X118256136Y-96038253D02*
G01*
X118256138Y-96038254D01*
X118256139Y-96038254D01*
X118347314Y-96076021D01*
X118429368Y-96130847D01*
X118499153Y-96200632D01*
X118553979Y-96282686D01*
X118591746Y-96373861D01*
X118611000Y-96470658D01*
X118611000Y-96569342D01*
X118591746Y-96666139D01*
X118553979Y-96757314D01*
X118499153Y-96839368D01*
X118429368Y-96909153D01*
X118347314Y-96963979D01*
X118256139Y-97001746D01*
X118256138Y-97001746D01*
X118256136Y-97001747D01*
X118159344Y-97021000D01*
X118060656Y-97021000D01*
X117963864Y-97001747D01*
X117963862Y-97001746D01*
X117963861Y-97001746D01*
X117872686Y-96963979D01*
X117790632Y-96909153D01*
X117720847Y-96839368D01*
X117666021Y-96757314D01*
X117628254Y-96666139D01*
X117609000Y-96569342D01*
X117609000Y-96470658D01*
X117628254Y-96373861D01*
X117666021Y-96282686D01*
X117720847Y-96200632D01*
X117790632Y-96130847D01*
X117872686Y-96076021D01*
X117963861Y-96038254D01*
X117963862Y-96038254D01*
X117963864Y-96038253D01*
X118060656Y-96019000D01*
X118159344Y-96019000D01*
X118256136Y-96038253D01*
X118256136Y-96038253D01*
G37*
G36*
X104283535Y-94358778D02*
G01*
X104316627Y-94362037D01*
X104429853Y-94396384D01*
X104486467Y-94413557D01*
X104642990Y-94497220D01*
X104780186Y-94609814D01*
X104892780Y-94747010D01*
X104976443Y-94903533D01*
X104976443Y-94903534D01*
X105027963Y-95073373D01*
X105027963Y-95073375D01*
X105045360Y-95250000D01*
X105037589Y-95328891D01*
X105027963Y-95426627D01*
X105010667Y-95483643D01*
X104976443Y-95596467D01*
X104892780Y-95752990D01*
X104780186Y-95890186D01*
X104642990Y-96002780D01*
X104486467Y-96086443D01*
X104429853Y-96103616D01*
X104316627Y-96137963D01*
X104283535Y-96141222D01*
X104184264Y-96151000D01*
X104095736Y-96151000D01*
X103996465Y-96141222D01*
X103963373Y-96137963D01*
X103850147Y-96103616D01*
X103793533Y-96086443D01*
X103637010Y-96002780D01*
X103499814Y-95890186D01*
X103387220Y-95752990D01*
X103303557Y-95596467D01*
X103269333Y-95483643D01*
X103252037Y-95426627D01*
X103242411Y-95328891D01*
X103234640Y-95250000D01*
X103252037Y-95073375D01*
X103252037Y-95073373D01*
X103303557Y-94903534D01*
X103303557Y-94903533D01*
X103387220Y-94747010D01*
X103499814Y-94609814D01*
X103637010Y-94497220D01*
X103793533Y-94413557D01*
X103850147Y-94396384D01*
X103963373Y-94362037D01*
X103996465Y-94358778D01*
X104095736Y-94349000D01*
X104184264Y-94349000D01*
X104283535Y-94358778D01*
X104283535Y-94358778D01*
G37*
G36*
X106823535Y-94358778D02*
G01*
X106856627Y-94362037D01*
X106969853Y-94396384D01*
X107026467Y-94413557D01*
X107182990Y-94497220D01*
X107320186Y-94609814D01*
X107432780Y-94747010D01*
X107516443Y-94903533D01*
X107516443Y-94903534D01*
X107567963Y-95073373D01*
X107567963Y-95073375D01*
X107585360Y-95250000D01*
X107577589Y-95328891D01*
X107567963Y-95426627D01*
X107550667Y-95483643D01*
X107516443Y-95596467D01*
X107432780Y-95752990D01*
X107320186Y-95890186D01*
X107182990Y-96002780D01*
X107026467Y-96086443D01*
X106969853Y-96103616D01*
X106856627Y-96137963D01*
X106823535Y-96141222D01*
X106724264Y-96151000D01*
X106635736Y-96151000D01*
X106536465Y-96141222D01*
X106503373Y-96137963D01*
X106390147Y-96103616D01*
X106333533Y-96086443D01*
X106177010Y-96002780D01*
X106039814Y-95890186D01*
X105927220Y-95752990D01*
X105843557Y-95596467D01*
X105809333Y-95483643D01*
X105792037Y-95426627D01*
X105782411Y-95328891D01*
X105774640Y-95250000D01*
X105792037Y-95073375D01*
X105792037Y-95073373D01*
X105843557Y-94903534D01*
X105843557Y-94903533D01*
X105927220Y-94747010D01*
X106039814Y-94609814D01*
X106177010Y-94497220D01*
X106333533Y-94413557D01*
X106390147Y-94396384D01*
X106503373Y-94362037D01*
X106536465Y-94358778D01*
X106635736Y-94349000D01*
X106724264Y-94349000D01*
X106823535Y-94358778D01*
X106823535Y-94358778D01*
G37*
G36*
X122050476Y-94459261D02*
G01*
X122153645Y-94479782D01*
X122239036Y-94515153D01*
X122299416Y-94540163D01*
X122299417Y-94540164D01*
X122430607Y-94627821D01*
X122542179Y-94739393D01*
X122547268Y-94747010D01*
X122629837Y-94870584D01*
X122630261Y-94871608D01*
X122690218Y-95016355D01*
X122721000Y-95171109D01*
X122721000Y-95328891D01*
X122690218Y-95483645D01*
X122654847Y-95569036D01*
X122629837Y-95629416D01*
X122629836Y-95629417D01*
X122542179Y-95760607D01*
X122430607Y-95872179D01*
X122365012Y-95916007D01*
X122299416Y-95959837D01*
X122239036Y-95984847D01*
X122153645Y-96020218D01*
X122062970Y-96038254D01*
X121998892Y-96051000D01*
X121841108Y-96051000D01*
X121777030Y-96038254D01*
X121686355Y-96020218D01*
X121600964Y-95984847D01*
X121540584Y-95959837D01*
X121474988Y-95916007D01*
X121409393Y-95872179D01*
X121297821Y-95760607D01*
X121210164Y-95629417D01*
X121210163Y-95629416D01*
X121185153Y-95569036D01*
X121149782Y-95483645D01*
X121119000Y-95328891D01*
X121119000Y-95171109D01*
X121149782Y-95016355D01*
X121209739Y-94871608D01*
X121210163Y-94870584D01*
X121292732Y-94747010D01*
X121297821Y-94739393D01*
X121409393Y-94627821D01*
X121540583Y-94540164D01*
X121540584Y-94540163D01*
X121600964Y-94515153D01*
X121686355Y-94479782D01*
X121789524Y-94459261D01*
X121841108Y-94449000D01*
X121998892Y-94449000D01*
X122050476Y-94459261D01*
X122050476Y-94459261D01*
G37*
G36*
X150879476Y-93570261D02*
G01*
X150982645Y-93590782D01*
X151068036Y-93626153D01*
X151128416Y-93651163D01*
X151194012Y-93694992D01*
X151259607Y-93738821D01*
X151371179Y-93850393D01*
X151405065Y-93901108D01*
X151458837Y-93981584D01*
X151473402Y-94016747D01*
X151519218Y-94127355D01*
X151550000Y-94282109D01*
X151550000Y-94439891D01*
X151519218Y-94594645D01*
X151505475Y-94627822D01*
X151458837Y-94740416D01*
X151431720Y-94781000D01*
X151371863Y-94870584D01*
X151371178Y-94871608D01*
X151259608Y-94983178D01*
X151128416Y-95070837D01*
X151068036Y-95095847D01*
X150982645Y-95131218D01*
X150879476Y-95151739D01*
X150827892Y-95162000D01*
X150670108Y-95162000D01*
X150618524Y-95151739D01*
X150515355Y-95131218D01*
X150429964Y-95095847D01*
X150369584Y-95070837D01*
X150238392Y-94983178D01*
X150126822Y-94871608D01*
X150126138Y-94870584D01*
X150066280Y-94781000D01*
X150039163Y-94740416D01*
X149992525Y-94627822D01*
X149978782Y-94594645D01*
X149948000Y-94439891D01*
X149948000Y-94282109D01*
X149978782Y-94127355D01*
X150024598Y-94016747D01*
X150039163Y-93981584D01*
X150092935Y-93901108D01*
X150126821Y-93850393D01*
X150238393Y-93738821D01*
X150303988Y-93694993D01*
X150369584Y-93651163D01*
X150429964Y-93626153D01*
X150515355Y-93590782D01*
X150618524Y-93570261D01*
X150670108Y-93560000D01*
X150827892Y-93560000D01*
X150879476Y-93570261D01*
X150879476Y-93570261D01*
G37*
G36*
X146180476Y-93189261D02*
G01*
X146283645Y-93209782D01*
X146369036Y-93245153D01*
X146429416Y-93270163D01*
X146429417Y-93270164D01*
X146549179Y-93350185D01*
X146560608Y-93357822D01*
X146672178Y-93469392D01*
X146759837Y-93600584D01*
X146764151Y-93611000D01*
X146820218Y-93746355D01*
X146851000Y-93901109D01*
X146851000Y-94058891D01*
X146820218Y-94213645D01*
X146791859Y-94282108D01*
X146759837Y-94359416D01*
X146723661Y-94413557D01*
X146672179Y-94490607D01*
X146560607Y-94602179D01*
X146522230Y-94627821D01*
X146429416Y-94689837D01*
X146369036Y-94714847D01*
X146283645Y-94750218D01*
X146180476Y-94770739D01*
X146128892Y-94781000D01*
X145971108Y-94781000D01*
X145919524Y-94770739D01*
X145816355Y-94750218D01*
X145730964Y-94714847D01*
X145670584Y-94689837D01*
X145577770Y-94627821D01*
X145539393Y-94602179D01*
X145427821Y-94490607D01*
X145376339Y-94413557D01*
X145340163Y-94359416D01*
X145308141Y-94282108D01*
X145279782Y-94213645D01*
X145249000Y-94058891D01*
X145249000Y-93901109D01*
X145279782Y-93746355D01*
X145335849Y-93611000D01*
X145340163Y-93600584D01*
X145427822Y-93469392D01*
X145539392Y-93357822D01*
X145550822Y-93350185D01*
X145670583Y-93270164D01*
X145670584Y-93270163D01*
X145730964Y-93245153D01*
X145816355Y-93209782D01*
X145919524Y-93189261D01*
X145971108Y-93179000D01*
X146128892Y-93179000D01*
X146180476Y-93189261D01*
X146180476Y-93189261D01*
G37*
G36*
X132226136Y-93053253D02*
G01*
X132226138Y-93053254D01*
X132226139Y-93053254D01*
X132317314Y-93091021D01*
X132399368Y-93145847D01*
X132469153Y-93215632D01*
X132505590Y-93270164D01*
X132523980Y-93297688D01*
X132561747Y-93388864D01*
X132581000Y-93485656D01*
X132581000Y-93584344D01*
X132567709Y-93651164D01*
X132561746Y-93681139D01*
X132523979Y-93772314D01*
X132469153Y-93854368D01*
X132399368Y-93924153D01*
X132317314Y-93978979D01*
X132226139Y-94016746D01*
X132226138Y-94016746D01*
X132226136Y-94016747D01*
X132129344Y-94036000D01*
X132030656Y-94036000D01*
X131933864Y-94016747D01*
X131933862Y-94016746D01*
X131933861Y-94016746D01*
X131842686Y-93978979D01*
X131760632Y-93924153D01*
X131690847Y-93854368D01*
X131636021Y-93772314D01*
X131598254Y-93681139D01*
X131592292Y-93651164D01*
X131579000Y-93584344D01*
X131579000Y-93485656D01*
X131598253Y-93388864D01*
X131636020Y-93297688D01*
X131654411Y-93270164D01*
X131690847Y-93215632D01*
X131760632Y-93145847D01*
X131842686Y-93091021D01*
X131933861Y-93053254D01*
X131933862Y-93053254D01*
X131933864Y-93053253D01*
X132030656Y-93034000D01*
X132129344Y-93034000D01*
X132226136Y-93053253D01*
X132226136Y-93053253D01*
G37*
G36*
X104283535Y-91818778D02*
G01*
X104316627Y-91822037D01*
X104429853Y-91856384D01*
X104486467Y-91873557D01*
X104642990Y-91957220D01*
X104780186Y-92069814D01*
X104892780Y-92207010D01*
X104976443Y-92363533D01*
X104976443Y-92363534D01*
X105027963Y-92533373D01*
X105027963Y-92533375D01*
X105045360Y-92710000D01*
X105030966Y-92856136D01*
X105027963Y-92886627D01*
X105009554Y-92947312D01*
X104976443Y-93056467D01*
X104892780Y-93212990D01*
X104780186Y-93350186D01*
X104642990Y-93462780D01*
X104486467Y-93546443D01*
X104429853Y-93563616D01*
X104316627Y-93597963D01*
X104290025Y-93600583D01*
X104184264Y-93611000D01*
X104095736Y-93611000D01*
X103989975Y-93600583D01*
X103963373Y-93597963D01*
X103850147Y-93563616D01*
X103793533Y-93546443D01*
X103637010Y-93462780D01*
X103499814Y-93350186D01*
X103387220Y-93212990D01*
X103303557Y-93056467D01*
X103270446Y-92947312D01*
X103252037Y-92886627D01*
X103249034Y-92856136D01*
X103234640Y-92710000D01*
X103252037Y-92533375D01*
X103252037Y-92533373D01*
X103303557Y-92363534D01*
X103303557Y-92363533D01*
X103387220Y-92207010D01*
X103499814Y-92069814D01*
X103637010Y-91957220D01*
X103793533Y-91873557D01*
X103850147Y-91856384D01*
X103963373Y-91822037D01*
X103996465Y-91818778D01*
X104095736Y-91809000D01*
X104184264Y-91809000D01*
X104283535Y-91818778D01*
X104283535Y-91818778D01*
G37*
G36*
X106823535Y-91818778D02*
G01*
X106856627Y-91822037D01*
X106969853Y-91856384D01*
X107026467Y-91873557D01*
X107182990Y-91957220D01*
X107320186Y-92069814D01*
X107432780Y-92207010D01*
X107516443Y-92363533D01*
X107516443Y-92363534D01*
X107567963Y-92533373D01*
X107567963Y-92533375D01*
X107585360Y-92710000D01*
X107570966Y-92856136D01*
X107567963Y-92886627D01*
X107549554Y-92947312D01*
X107516443Y-93056467D01*
X107432780Y-93212990D01*
X107320186Y-93350186D01*
X107182990Y-93462780D01*
X107026467Y-93546443D01*
X106969853Y-93563616D01*
X106856627Y-93597963D01*
X106830025Y-93600583D01*
X106724264Y-93611000D01*
X106635736Y-93611000D01*
X106529975Y-93600583D01*
X106503373Y-93597963D01*
X106390147Y-93563616D01*
X106333533Y-93546443D01*
X106177010Y-93462780D01*
X106039814Y-93350186D01*
X105927220Y-93212990D01*
X105843557Y-93056467D01*
X105810446Y-92947312D01*
X105792037Y-92886627D01*
X105789034Y-92856136D01*
X105774640Y-92710000D01*
X105792037Y-92533375D01*
X105792037Y-92533373D01*
X105843557Y-92363534D01*
X105843557Y-92363533D01*
X105927220Y-92207010D01*
X106039814Y-92069814D01*
X106177010Y-91957220D01*
X106333533Y-91873557D01*
X106390147Y-91856384D01*
X106503373Y-91822037D01*
X106536465Y-91818778D01*
X106635736Y-91809000D01*
X106724264Y-91809000D01*
X106823535Y-91818778D01*
X106823535Y-91818778D01*
G37*
G36*
X141751136Y-92228253D02*
G01*
X141751138Y-92228254D01*
X141751139Y-92228254D01*
X141842314Y-92266021D01*
X141924368Y-92320847D01*
X141994153Y-92390632D01*
X142048979Y-92472686D01*
X142086746Y-92563861D01*
X142106000Y-92660658D01*
X142106000Y-92759342D01*
X142086746Y-92856139D01*
X142048979Y-92947314D01*
X141994153Y-93029368D01*
X141924368Y-93099153D01*
X141842314Y-93153979D01*
X141751139Y-93191746D01*
X141751138Y-93191746D01*
X141751136Y-93191747D01*
X141654344Y-93211000D01*
X141555656Y-93211000D01*
X141458864Y-93191747D01*
X141458862Y-93191746D01*
X141458861Y-93191746D01*
X141367686Y-93153979D01*
X141285632Y-93099153D01*
X141215847Y-93029368D01*
X141161021Y-92947314D01*
X141123254Y-92856139D01*
X141104000Y-92759342D01*
X141104000Y-92660658D01*
X141123254Y-92563861D01*
X141161021Y-92472686D01*
X141215847Y-92390632D01*
X141285632Y-92320847D01*
X141367686Y-92266021D01*
X141458861Y-92228254D01*
X141458862Y-92228254D01*
X141458864Y-92228253D01*
X141555656Y-92209000D01*
X141654344Y-92209000D01*
X141751136Y-92228253D01*
X141751136Y-92228253D01*
G37*
G36*
X129686136Y-91148253D02*
G01*
X129686138Y-91148254D01*
X129686139Y-91148254D01*
X129777314Y-91186021D01*
X129859368Y-91240847D01*
X129929153Y-91310632D01*
X129982623Y-91390656D01*
X129983980Y-91392688D01*
X130021747Y-91483864D01*
X130022837Y-91489344D01*
X130041000Y-91580658D01*
X130041000Y-91679342D01*
X130021746Y-91776139D01*
X129983979Y-91867314D01*
X129929153Y-91949368D01*
X129859368Y-92019153D01*
X129777314Y-92073979D01*
X129686139Y-92111746D01*
X129686138Y-92111746D01*
X129686136Y-92111747D01*
X129589344Y-92131000D01*
X129490656Y-92131000D01*
X129393864Y-92111747D01*
X129393862Y-92111746D01*
X129393861Y-92111746D01*
X129302686Y-92073979D01*
X129220632Y-92019153D01*
X129150847Y-91949368D01*
X129096021Y-91867314D01*
X129058254Y-91776139D01*
X129039000Y-91679342D01*
X129039000Y-91580658D01*
X129057163Y-91489344D01*
X129058253Y-91483864D01*
X129096020Y-91392688D01*
X129097378Y-91390656D01*
X129150847Y-91310632D01*
X129220632Y-91240847D01*
X129302686Y-91186021D01*
X129393861Y-91148254D01*
X129393862Y-91148254D01*
X129393864Y-91148253D01*
X129490656Y-91129000D01*
X129589344Y-91129000D01*
X129686136Y-91148253D01*
X129686136Y-91148253D01*
G37*
G36*
X137941136Y-90958253D02*
G01*
X137941138Y-90958254D01*
X137941139Y-90958254D01*
X138032314Y-90996021D01*
X138114368Y-91050847D01*
X138184153Y-91120632D01*
X138202609Y-91148253D01*
X138238980Y-91202688D01*
X138276747Y-91293864D01*
X138296000Y-91390656D01*
X138296000Y-91489344D01*
X138277837Y-91580658D01*
X138276746Y-91586139D01*
X138238979Y-91677314D01*
X138184153Y-91759368D01*
X138114368Y-91829153D01*
X138032314Y-91883979D01*
X137941139Y-91921746D01*
X137941138Y-91921746D01*
X137941136Y-91921747D01*
X137844344Y-91941000D01*
X137745656Y-91941000D01*
X137648864Y-91921747D01*
X137648862Y-91921746D01*
X137648861Y-91921746D01*
X137557686Y-91883979D01*
X137475632Y-91829153D01*
X137405847Y-91759368D01*
X137351021Y-91677314D01*
X137313254Y-91586139D01*
X137312164Y-91580658D01*
X137294000Y-91489344D01*
X137294000Y-91390656D01*
X137313253Y-91293864D01*
X137351020Y-91202688D01*
X137387392Y-91148253D01*
X137405847Y-91120632D01*
X137475632Y-91050847D01*
X137557686Y-90996021D01*
X137648861Y-90958254D01*
X137648862Y-90958254D01*
X137648864Y-90958253D01*
X137745656Y-90939000D01*
X137844344Y-90939000D01*
X137941136Y-90958253D01*
X137941136Y-90958253D01*
G37*
G36*
X116351136Y-89688253D02*
G01*
X116351138Y-89688254D01*
X116351139Y-89688254D01*
X116442314Y-89726021D01*
X116524368Y-89780847D01*
X116594153Y-89850632D01*
X116648979Y-89932686D01*
X116686746Y-90023861D01*
X116706000Y-90120658D01*
X116706000Y-90219342D01*
X116686746Y-90316139D01*
X116648979Y-90407314D01*
X116594153Y-90489368D01*
X116524368Y-90559153D01*
X116442314Y-90613979D01*
X116351139Y-90651746D01*
X116351138Y-90651746D01*
X116351136Y-90651747D01*
X116254344Y-90671000D01*
X116155656Y-90671000D01*
X116058864Y-90651747D01*
X116058862Y-90651746D01*
X116058861Y-90651746D01*
X115967686Y-90613979D01*
X115885632Y-90559153D01*
X115815847Y-90489368D01*
X115761021Y-90407314D01*
X115723254Y-90316139D01*
X115704000Y-90219342D01*
X115704000Y-90120658D01*
X115723254Y-90023861D01*
X115761021Y-89932686D01*
X115815847Y-89850632D01*
X115885632Y-89780847D01*
X115967686Y-89726021D01*
X116058861Y-89688254D01*
X116058862Y-89688254D01*
X116058864Y-89688253D01*
X116155656Y-89669000D01*
X116254344Y-89669000D01*
X116351136Y-89688253D01*
X116351136Y-89688253D01*
G37*
G36*
X119510476Y-88109261D02*
G01*
X119613645Y-88129782D01*
X119699036Y-88165153D01*
X119759416Y-88190163D01*
X119890608Y-88277822D01*
X120002178Y-88389392D01*
X120089837Y-88520584D01*
X120114847Y-88580964D01*
X120150218Y-88666355D01*
X120181000Y-88821109D01*
X120181000Y-88978891D01*
X120150218Y-89133645D01*
X120114847Y-89219036D01*
X120089837Y-89279416D01*
X120002178Y-89410608D01*
X119890608Y-89522178D01*
X119759416Y-89609837D01*
X119699036Y-89634847D01*
X119613645Y-89670218D01*
X119522970Y-89688254D01*
X119458892Y-89701000D01*
X119301108Y-89701000D01*
X119237030Y-89688254D01*
X119146355Y-89670218D01*
X119060964Y-89634847D01*
X119000584Y-89609837D01*
X118869392Y-89522178D01*
X118757822Y-89410608D01*
X118670163Y-89279416D01*
X118645153Y-89219036D01*
X118609782Y-89133645D01*
X118579000Y-88978891D01*
X118579000Y-88821109D01*
X118609782Y-88666355D01*
X118645153Y-88580964D01*
X118670163Y-88520584D01*
X118757822Y-88389392D01*
X118869392Y-88277822D01*
X119000584Y-88190163D01*
X119060964Y-88165153D01*
X119146355Y-88129782D01*
X119249524Y-88109261D01*
X119301108Y-88099000D01*
X119458892Y-88099000D01*
X119510476Y-88109261D01*
X119510476Y-88109261D01*
G37*
G36*
X113607321Y-86128617D02*
G01*
X113647691Y-86140864D01*
X113684887Y-86160745D01*
X113717495Y-86187505D01*
X113744255Y-86220113D01*
X113764136Y-86257309D01*
X113776383Y-86297679D01*
X113781000Y-86344559D01*
X113781000Y-87155441D01*
X113776383Y-87202321D01*
X113764136Y-87242691D01*
X113744255Y-87279887D01*
X113717495Y-87312495D01*
X113684887Y-87339255D01*
X113647691Y-87359136D01*
X113607321Y-87371383D01*
X113560441Y-87376000D01*
X112499559Y-87376000D01*
X112452679Y-87371383D01*
X112412309Y-87359136D01*
X112375113Y-87339255D01*
X112342505Y-87312495D01*
X112315745Y-87279887D01*
X112295864Y-87242691D01*
X112283617Y-87202321D01*
X112279000Y-87155441D01*
X112279000Y-86344559D01*
X112283617Y-86297679D01*
X112295864Y-86257309D01*
X112315745Y-86220113D01*
X112342505Y-86187505D01*
X112375113Y-86160745D01*
X112412309Y-86140864D01*
X112452679Y-86128617D01*
X112499559Y-86124000D01*
X113560441Y-86124000D01*
X113607321Y-86128617D01*
X113607321Y-86128617D01*
G37*
G36*
X107892321Y-86128617D02*
G01*
X107932691Y-86140864D01*
X107969887Y-86160745D01*
X108002495Y-86187505D01*
X108029255Y-86220113D01*
X108049136Y-86257309D01*
X108061383Y-86297679D01*
X108066000Y-86344559D01*
X108066000Y-87155441D01*
X108061383Y-87202321D01*
X108049136Y-87242691D01*
X108029255Y-87279887D01*
X108002495Y-87312495D01*
X107969887Y-87339255D01*
X107932691Y-87359136D01*
X107892321Y-87371383D01*
X107845441Y-87376000D01*
X106784559Y-87376000D01*
X106737679Y-87371383D01*
X106697309Y-87359136D01*
X106660113Y-87339255D01*
X106627505Y-87312495D01*
X106600745Y-87279887D01*
X106580864Y-87242691D01*
X106568617Y-87202321D01*
X106564000Y-87155441D01*
X106564000Y-86344559D01*
X106568617Y-86297679D01*
X106580864Y-86257309D01*
X106600745Y-86220113D01*
X106627505Y-86187505D01*
X106660113Y-86160745D01*
X106697309Y-86140864D01*
X106737679Y-86128617D01*
X106784559Y-86124000D01*
X107845441Y-86124000D01*
X107892321Y-86128617D01*
X107892321Y-86128617D01*
G37*
G36*
X113607321Y-84078617D02*
G01*
X113647691Y-84090864D01*
X113684887Y-84110745D01*
X113717495Y-84137505D01*
X113744255Y-84170113D01*
X113764136Y-84207309D01*
X113776383Y-84247679D01*
X113781000Y-84294559D01*
X113781000Y-85105441D01*
X113776383Y-85152321D01*
X113764136Y-85192691D01*
X113744255Y-85229887D01*
X113717495Y-85262495D01*
X113684887Y-85289255D01*
X113647691Y-85309136D01*
X113607321Y-85321383D01*
X113560441Y-85326000D01*
X112499559Y-85326000D01*
X112452679Y-85321383D01*
X112412309Y-85309136D01*
X112375113Y-85289255D01*
X112342505Y-85262495D01*
X112315745Y-85229887D01*
X112295864Y-85192691D01*
X112283617Y-85152321D01*
X112279000Y-85105441D01*
X112279000Y-84294559D01*
X112283617Y-84247679D01*
X112295864Y-84207309D01*
X112315745Y-84170113D01*
X112342505Y-84137505D01*
X112375113Y-84110745D01*
X112412309Y-84090864D01*
X112452679Y-84078617D01*
X112499559Y-84074000D01*
X113560441Y-84074000D01*
X113607321Y-84078617D01*
X113607321Y-84078617D01*
G37*
G36*
X107892321Y-84078617D02*
G01*
X107932691Y-84090864D01*
X107969887Y-84110745D01*
X108002495Y-84137505D01*
X108029255Y-84170113D01*
X108049136Y-84207309D01*
X108061383Y-84247679D01*
X108066000Y-84294559D01*
X108066000Y-85105441D01*
X108061383Y-85152321D01*
X108049136Y-85192691D01*
X108029255Y-85229887D01*
X108002495Y-85262495D01*
X107969887Y-85289255D01*
X107932691Y-85309136D01*
X107892321Y-85321383D01*
X107845441Y-85326000D01*
X106784559Y-85326000D01*
X106737679Y-85321383D01*
X106697309Y-85309136D01*
X106660113Y-85289255D01*
X106627505Y-85262495D01*
X106600745Y-85229887D01*
X106580864Y-85192691D01*
X106568617Y-85152321D01*
X106564000Y-85105441D01*
X106564000Y-84294559D01*
X106568617Y-84247679D01*
X106580864Y-84207309D01*
X106600745Y-84170113D01*
X106627505Y-84137505D01*
X106660113Y-84110745D01*
X106697309Y-84090864D01*
X106737679Y-84078617D01*
X106784559Y-84074000D01*
X107845441Y-84074000D01*
X107892321Y-84078617D01*
X107892321Y-84078617D01*
G37*
G36*
X115716136Y-83973253D02*
G01*
X115716138Y-83973254D01*
X115716139Y-83973254D01*
X115807314Y-84011021D01*
X115889368Y-84065847D01*
X115959153Y-84135632D01*
X116013979Y-84217686D01*
X116047590Y-84298827D01*
X116051747Y-84308864D01*
X116071000Y-84405656D01*
X116071000Y-84504344D01*
X116058660Y-84566383D01*
X116051746Y-84601139D01*
X116013979Y-84692314D01*
X115959153Y-84774368D01*
X115889368Y-84844153D01*
X115807314Y-84898979D01*
X115716139Y-84936746D01*
X115716138Y-84936746D01*
X115716136Y-84936747D01*
X115619344Y-84956000D01*
X115520656Y-84956000D01*
X115423864Y-84936747D01*
X115423862Y-84936746D01*
X115423861Y-84936746D01*
X115332686Y-84898979D01*
X115250632Y-84844153D01*
X115180847Y-84774368D01*
X115126021Y-84692314D01*
X115088254Y-84601139D01*
X115081341Y-84566383D01*
X115069000Y-84504344D01*
X115069000Y-84405656D01*
X115088253Y-84308864D01*
X115092411Y-84298827D01*
X115126021Y-84217686D01*
X115180847Y-84135632D01*
X115250632Y-84065847D01*
X115332686Y-84011021D01*
X115423861Y-83973254D01*
X115423862Y-83973254D01*
X115423864Y-83973253D01*
X115520656Y-83954000D01*
X115619344Y-83954000D01*
X115716136Y-83973253D01*
X115716136Y-83973253D01*
G37*
G36*
X120857321Y-83073617D02*
G01*
X120897691Y-83085864D01*
X120934887Y-83105745D01*
X120967495Y-83132505D01*
X120994255Y-83165113D01*
X121014136Y-83202309D01*
X121026383Y-83242679D01*
X121031000Y-83289559D01*
X121031000Y-84350441D01*
X121026383Y-84397321D01*
X121014136Y-84437691D01*
X120994255Y-84474887D01*
X120967495Y-84507495D01*
X120934887Y-84534255D01*
X120897691Y-84554136D01*
X120857321Y-84566383D01*
X120810441Y-84571000D01*
X119999559Y-84571000D01*
X119952679Y-84566383D01*
X119912309Y-84554136D01*
X119875113Y-84534255D01*
X119842505Y-84507495D01*
X119815745Y-84474887D01*
X119795864Y-84437691D01*
X119783617Y-84397321D01*
X119779000Y-84350441D01*
X119779000Y-83289559D01*
X119783617Y-83242679D01*
X119795864Y-83202309D01*
X119815745Y-83165113D01*
X119842505Y-83132505D01*
X119875113Y-83105745D01*
X119912309Y-83085864D01*
X119952679Y-83073617D01*
X119999559Y-83069000D01*
X120810441Y-83069000D01*
X120857321Y-83073617D01*
X120857321Y-83073617D01*
G37*
G36*
X118807321Y-83073617D02*
G01*
X118847691Y-83085864D01*
X118884887Y-83105745D01*
X118917495Y-83132505D01*
X118944255Y-83165113D01*
X118964136Y-83202309D01*
X118976383Y-83242679D01*
X118981000Y-83289559D01*
X118981000Y-84350441D01*
X118976383Y-84397321D01*
X118964136Y-84437691D01*
X118944255Y-84474887D01*
X118917495Y-84507495D01*
X118884887Y-84534255D01*
X118847691Y-84554136D01*
X118807321Y-84566383D01*
X118760441Y-84571000D01*
X117949559Y-84571000D01*
X117902679Y-84566383D01*
X117862309Y-84554136D01*
X117825113Y-84534255D01*
X117792505Y-84507495D01*
X117765745Y-84474887D01*
X117745864Y-84437691D01*
X117733617Y-84397321D01*
X117729000Y-84350441D01*
X117729000Y-83289559D01*
X117733617Y-83242679D01*
X117745864Y-83202309D01*
X117765745Y-83165113D01*
X117792505Y-83132505D01*
X117825113Y-83105745D01*
X117862309Y-83085864D01*
X117902679Y-83073617D01*
X117949559Y-83069000D01*
X118760441Y-83069000D01*
X118807321Y-83073617D01*
X118807321Y-83073617D01*
G37*
G36*
X123955476Y-81759261D02*
G01*
X124058645Y-81779782D01*
X124137170Y-81812309D01*
X124204416Y-81840163D01*
X124335608Y-81927822D01*
X124447178Y-82039392D01*
X124534837Y-82170584D01*
X124559847Y-82230964D01*
X124595218Y-82316355D01*
X124611209Y-82396747D01*
X124626000Y-82471108D01*
X124626000Y-82628892D01*
X124615739Y-82680476D01*
X124595218Y-82783645D01*
X124584285Y-82810038D01*
X124534837Y-82929416D01*
X124491008Y-82995012D01*
X124447179Y-83060607D01*
X124335607Y-83172179D01*
X124270012Y-83216008D01*
X124204416Y-83259837D01*
X124144036Y-83284847D01*
X124058645Y-83320218D01*
X123955476Y-83340739D01*
X123903892Y-83351000D01*
X123746108Y-83351000D01*
X123694524Y-83340739D01*
X123591355Y-83320218D01*
X123505964Y-83284847D01*
X123445584Y-83259837D01*
X123379988Y-83216008D01*
X123314393Y-83172179D01*
X123202821Y-83060607D01*
X123158992Y-82995012D01*
X123115163Y-82929416D01*
X123065715Y-82810038D01*
X123054782Y-82783645D01*
X123034261Y-82680476D01*
X123024000Y-82628892D01*
X123024000Y-82471108D01*
X123038791Y-82396747D01*
X123054782Y-82316355D01*
X123090153Y-82230964D01*
X123115163Y-82170584D01*
X123202822Y-82039392D01*
X123314392Y-81927822D01*
X123445584Y-81840163D01*
X123512830Y-81812309D01*
X123591355Y-81779782D01*
X123694524Y-81759261D01*
X123746108Y-81749000D01*
X123903892Y-81749000D01*
X123955476Y-81759261D01*
X123955476Y-81759261D01*
G37*
G36*
X113607321Y-81683617D02*
G01*
X113647691Y-81695864D01*
X113684887Y-81715745D01*
X113717495Y-81742505D01*
X113744255Y-81775113D01*
X113764136Y-81812309D01*
X113776383Y-81852679D01*
X113781000Y-81899559D01*
X113781000Y-82710441D01*
X113776383Y-82757321D01*
X113764136Y-82797691D01*
X113744255Y-82834887D01*
X113717495Y-82867495D01*
X113684887Y-82894255D01*
X113647691Y-82914136D01*
X113607321Y-82926383D01*
X113560441Y-82931000D01*
X112499559Y-82931000D01*
X112452679Y-82926383D01*
X112412309Y-82914136D01*
X112375113Y-82894255D01*
X112342505Y-82867495D01*
X112315745Y-82834887D01*
X112295864Y-82797691D01*
X112283617Y-82757321D01*
X112279000Y-82710441D01*
X112279000Y-81899559D01*
X112283617Y-81852679D01*
X112295864Y-81812309D01*
X112315745Y-81775113D01*
X112342505Y-81742505D01*
X112375113Y-81715745D01*
X112412309Y-81695864D01*
X112452679Y-81683617D01*
X112499559Y-81679000D01*
X113560441Y-81679000D01*
X113607321Y-81683617D01*
X113607321Y-81683617D01*
G37*
G36*
X107892321Y-81683617D02*
G01*
X107932691Y-81695864D01*
X107969887Y-81715745D01*
X108002495Y-81742505D01*
X108029255Y-81775113D01*
X108049136Y-81812309D01*
X108061383Y-81852679D01*
X108066000Y-81899559D01*
X108066000Y-82710441D01*
X108061383Y-82757321D01*
X108049136Y-82797691D01*
X108029255Y-82834887D01*
X108002495Y-82867495D01*
X107969887Y-82894255D01*
X107932691Y-82914136D01*
X107892321Y-82926383D01*
X107845441Y-82931000D01*
X106784559Y-82931000D01*
X106737679Y-82926383D01*
X106697309Y-82914136D01*
X106660113Y-82894255D01*
X106627505Y-82867495D01*
X106600745Y-82834887D01*
X106580864Y-82797691D01*
X106568617Y-82757321D01*
X106564000Y-82710441D01*
X106564000Y-81899559D01*
X106568617Y-81852679D01*
X106580864Y-81812309D01*
X106600745Y-81775113D01*
X106627505Y-81742505D01*
X106660113Y-81715745D01*
X106697309Y-81695864D01*
X106737679Y-81683617D01*
X106784559Y-81679000D01*
X107845441Y-81679000D01*
X107892321Y-81683617D01*
X107892321Y-81683617D01*
G37*
G36*
X116351136Y-81433253D02*
G01*
X116351138Y-81433254D01*
X116351139Y-81433254D01*
X116442314Y-81471021D01*
X116524368Y-81525847D01*
X116594153Y-81595632D01*
X116648979Y-81677686D01*
X116682545Y-81758718D01*
X116686747Y-81768864D01*
X116706000Y-81865656D01*
X116706000Y-81964342D01*
X116686746Y-82061139D01*
X116648979Y-82152314D01*
X116594153Y-82234368D01*
X116524368Y-82304153D01*
X116442314Y-82358979D01*
X116351139Y-82396746D01*
X116351138Y-82396746D01*
X116351136Y-82396747D01*
X116254344Y-82416000D01*
X116155656Y-82416000D01*
X116058864Y-82396747D01*
X116058862Y-82396746D01*
X116058861Y-82396746D01*
X115967686Y-82358979D01*
X115885632Y-82304153D01*
X115815847Y-82234368D01*
X115761021Y-82152314D01*
X115723254Y-82061139D01*
X115704000Y-81964342D01*
X115704000Y-81865656D01*
X115723253Y-81768864D01*
X115727456Y-81758718D01*
X115761021Y-81677686D01*
X115815847Y-81595632D01*
X115885632Y-81525847D01*
X115967686Y-81471021D01*
X116058861Y-81433254D01*
X116058862Y-81433254D01*
X116058864Y-81433253D01*
X116155656Y-81414000D01*
X116254344Y-81414000D01*
X116351136Y-81433253D01*
X116351136Y-81433253D01*
G37*
G36*
X118807321Y-79898617D02*
G01*
X118847691Y-79910864D01*
X118884887Y-79930745D01*
X118917495Y-79957505D01*
X118944255Y-79990113D01*
X118964136Y-80027309D01*
X118976383Y-80067679D01*
X118981000Y-80114559D01*
X118981000Y-81175441D01*
X118976383Y-81222321D01*
X118964136Y-81262691D01*
X118944255Y-81299887D01*
X118917495Y-81332495D01*
X118884887Y-81359255D01*
X118847691Y-81379136D01*
X118807321Y-81391383D01*
X118760441Y-81396000D01*
X117949559Y-81396000D01*
X117902679Y-81391383D01*
X117862309Y-81379136D01*
X117825113Y-81359255D01*
X117792505Y-81332495D01*
X117765745Y-81299887D01*
X117745864Y-81262691D01*
X117733617Y-81222321D01*
X117729000Y-81175441D01*
X117729000Y-80114559D01*
X117733617Y-80067679D01*
X117745864Y-80027309D01*
X117765745Y-79990113D01*
X117792505Y-79957505D01*
X117825113Y-79930745D01*
X117862309Y-79910864D01*
X117902679Y-79898617D01*
X117949559Y-79894000D01*
X118760441Y-79894000D01*
X118807321Y-79898617D01*
X118807321Y-79898617D01*
G37*
G36*
X120857321Y-79898617D02*
G01*
X120897691Y-79910864D01*
X120934887Y-79930745D01*
X120967495Y-79957505D01*
X120994255Y-79990113D01*
X121014136Y-80027309D01*
X121026383Y-80067679D01*
X121031000Y-80114559D01*
X121031000Y-81175441D01*
X121026383Y-81222321D01*
X121014136Y-81262691D01*
X120994255Y-81299887D01*
X120967495Y-81332495D01*
X120934887Y-81359255D01*
X120897691Y-81379136D01*
X120857321Y-81391383D01*
X120810441Y-81396000D01*
X119999559Y-81396000D01*
X119952679Y-81391383D01*
X119912309Y-81379136D01*
X119875113Y-81359255D01*
X119842505Y-81332495D01*
X119815745Y-81299887D01*
X119795864Y-81262691D01*
X119783617Y-81222321D01*
X119779000Y-81175441D01*
X119779000Y-80114559D01*
X119783617Y-80067679D01*
X119795864Y-80027309D01*
X119815745Y-79990113D01*
X119842505Y-79957505D01*
X119875113Y-79930745D01*
X119912309Y-79910864D01*
X119952679Y-79898617D01*
X119999559Y-79894000D01*
X120810441Y-79894000D01*
X120857321Y-79898617D01*
X120857321Y-79898617D01*
G37*
G36*
X113607321Y-79633617D02*
G01*
X113647691Y-79645864D01*
X113684887Y-79665745D01*
X113717495Y-79692505D01*
X113744255Y-79725113D01*
X113764136Y-79762309D01*
X113776383Y-79802679D01*
X113781000Y-79849559D01*
X113781000Y-80660441D01*
X113776383Y-80707321D01*
X113764136Y-80747691D01*
X113744255Y-80784887D01*
X113717495Y-80817495D01*
X113684887Y-80844255D01*
X113647691Y-80864136D01*
X113607321Y-80876383D01*
X113560441Y-80881000D01*
X112499559Y-80881000D01*
X112452679Y-80876383D01*
X112412309Y-80864136D01*
X112375113Y-80844255D01*
X112342505Y-80817495D01*
X112315745Y-80784887D01*
X112295864Y-80747691D01*
X112283617Y-80707321D01*
X112279000Y-80660441D01*
X112279000Y-79849559D01*
X112283617Y-79802679D01*
X112295864Y-79762309D01*
X112315745Y-79725113D01*
X112342505Y-79692505D01*
X112375113Y-79665745D01*
X112412309Y-79645864D01*
X112452679Y-79633617D01*
X112499559Y-79629000D01*
X113560441Y-79629000D01*
X113607321Y-79633617D01*
X113607321Y-79633617D01*
G37*
G36*
X107892321Y-79633617D02*
G01*
X107932691Y-79645864D01*
X107969887Y-79665745D01*
X108002495Y-79692505D01*
X108029255Y-79725113D01*
X108049136Y-79762309D01*
X108061383Y-79802679D01*
X108066000Y-79849559D01*
X108066000Y-80660441D01*
X108061383Y-80707321D01*
X108049136Y-80747691D01*
X108029255Y-80784887D01*
X108002495Y-80817495D01*
X107969887Y-80844255D01*
X107932691Y-80864136D01*
X107892321Y-80876383D01*
X107845441Y-80881000D01*
X106784559Y-80881000D01*
X106737679Y-80876383D01*
X106697309Y-80864136D01*
X106660113Y-80844255D01*
X106627505Y-80817495D01*
X106600745Y-80784887D01*
X106580864Y-80747691D01*
X106568617Y-80707321D01*
X106564000Y-80660441D01*
X106564000Y-79849559D01*
X106568617Y-79802679D01*
X106580864Y-79762309D01*
X106600745Y-79725113D01*
X106627505Y-79692505D01*
X106660113Y-79665745D01*
X106697309Y-79645864D01*
X106737679Y-79633617D01*
X106784559Y-79629000D01*
X107845441Y-79629000D01*
X107892321Y-79633617D01*
X107892321Y-79633617D01*
G37*
G36*
X129670476Y-77949261D02*
G01*
X129773645Y-77969782D01*
X129859036Y-78005153D01*
X129919416Y-78030163D01*
X130050608Y-78117822D01*
X130162178Y-78229392D01*
X130249837Y-78360584D01*
X130274847Y-78420964D01*
X130310218Y-78506355D01*
X130341000Y-78661109D01*
X130341000Y-78818891D01*
X130310218Y-78973645D01*
X130274847Y-79059036D01*
X130249837Y-79119416D01*
X130162178Y-79250608D01*
X130050608Y-79362178D01*
X129919416Y-79449837D01*
X129859036Y-79474847D01*
X129773645Y-79510218D01*
X129670476Y-79530739D01*
X129618892Y-79541000D01*
X129461108Y-79541000D01*
X129409524Y-79530739D01*
X129306355Y-79510218D01*
X129220964Y-79474847D01*
X129160584Y-79449837D01*
X129029392Y-79362178D01*
X128917822Y-79250608D01*
X128830163Y-79119416D01*
X128805153Y-79059036D01*
X128769782Y-78973645D01*
X128739000Y-78818891D01*
X128739000Y-78661109D01*
X128769782Y-78506355D01*
X128805153Y-78420964D01*
X128830163Y-78360584D01*
X128917822Y-78229392D01*
X129029392Y-78117822D01*
X129160584Y-78030163D01*
X129220964Y-78005153D01*
X129306355Y-77969782D01*
X129409524Y-77949261D01*
X129461108Y-77939000D01*
X129618892Y-77939000D01*
X129670476Y-77949261D01*
X129670476Y-77949261D01*
G37*
M02*
