G04 #@! TF.GenerationSoftware,KiCad,Pcbnew,(5.1.2)-1*
G04 #@! TF.CreationDate,2019-10-30T10:00:19+01:00*
G04 #@! TF.ProjectId,temalab_comparator,74656d61-6c61-4625-9f63-6f6d70617261,rev?*
G04 #@! TF.SameCoordinates,Original*
G04 #@! TF.FileFunction,Legend,Top*
G04 #@! TF.FilePolarity,Positive*
%FSLAX46Y46*%
G04 Gerber Fmt 4.6, Leading zero omitted, Abs format (unit mm)*
G04 Created by KiCad (PCBNEW (5.1.2)-1) date 2019-10-30 10:00:19*
%MOMM*%
%LPD*%
G04 APERTURE LIST*
%ADD10C,0.150000*%
%ADD11C,0.127000*%
%ADD12C,0.120000*%
%ADD13C,0.100000*%
%ADD14C,0.750000*%
%ADD15R,1.050000X0.750000*%
%ADD16C,1.252000*%
%ADD17O,1.802000X1.802000*%
%ADD18R,1.802000X1.802000*%
%ADD19R,1.702000X1.702000*%
%ADD20O,1.702000X1.702000*%
%ADD21C,1.602000*%
%ADD22C,1.002000*%
G04 APERTURE END LIST*
D10*
X147640333Y-129617000D02*
X147740333Y-129650333D01*
X147773666Y-129683666D01*
X147807000Y-129750333D01*
X147807000Y-129850333D01*
X147773666Y-129917000D01*
X147740333Y-129950333D01*
X147673666Y-129983666D01*
X147407000Y-129983666D01*
X147407000Y-129283666D01*
X147640333Y-129283666D01*
X147707000Y-129317000D01*
X147740333Y-129350333D01*
X147773666Y-129417000D01*
X147773666Y-129483666D01*
X147740333Y-129550333D01*
X147707000Y-129583666D01*
X147640333Y-129617000D01*
X147407000Y-129617000D01*
X148107000Y-129983666D02*
X148107000Y-129283666D01*
X148340333Y-129783666D01*
X148573666Y-129283666D01*
X148573666Y-129983666D01*
X149407000Y-129350333D02*
X149440333Y-129317000D01*
X149507000Y-129283666D01*
X149673666Y-129283666D01*
X149740333Y-129317000D01*
X149773666Y-129350333D01*
X149807000Y-129417000D01*
X149807000Y-129483666D01*
X149773666Y-129583666D01*
X149373666Y-129983666D01*
X149807000Y-129983666D01*
X150240333Y-129283666D02*
X150307000Y-129283666D01*
X150373666Y-129317000D01*
X150407000Y-129350333D01*
X150440333Y-129417000D01*
X150473666Y-129550333D01*
X150473666Y-129717000D01*
X150440333Y-129850333D01*
X150407000Y-129917000D01*
X150373666Y-129950333D01*
X150307000Y-129983666D01*
X150240333Y-129983666D01*
X150173666Y-129950333D01*
X150140333Y-129917000D01*
X150107000Y-129850333D01*
X150073666Y-129717000D01*
X150073666Y-129550333D01*
X150107000Y-129417000D01*
X150140333Y-129350333D01*
X150173666Y-129317000D01*
X150240333Y-129283666D01*
X151140333Y-129983666D02*
X150740333Y-129983666D01*
X150940333Y-129983666D02*
X150940333Y-129283666D01*
X150873666Y-129383666D01*
X150807000Y-129450333D01*
X150740333Y-129483666D01*
X151473666Y-129983666D02*
X151607000Y-129983666D01*
X151673666Y-129950333D01*
X151707000Y-129917000D01*
X151773666Y-129817000D01*
X151807000Y-129683666D01*
X151807000Y-129417000D01*
X151773666Y-129350333D01*
X151740333Y-129317000D01*
X151673666Y-129283666D01*
X151540333Y-129283666D01*
X151473666Y-129317000D01*
X151440333Y-129350333D01*
X151407000Y-129417000D01*
X151407000Y-129583666D01*
X151440333Y-129650333D01*
X151473666Y-129683666D01*
X151540333Y-129717000D01*
X151673666Y-129717000D01*
X151740333Y-129683666D01*
X151773666Y-129650333D01*
X151807000Y-129583666D01*
X152107000Y-129917000D02*
X152140333Y-129950333D01*
X152107000Y-129983666D01*
X152073666Y-129950333D01*
X152107000Y-129917000D01*
X152107000Y-129983666D01*
X152807000Y-129983666D02*
X152407000Y-129983666D01*
X152607000Y-129983666D02*
X152607000Y-129283666D01*
X152540333Y-129383666D01*
X152473666Y-129450333D01*
X152407000Y-129483666D01*
X153240333Y-129283666D02*
X153307000Y-129283666D01*
X153373666Y-129317000D01*
X153407000Y-129350333D01*
X153440333Y-129417000D01*
X153473666Y-129550333D01*
X153473666Y-129717000D01*
X153440333Y-129850333D01*
X153407000Y-129917000D01*
X153373666Y-129950333D01*
X153307000Y-129983666D01*
X153240333Y-129983666D01*
X153173666Y-129950333D01*
X153140333Y-129917000D01*
X153107000Y-129850333D01*
X153073666Y-129717000D01*
X153073666Y-129550333D01*
X153107000Y-129417000D01*
X153140333Y-129350333D01*
X153173666Y-129317000D01*
X153240333Y-129283666D01*
X153773666Y-129917000D02*
X153807000Y-129950333D01*
X153773666Y-129983666D01*
X153740333Y-129950333D01*
X153773666Y-129917000D01*
X153773666Y-129983666D01*
X154073666Y-129350333D02*
X154107000Y-129317000D01*
X154173666Y-129283666D01*
X154340333Y-129283666D01*
X154407000Y-129317000D01*
X154440333Y-129350333D01*
X154473666Y-129417000D01*
X154473666Y-129483666D01*
X154440333Y-129583666D01*
X154040333Y-129983666D01*
X154473666Y-129983666D01*
X155107000Y-129283666D02*
X154773666Y-129283666D01*
X154740333Y-129617000D01*
X154773666Y-129583666D01*
X154840333Y-129550333D01*
X155007000Y-129550333D01*
X155073666Y-129583666D01*
X155107000Y-129617000D01*
X155140333Y-129683666D01*
X155140333Y-129850333D01*
X155107000Y-129917000D01*
X155073666Y-129950333D01*
X155007000Y-129983666D01*
X154840333Y-129983666D01*
X154773666Y-129950333D01*
X154740333Y-129917000D01*
X142340000Y-78590000D02*
X142340000Y-79056666D01*
X142173333Y-78323333D02*
X142006666Y-78823333D01*
X142440000Y-78823333D01*
X143640000Y-78990000D02*
X143606666Y-79023333D01*
X143506666Y-79056666D01*
X143440000Y-79056666D01*
X143340000Y-79023333D01*
X143273333Y-78956666D01*
X143240000Y-78890000D01*
X143206666Y-78756666D01*
X143206666Y-78656666D01*
X143240000Y-78523333D01*
X143273333Y-78456666D01*
X143340000Y-78390000D01*
X143440000Y-78356666D01*
X143506666Y-78356666D01*
X143606666Y-78390000D01*
X143640000Y-78423333D01*
X143940000Y-79056666D02*
X143940000Y-78356666D01*
X144240000Y-79056666D02*
X144240000Y-78690000D01*
X144206666Y-78623333D01*
X144140000Y-78590000D01*
X144040000Y-78590000D01*
X143973333Y-78623333D01*
X143940000Y-78656666D01*
X144873333Y-79056666D02*
X144873333Y-78690000D01*
X144840000Y-78623333D01*
X144773333Y-78590000D01*
X144640000Y-78590000D01*
X144573333Y-78623333D01*
X144873333Y-79023333D02*
X144806666Y-79056666D01*
X144640000Y-79056666D01*
X144573333Y-79023333D01*
X144540000Y-78956666D01*
X144540000Y-78890000D01*
X144573333Y-78823333D01*
X144640000Y-78790000D01*
X144806666Y-78790000D01*
X144873333Y-78756666D01*
X145206666Y-78590000D02*
X145206666Y-79056666D01*
X145206666Y-78656666D02*
X145240000Y-78623333D01*
X145306666Y-78590000D01*
X145406666Y-78590000D01*
X145473333Y-78623333D01*
X145506666Y-78690000D01*
X145506666Y-79056666D01*
X145840000Y-78590000D02*
X145840000Y-79056666D01*
X145840000Y-78656666D02*
X145873333Y-78623333D01*
X145940000Y-78590000D01*
X146040000Y-78590000D01*
X146106666Y-78623333D01*
X146140000Y-78690000D01*
X146140000Y-79056666D01*
X146740000Y-79023333D02*
X146673333Y-79056666D01*
X146540000Y-79056666D01*
X146473333Y-79023333D01*
X146440000Y-78956666D01*
X146440000Y-78690000D01*
X146473333Y-78623333D01*
X146540000Y-78590000D01*
X146673333Y-78590000D01*
X146740000Y-78623333D01*
X146773333Y-78690000D01*
X146773333Y-78756666D01*
X146440000Y-78823333D01*
X147173333Y-79056666D02*
X147106666Y-79023333D01*
X147073333Y-78956666D01*
X147073333Y-78356666D01*
X148073333Y-79056666D02*
X148006666Y-79023333D01*
X147973333Y-78956666D01*
X147973333Y-78356666D01*
X148440000Y-79056666D02*
X148373333Y-79023333D01*
X148340000Y-78990000D01*
X148306666Y-78923333D01*
X148306666Y-78723333D01*
X148340000Y-78656666D01*
X148373333Y-78623333D01*
X148440000Y-78590000D01*
X148540000Y-78590000D01*
X148606666Y-78623333D01*
X148640000Y-78656666D01*
X148673333Y-78723333D01*
X148673333Y-78923333D01*
X148640000Y-78990000D01*
X148606666Y-79023333D01*
X148540000Y-79056666D01*
X148440000Y-79056666D01*
X149273333Y-78590000D02*
X149273333Y-79156666D01*
X149240000Y-79223333D01*
X149206666Y-79256666D01*
X149140000Y-79290000D01*
X149040000Y-79290000D01*
X148973333Y-79256666D01*
X149273333Y-79023333D02*
X149206666Y-79056666D01*
X149073333Y-79056666D01*
X149006666Y-79023333D01*
X148973333Y-78990000D01*
X148940000Y-78923333D01*
X148940000Y-78723333D01*
X148973333Y-78656666D01*
X149006666Y-78623333D01*
X149073333Y-78590000D01*
X149206666Y-78590000D01*
X149273333Y-78623333D01*
X149606666Y-79056666D02*
X149606666Y-78590000D01*
X149606666Y-78356666D02*
X149573333Y-78390000D01*
X149606666Y-78423333D01*
X149640000Y-78390000D01*
X149606666Y-78356666D01*
X149606666Y-78423333D01*
X150240000Y-79023333D02*
X150173333Y-79056666D01*
X150040000Y-79056666D01*
X149973333Y-79023333D01*
X149940000Y-78990000D01*
X149906666Y-78923333D01*
X149906666Y-78723333D01*
X149940000Y-78656666D01*
X149973333Y-78623333D01*
X150040000Y-78590000D01*
X150173333Y-78590000D01*
X150240000Y-78623333D01*
X151373333Y-79056666D02*
X151373333Y-78690000D01*
X151340000Y-78623333D01*
X151273333Y-78590000D01*
X151140000Y-78590000D01*
X151073333Y-78623333D01*
X151373333Y-79023333D02*
X151306666Y-79056666D01*
X151140000Y-79056666D01*
X151073333Y-79023333D01*
X151040000Y-78956666D01*
X151040000Y-78890000D01*
X151073333Y-78823333D01*
X151140000Y-78790000D01*
X151306666Y-78790000D01*
X151373333Y-78756666D01*
X151706666Y-78590000D02*
X151706666Y-79056666D01*
X151706666Y-78656666D02*
X151740000Y-78623333D01*
X151806666Y-78590000D01*
X151906666Y-78590000D01*
X151973333Y-78623333D01*
X152006666Y-78690000D01*
X152006666Y-79056666D01*
X152640000Y-79056666D02*
X152640000Y-78690000D01*
X152606666Y-78623333D01*
X152540000Y-78590000D01*
X152406666Y-78590000D01*
X152340000Y-78623333D01*
X152640000Y-79023333D02*
X152573333Y-79056666D01*
X152406666Y-79056666D01*
X152340000Y-79023333D01*
X152306666Y-78956666D01*
X152306666Y-78890000D01*
X152340000Y-78823333D01*
X152406666Y-78790000D01*
X152573333Y-78790000D01*
X152640000Y-78756666D01*
X153073333Y-79056666D02*
X153006666Y-79023333D01*
X152973333Y-78956666D01*
X152973333Y-78356666D01*
X153273333Y-78590000D02*
X153440000Y-79056666D01*
X153606666Y-78590000D02*
X153440000Y-79056666D01*
X153373333Y-79223333D01*
X153340000Y-79256666D01*
X153273333Y-79290000D01*
X153806666Y-78590000D02*
X154173333Y-78590000D01*
X153806666Y-79056666D01*
X154173333Y-79056666D01*
X154706666Y-79023333D02*
X154640000Y-79056666D01*
X154506666Y-79056666D01*
X154440000Y-79023333D01*
X154406666Y-78956666D01*
X154406666Y-78690000D01*
X154440000Y-78623333D01*
X154506666Y-78590000D01*
X154640000Y-78590000D01*
X154706666Y-78623333D01*
X154740000Y-78690000D01*
X154740000Y-78756666D01*
X154406666Y-78823333D01*
X155040000Y-79056666D02*
X155040000Y-78590000D01*
X155040000Y-78723333D02*
X155073333Y-78656666D01*
X155106666Y-78623333D01*
X155173333Y-78590000D01*
X155240000Y-78590000D01*
D11*
X103752952Y-117856000D02*
X103704571Y-117831809D01*
X103632000Y-117831809D01*
X103559428Y-117856000D01*
X103511047Y-117904380D01*
X103486857Y-117952761D01*
X103462666Y-118049523D01*
X103462666Y-118122095D01*
X103486857Y-118218857D01*
X103511047Y-118267238D01*
X103559428Y-118315619D01*
X103632000Y-118339809D01*
X103680380Y-118339809D01*
X103752952Y-118315619D01*
X103777142Y-118291428D01*
X103777142Y-118122095D01*
X103680380Y-118122095D01*
X103994857Y-118339809D02*
X103994857Y-117831809D01*
X104285142Y-118339809D01*
X104285142Y-117831809D01*
X104527047Y-118339809D02*
X104527047Y-117831809D01*
X104648000Y-117831809D01*
X104720571Y-117856000D01*
X104768952Y-117904380D01*
X104793142Y-117952761D01*
X104817333Y-118049523D01*
X104817333Y-118122095D01*
X104793142Y-118218857D01*
X104768952Y-118267238D01*
X104720571Y-118315619D01*
X104648000Y-118339809D01*
X104527047Y-118339809D01*
X155187952Y-98806000D02*
X155139571Y-98781809D01*
X155067000Y-98781809D01*
X154994428Y-98806000D01*
X154946047Y-98854380D01*
X154921857Y-98902761D01*
X154897666Y-98999523D01*
X154897666Y-99072095D01*
X154921857Y-99168857D01*
X154946047Y-99217238D01*
X154994428Y-99265619D01*
X155067000Y-99289809D01*
X155115380Y-99289809D01*
X155187952Y-99265619D01*
X155212142Y-99241428D01*
X155212142Y-99072095D01*
X155115380Y-99072095D01*
X155429857Y-99289809D02*
X155429857Y-98781809D01*
X155720142Y-99289809D01*
X155720142Y-98781809D01*
X155962047Y-99289809D02*
X155962047Y-98781809D01*
X156083000Y-98781809D01*
X156155571Y-98806000D01*
X156203952Y-98854380D01*
X156228142Y-98902761D01*
X156252333Y-98999523D01*
X156252333Y-99072095D01*
X156228142Y-99168857D01*
X156203952Y-99217238D01*
X156155571Y-99265619D01*
X156083000Y-99289809D01*
X155962047Y-99289809D01*
X155224238Y-109401428D02*
X155200047Y-109425619D01*
X155127476Y-109449809D01*
X155079095Y-109449809D01*
X155006523Y-109425619D01*
X154958142Y-109377238D01*
X154933952Y-109328857D01*
X154909761Y-109232095D01*
X154909761Y-109159523D01*
X154933952Y-109062761D01*
X154958142Y-109014380D01*
X155006523Y-108966000D01*
X155079095Y-108941809D01*
X155127476Y-108941809D01*
X155200047Y-108966000D01*
X155224238Y-108990190D01*
X155441952Y-109449809D02*
X155441952Y-108941809D01*
X155441952Y-109183714D02*
X155732238Y-109183714D01*
X155732238Y-109449809D02*
X155732238Y-108941809D01*
X156191857Y-109111142D02*
X156191857Y-109449809D01*
X156070904Y-108917619D02*
X155949952Y-109280476D01*
X156264428Y-109280476D01*
X155224238Y-106861428D02*
X155200047Y-106885619D01*
X155127476Y-106909809D01*
X155079095Y-106909809D01*
X155006523Y-106885619D01*
X154958142Y-106837238D01*
X154933952Y-106788857D01*
X154909761Y-106692095D01*
X154909761Y-106619523D01*
X154933952Y-106522761D01*
X154958142Y-106474380D01*
X155006523Y-106426000D01*
X155079095Y-106401809D01*
X155127476Y-106401809D01*
X155200047Y-106426000D01*
X155224238Y-106450190D01*
X155441952Y-106909809D02*
X155441952Y-106401809D01*
X155441952Y-106643714D02*
X155732238Y-106643714D01*
X155732238Y-106909809D02*
X155732238Y-106401809D01*
X155925761Y-106401809D02*
X156240238Y-106401809D01*
X156070904Y-106595333D01*
X156143476Y-106595333D01*
X156191857Y-106619523D01*
X156216047Y-106643714D01*
X156240238Y-106692095D01*
X156240238Y-106813047D01*
X156216047Y-106861428D01*
X156191857Y-106885619D01*
X156143476Y-106909809D01*
X155998333Y-106909809D01*
X155949952Y-106885619D01*
X155925761Y-106861428D01*
X155224238Y-104321428D02*
X155200047Y-104345619D01*
X155127476Y-104369809D01*
X155079095Y-104369809D01*
X155006523Y-104345619D01*
X154958142Y-104297238D01*
X154933952Y-104248857D01*
X154909761Y-104152095D01*
X154909761Y-104079523D01*
X154933952Y-103982761D01*
X154958142Y-103934380D01*
X155006523Y-103886000D01*
X155079095Y-103861809D01*
X155127476Y-103861809D01*
X155200047Y-103886000D01*
X155224238Y-103910190D01*
X155441952Y-104369809D02*
X155441952Y-103861809D01*
X155441952Y-104103714D02*
X155732238Y-104103714D01*
X155732238Y-104369809D02*
X155732238Y-103861809D01*
X155949952Y-103910190D02*
X155974142Y-103886000D01*
X156022523Y-103861809D01*
X156143476Y-103861809D01*
X156191857Y-103886000D01*
X156216047Y-103910190D01*
X156240238Y-103958571D01*
X156240238Y-104006952D01*
X156216047Y-104079523D01*
X155925761Y-104369809D01*
X156240238Y-104369809D01*
X155224238Y-101781428D02*
X155200047Y-101805619D01*
X155127476Y-101829809D01*
X155079095Y-101829809D01*
X155006523Y-101805619D01*
X154958142Y-101757238D01*
X154933952Y-101708857D01*
X154909761Y-101612095D01*
X154909761Y-101539523D01*
X154933952Y-101442761D01*
X154958142Y-101394380D01*
X155006523Y-101346000D01*
X155079095Y-101321809D01*
X155127476Y-101321809D01*
X155200047Y-101346000D01*
X155224238Y-101370190D01*
X155441952Y-101829809D02*
X155441952Y-101321809D01*
X155441952Y-101563714D02*
X155732238Y-101563714D01*
X155732238Y-101829809D02*
X155732238Y-101321809D01*
X156240238Y-101829809D02*
X155949952Y-101829809D01*
X156095095Y-101829809D02*
X156095095Y-101321809D01*
X156046714Y-101394380D01*
X155998333Y-101442761D01*
X155949952Y-101466952D01*
D12*
X146215000Y-103175000D02*
X143915000Y-103175000D01*
X144615000Y-106375000D02*
X146215000Y-106375000D01*
X121658748Y-111050000D02*
X122181252Y-111050000D01*
X121658748Y-112470000D02*
X122181252Y-112470000D01*
X108275000Y-124415000D02*
X108275000Y-121555000D01*
X106355000Y-124415000D02*
X108275000Y-124415000D01*
X106355000Y-121555000D02*
X106355000Y-124415000D01*
X106355000Y-83865000D02*
X106355000Y-86725000D01*
X108275000Y-83865000D02*
X106355000Y-83865000D01*
X108275000Y-86725000D02*
X108275000Y-83865000D01*
X112070000Y-83865000D02*
X112070000Y-86725000D01*
X113990000Y-83865000D02*
X112070000Y-83865000D01*
X113990000Y-86725000D02*
X113990000Y-83865000D01*
X153035000Y-97730000D02*
X154365000Y-97730000D01*
X154365000Y-97730000D02*
X154365000Y-99060000D01*
X154365000Y-100330000D02*
X154365000Y-110550000D01*
X151705000Y-110550000D02*
X154365000Y-110550000D01*
X151705000Y-100330000D02*
X151705000Y-110550000D01*
X151705000Y-100330000D02*
X154365000Y-100330000D01*
X102680000Y-92350000D02*
X103090000Y-92350000D01*
X105190000Y-92350000D02*
X105570000Y-92350000D01*
X102680000Y-93070000D02*
X103090000Y-93070000D01*
X105190000Y-93070000D02*
X105570000Y-93070000D01*
X102680000Y-94890000D02*
X103090000Y-94890000D01*
X105190000Y-94890000D02*
X105630000Y-94890000D01*
X102680000Y-95610000D02*
X103090000Y-95610000D01*
X105190000Y-95610000D02*
X105630000Y-95610000D01*
X102680000Y-97430000D02*
X103090000Y-97430000D01*
X105190000Y-97430000D02*
X105630000Y-97430000D01*
X102680000Y-98150000D02*
X103090000Y-98150000D01*
X105190000Y-98150000D02*
X105630000Y-98150000D01*
X102680000Y-99970000D02*
X103090000Y-99970000D01*
X105190000Y-99970000D02*
X105630000Y-99970000D01*
X102680000Y-100690000D02*
X103090000Y-100690000D01*
X105190000Y-100690000D02*
X105630000Y-100690000D01*
X102680000Y-102510000D02*
X103090000Y-102510000D01*
X105190000Y-102510000D02*
X105630000Y-102510000D01*
X102680000Y-103230000D02*
X103090000Y-103230000D01*
X105190000Y-103230000D02*
X105630000Y-103230000D01*
X102680000Y-105050000D02*
X103090000Y-105050000D01*
X105190000Y-105050000D02*
X105630000Y-105050000D01*
X102680000Y-105770000D02*
X103090000Y-105770000D01*
X105190000Y-105770000D02*
X105630000Y-105770000D01*
X102680000Y-107590000D02*
X103090000Y-107590000D01*
X105190000Y-107590000D02*
X105630000Y-107590000D01*
X102680000Y-108310000D02*
X103090000Y-108310000D01*
X105190000Y-108310000D02*
X105630000Y-108310000D01*
X102680000Y-110130000D02*
X103090000Y-110130000D01*
X105190000Y-110130000D02*
X105630000Y-110130000D01*
X102680000Y-110850000D02*
X103090000Y-110850000D01*
X105190000Y-110850000D02*
X105630000Y-110850000D01*
X102680000Y-112670000D02*
X103090000Y-112670000D01*
X105190000Y-112670000D02*
X105630000Y-112670000D01*
X102680000Y-113390000D02*
X103090000Y-113390000D01*
X105190000Y-113390000D02*
X105630000Y-113390000D01*
X102680000Y-115210000D02*
X103090000Y-115210000D01*
X105190000Y-115210000D02*
X105630000Y-115210000D01*
X102680000Y-115930000D02*
X103090000Y-115930000D01*
X105190000Y-115930000D02*
X105630000Y-115930000D01*
X94050000Y-96520000D02*
X102680000Y-96520000D01*
X94050000Y-99060000D02*
X102680000Y-99060000D01*
X94050000Y-101600000D02*
X102680000Y-101600000D01*
X94050000Y-104140000D02*
X102680000Y-104140000D01*
X94050000Y-106680000D02*
X102680000Y-106680000D01*
X94050000Y-109220000D02*
X102680000Y-109220000D01*
X94050000Y-111760000D02*
X102680000Y-111760000D01*
X94050000Y-114300000D02*
X102680000Y-114300000D01*
X94050000Y-91380000D02*
X102680000Y-91380000D01*
X102680000Y-91380000D02*
X102680000Y-116900000D01*
X94050000Y-116900000D02*
X102680000Y-116900000D01*
X94050000Y-91380000D02*
X94050000Y-116900000D01*
X107790000Y-91380000D02*
X107790000Y-92710000D01*
X106680000Y-91380000D02*
X107790000Y-91380000D01*
X117346252Y-105970000D02*
X116823748Y-105970000D01*
X117346252Y-107390000D02*
X116823748Y-107390000D01*
X118820000Y-100068748D02*
X118820000Y-100591252D01*
X117400000Y-100068748D02*
X117400000Y-100591252D01*
X114860000Y-115196252D02*
X114860000Y-114673748D01*
X116280000Y-115196252D02*
X116280000Y-114673748D01*
X117346252Y-108510000D02*
X116823748Y-108510000D01*
X117346252Y-109930000D02*
X116823748Y-109930000D01*
X120090000Y-115196252D02*
X120090000Y-114673748D01*
X118670000Y-115196252D02*
X118670000Y-114673748D01*
X136898748Y-108510000D02*
X137421252Y-108510000D01*
X136898748Y-109930000D02*
X137421252Y-109930000D01*
X136898748Y-104850000D02*
X137421252Y-104850000D01*
X136898748Y-103430000D02*
X137421252Y-103430000D01*
X136263748Y-98350000D02*
X136786252Y-98350000D01*
X136263748Y-99770000D02*
X136786252Y-99770000D01*
X113740000Y-81541252D02*
X113740000Y-81018748D01*
X112320000Y-81541252D02*
X112320000Y-81018748D01*
X106605000Y-81541252D02*
X106605000Y-81018748D01*
X108025000Y-81541252D02*
X108025000Y-81018748D01*
X106605000Y-127373748D02*
X106605000Y-127896252D01*
X108025000Y-127373748D02*
X108025000Y-127896252D01*
X119118748Y-83110000D02*
X119641252Y-83110000D01*
X119118748Y-84530000D02*
X119641252Y-84530000D01*
X119641252Y-79935000D02*
X119118748Y-79935000D01*
X119641252Y-81355000D02*
X119118748Y-81355000D01*
X130540000Y-95190000D02*
G75*
G02X128540000Y-95190000I-1000000J0D01*
G01*
X128540000Y-95190000D02*
X126890000Y-95190000D01*
X126890000Y-95190000D02*
X126890000Y-113090000D01*
X126890000Y-113090000D02*
X132190000Y-113090000D01*
X132190000Y-113090000D02*
X132190000Y-95190000D01*
X132190000Y-95190000D02*
X130540000Y-95190000D01*
X130490000Y-129540000D02*
G75*
G03X130490000Y-129540000I-950000J0D01*
G01*
X147000000Y-93980000D02*
G75*
G03X147000000Y-93980000I-950000J0D01*
G01*
X120330000Y-88900000D02*
G75*
G03X120330000Y-88900000I-950000J0D01*
G01*
X130490000Y-78740000D02*
G75*
G03X130490000Y-78740000I-950000J0D01*
G01*
X147000000Y-111125000D02*
G75*
G03X147000000Y-111125000I-950000J0D01*
G01*
X122870000Y-95250000D02*
G75*
G03X122870000Y-95250000I-950000J0D01*
G01*
X151699000Y-94361000D02*
G75*
G03X151699000Y-94361000I-950000J0D01*
G01*
X110805000Y-108585000D02*
G75*
G03X110805000Y-108585000I-950000J0D01*
G01*
X150175000Y-111125000D02*
G75*
G03X150175000Y-111125000I-950000J0D01*
G01*
X124775000Y-82550000D02*
G75*
G03X124775000Y-82550000I-950000J0D01*
G01*
D10*
X143383095Y-101052380D02*
X143383095Y-101861904D01*
X143430714Y-101957142D01*
X143478333Y-102004761D01*
X143573571Y-102052380D01*
X143764047Y-102052380D01*
X143859285Y-102004761D01*
X143906904Y-101957142D01*
X143954523Y-101861904D01*
X143954523Y-101052380D01*
X144383095Y-101147619D02*
X144430714Y-101100000D01*
X144525952Y-101052380D01*
X144764047Y-101052380D01*
X144859285Y-101100000D01*
X144906904Y-101147619D01*
X144954523Y-101242857D01*
X144954523Y-101338095D01*
X144906904Y-101480952D01*
X144335476Y-102052380D01*
X144954523Y-102052380D01*
X121753333Y-113990380D02*
X121420000Y-113514190D01*
X121181904Y-113990380D02*
X121181904Y-112990380D01*
X121562857Y-112990380D01*
X121658095Y-113038000D01*
X121705714Y-113085619D01*
X121753333Y-113180857D01*
X121753333Y-113323714D01*
X121705714Y-113418952D01*
X121658095Y-113466571D01*
X121562857Y-113514190D01*
X121181904Y-113514190D01*
X122658095Y-112990380D02*
X122181904Y-112990380D01*
X122134285Y-113466571D01*
X122181904Y-113418952D01*
X122277142Y-113371333D01*
X122515238Y-113371333D01*
X122610476Y-113418952D01*
X122658095Y-113466571D01*
X122705714Y-113561809D01*
X122705714Y-113799904D01*
X122658095Y-113895142D01*
X122610476Y-113942761D01*
X122515238Y-113990380D01*
X122277142Y-113990380D01*
X122181904Y-113942761D01*
X122134285Y-113895142D01*
X106117380Y-123293095D02*
X105117380Y-123293095D01*
X105117380Y-123055000D01*
X105165000Y-122912142D01*
X105260238Y-122816904D01*
X105355476Y-122769285D01*
X105545952Y-122721666D01*
X105688809Y-122721666D01*
X105879285Y-122769285D01*
X105974523Y-122816904D01*
X106069761Y-122912142D01*
X106117380Y-123055000D01*
X106117380Y-123293095D01*
X105117380Y-122388333D02*
X105117380Y-121769285D01*
X105498333Y-122102619D01*
X105498333Y-121959761D01*
X105545952Y-121864523D01*
X105593571Y-121816904D01*
X105688809Y-121769285D01*
X105926904Y-121769285D01*
X106022142Y-121816904D01*
X106069761Y-121864523D01*
X106117380Y-121959761D01*
X106117380Y-122245476D01*
X106069761Y-122340714D01*
X106022142Y-122388333D01*
X105862380Y-86463095D02*
X104862380Y-86463095D01*
X104862380Y-86225000D01*
X104910000Y-86082142D01*
X105005238Y-85986904D01*
X105100476Y-85939285D01*
X105290952Y-85891666D01*
X105433809Y-85891666D01*
X105624285Y-85939285D01*
X105719523Y-85986904D01*
X105814761Y-86082142D01*
X105862380Y-86225000D01*
X105862380Y-86463095D01*
X104957619Y-85510714D02*
X104910000Y-85463095D01*
X104862380Y-85367857D01*
X104862380Y-85129761D01*
X104910000Y-85034523D01*
X104957619Y-84986904D01*
X105052857Y-84939285D01*
X105148095Y-84939285D01*
X105290952Y-84986904D01*
X105862380Y-85558333D01*
X105862380Y-84939285D01*
X111577380Y-86463095D02*
X110577380Y-86463095D01*
X110577380Y-86225000D01*
X110625000Y-86082142D01*
X110720238Y-85986904D01*
X110815476Y-85939285D01*
X111005952Y-85891666D01*
X111148809Y-85891666D01*
X111339285Y-85939285D01*
X111434523Y-85986904D01*
X111529761Y-86082142D01*
X111577380Y-86225000D01*
X111577380Y-86463095D01*
X111577380Y-84939285D02*
X111577380Y-85510714D01*
X111577380Y-85225000D02*
X110577380Y-85225000D01*
X110720238Y-85320238D01*
X110815476Y-85415476D01*
X110863095Y-85510714D01*
X152701666Y-95742380D02*
X152701666Y-96456666D01*
X152654047Y-96599523D01*
X152558809Y-96694761D01*
X152415952Y-96742380D01*
X152320714Y-96742380D01*
X153130238Y-95837619D02*
X153177857Y-95790000D01*
X153273095Y-95742380D01*
X153511190Y-95742380D01*
X153606428Y-95790000D01*
X153654047Y-95837619D01*
X153701666Y-95932857D01*
X153701666Y-96028095D01*
X153654047Y-96170952D01*
X153082619Y-96742380D01*
X153701666Y-96742380D01*
X103806666Y-89392380D02*
X103806666Y-90106666D01*
X103759047Y-90249523D01*
X103663809Y-90344761D01*
X103520952Y-90392380D01*
X103425714Y-90392380D01*
X104806666Y-90392380D02*
X104235238Y-90392380D01*
X104520952Y-90392380D02*
X104520952Y-89392380D01*
X104425714Y-89535238D01*
X104330476Y-89630476D01*
X104235238Y-89678095D01*
X116673333Y-105227380D02*
X116340000Y-104751190D01*
X116101904Y-105227380D02*
X116101904Y-104227380D01*
X116482857Y-104227380D01*
X116578095Y-104275000D01*
X116625714Y-104322619D01*
X116673333Y-104417857D01*
X116673333Y-104560714D01*
X116625714Y-104655952D01*
X116578095Y-104703571D01*
X116482857Y-104751190D01*
X116101904Y-104751190D01*
X117625714Y-105227380D02*
X117054285Y-105227380D01*
X117340000Y-105227380D02*
X117340000Y-104227380D01*
X117244761Y-104370238D01*
X117149523Y-104465476D01*
X117054285Y-104513095D01*
X120212380Y-100496666D02*
X119736190Y-100830000D01*
X120212380Y-101068095D02*
X119212380Y-101068095D01*
X119212380Y-100687142D01*
X119260000Y-100591904D01*
X119307619Y-100544285D01*
X119402857Y-100496666D01*
X119545714Y-100496666D01*
X119640952Y-100544285D01*
X119688571Y-100591904D01*
X119736190Y-100687142D01*
X119736190Y-101068095D01*
X119307619Y-100115714D02*
X119260000Y-100068095D01*
X119212380Y-99972857D01*
X119212380Y-99734761D01*
X119260000Y-99639523D01*
X119307619Y-99591904D01*
X119402857Y-99544285D01*
X119498095Y-99544285D01*
X119640952Y-99591904D01*
X120212380Y-100163333D01*
X120212380Y-99544285D01*
X114372380Y-115228666D02*
X113896190Y-115562000D01*
X114372380Y-115800095D02*
X113372380Y-115800095D01*
X113372380Y-115419142D01*
X113420000Y-115323904D01*
X113467619Y-115276285D01*
X113562857Y-115228666D01*
X113705714Y-115228666D01*
X113800952Y-115276285D01*
X113848571Y-115323904D01*
X113896190Y-115419142D01*
X113896190Y-115800095D01*
X113372380Y-114895333D02*
X113372380Y-114276285D01*
X113753333Y-114609619D01*
X113753333Y-114466761D01*
X113800952Y-114371523D01*
X113848571Y-114323904D01*
X113943809Y-114276285D01*
X114181904Y-114276285D01*
X114277142Y-114323904D01*
X114324761Y-114371523D01*
X114372380Y-114466761D01*
X114372380Y-114752476D01*
X114324761Y-114847714D01*
X114277142Y-114895333D01*
X116927333Y-111323380D02*
X116594000Y-110847190D01*
X116355904Y-111323380D02*
X116355904Y-110323380D01*
X116736857Y-110323380D01*
X116832095Y-110371000D01*
X116879714Y-110418619D01*
X116927333Y-110513857D01*
X116927333Y-110656714D01*
X116879714Y-110751952D01*
X116832095Y-110799571D01*
X116736857Y-110847190D01*
X116355904Y-110847190D01*
X117784476Y-110656714D02*
X117784476Y-111323380D01*
X117546380Y-110275761D02*
X117308285Y-110990047D01*
X117927333Y-110990047D01*
X118182380Y-115101666D02*
X117706190Y-115435000D01*
X118182380Y-115673095D02*
X117182380Y-115673095D01*
X117182380Y-115292142D01*
X117230000Y-115196904D01*
X117277619Y-115149285D01*
X117372857Y-115101666D01*
X117515714Y-115101666D01*
X117610952Y-115149285D01*
X117658571Y-115196904D01*
X117706190Y-115292142D01*
X117706190Y-115673095D01*
X117182380Y-114244523D02*
X117182380Y-114435000D01*
X117230000Y-114530238D01*
X117277619Y-114577857D01*
X117420476Y-114673095D01*
X117610952Y-114720714D01*
X117991904Y-114720714D01*
X118087142Y-114673095D01*
X118134761Y-114625476D01*
X118182380Y-114530238D01*
X118182380Y-114339761D01*
X118134761Y-114244523D01*
X118087142Y-114196904D01*
X117991904Y-114149285D01*
X117753809Y-114149285D01*
X117658571Y-114196904D01*
X117610952Y-114244523D01*
X117563333Y-114339761D01*
X117563333Y-114530238D01*
X117610952Y-114625476D01*
X117658571Y-114673095D01*
X117753809Y-114720714D01*
X136993333Y-111577380D02*
X136660000Y-111101190D01*
X136421904Y-111577380D02*
X136421904Y-110577380D01*
X136802857Y-110577380D01*
X136898095Y-110625000D01*
X136945714Y-110672619D01*
X136993333Y-110767857D01*
X136993333Y-110910714D01*
X136945714Y-111005952D01*
X136898095Y-111053571D01*
X136802857Y-111101190D01*
X136421904Y-111101190D01*
X137326666Y-110577380D02*
X137993333Y-110577380D01*
X137564761Y-111577380D01*
X136517142Y-106497380D02*
X136183809Y-106021190D01*
X135945714Y-106497380D02*
X135945714Y-105497380D01*
X136326666Y-105497380D01*
X136421904Y-105545000D01*
X136469523Y-105592619D01*
X136517142Y-105687857D01*
X136517142Y-105830714D01*
X136469523Y-105925952D01*
X136421904Y-105973571D01*
X136326666Y-106021190D01*
X135945714Y-106021190D01*
X137469523Y-106497380D02*
X136898095Y-106497380D01*
X137183809Y-106497380D02*
X137183809Y-105497380D01*
X137088571Y-105640238D01*
X136993333Y-105735476D01*
X136898095Y-105783095D01*
X138088571Y-105497380D02*
X138183809Y-105497380D01*
X138279047Y-105545000D01*
X138326666Y-105592619D01*
X138374285Y-105687857D01*
X138421904Y-105878333D01*
X138421904Y-106116428D01*
X138374285Y-106306904D01*
X138326666Y-106402142D01*
X138279047Y-106449761D01*
X138183809Y-106497380D01*
X138088571Y-106497380D01*
X137993333Y-106449761D01*
X137945714Y-106402142D01*
X137898095Y-106306904D01*
X137850476Y-106116428D01*
X137850476Y-105878333D01*
X137898095Y-105687857D01*
X137945714Y-105592619D01*
X137993333Y-105545000D01*
X138088571Y-105497380D01*
X135882142Y-97607380D02*
X135548809Y-97131190D01*
X135310714Y-97607380D02*
X135310714Y-96607380D01*
X135691666Y-96607380D01*
X135786904Y-96655000D01*
X135834523Y-96702619D01*
X135882142Y-96797857D01*
X135882142Y-96940714D01*
X135834523Y-97035952D01*
X135786904Y-97083571D01*
X135691666Y-97131190D01*
X135310714Y-97131190D01*
X136834523Y-97607380D02*
X136263095Y-97607380D01*
X136548809Y-97607380D02*
X136548809Y-96607380D01*
X136453571Y-96750238D01*
X136358333Y-96845476D01*
X136263095Y-96893095D01*
X137786904Y-97607380D02*
X137215476Y-97607380D01*
X137501190Y-97607380D02*
X137501190Y-96607380D01*
X137405952Y-96750238D01*
X137310714Y-96845476D01*
X137215476Y-96893095D01*
X111832380Y-81922857D02*
X111356190Y-82256190D01*
X111832380Y-82494285D02*
X110832380Y-82494285D01*
X110832380Y-82113333D01*
X110880000Y-82018095D01*
X110927619Y-81970476D01*
X111022857Y-81922857D01*
X111165714Y-81922857D01*
X111260952Y-81970476D01*
X111308571Y-82018095D01*
X111356190Y-82113333D01*
X111356190Y-82494285D01*
X111832380Y-80970476D02*
X111832380Y-81541904D01*
X111832380Y-81256190D02*
X110832380Y-81256190D01*
X110975238Y-81351428D01*
X111070476Y-81446666D01*
X111118095Y-81541904D01*
X110832380Y-80637142D02*
X110832380Y-80018095D01*
X111213333Y-80351428D01*
X111213333Y-80208571D01*
X111260952Y-80113333D01*
X111308571Y-80065714D01*
X111403809Y-80018095D01*
X111641904Y-80018095D01*
X111737142Y-80065714D01*
X111784761Y-80113333D01*
X111832380Y-80208571D01*
X111832380Y-80494285D01*
X111784761Y-80589523D01*
X111737142Y-80637142D01*
X106117380Y-81922857D02*
X105641190Y-82256190D01*
X106117380Y-82494285D02*
X105117380Y-82494285D01*
X105117380Y-82113333D01*
X105165000Y-82018095D01*
X105212619Y-81970476D01*
X105307857Y-81922857D01*
X105450714Y-81922857D01*
X105545952Y-81970476D01*
X105593571Y-82018095D01*
X105641190Y-82113333D01*
X105641190Y-82494285D01*
X106117380Y-80970476D02*
X106117380Y-81541904D01*
X106117380Y-81256190D02*
X105117380Y-81256190D01*
X105260238Y-81351428D01*
X105355476Y-81446666D01*
X105403095Y-81541904D01*
X105450714Y-80113333D02*
X106117380Y-80113333D01*
X105069761Y-80351428D02*
X105784047Y-80589523D01*
X105784047Y-79970476D01*
X109417380Y-128277857D02*
X108941190Y-128611190D01*
X109417380Y-128849285D02*
X108417380Y-128849285D01*
X108417380Y-128468333D01*
X108465000Y-128373095D01*
X108512619Y-128325476D01*
X108607857Y-128277857D01*
X108750714Y-128277857D01*
X108845952Y-128325476D01*
X108893571Y-128373095D01*
X108941190Y-128468333D01*
X108941190Y-128849285D01*
X109417380Y-127325476D02*
X109417380Y-127896904D01*
X109417380Y-127611190D02*
X108417380Y-127611190D01*
X108560238Y-127706428D01*
X108655476Y-127801666D01*
X108703095Y-127896904D01*
X108417380Y-126420714D02*
X108417380Y-126896904D01*
X108893571Y-126944523D01*
X108845952Y-126896904D01*
X108798333Y-126801666D01*
X108798333Y-126563571D01*
X108845952Y-126468333D01*
X108893571Y-126420714D01*
X108988809Y-126373095D01*
X109226904Y-126373095D01*
X109322142Y-126420714D01*
X109369761Y-126468333D01*
X109417380Y-126563571D01*
X109417380Y-126801666D01*
X109369761Y-126896904D01*
X109322142Y-126944523D01*
X118737142Y-79192380D02*
X118403809Y-78716190D01*
X118165714Y-79192380D02*
X118165714Y-78192380D01*
X118546666Y-78192380D01*
X118641904Y-78240000D01*
X118689523Y-78287619D01*
X118737142Y-78382857D01*
X118737142Y-78525714D01*
X118689523Y-78620952D01*
X118641904Y-78668571D01*
X118546666Y-78716190D01*
X118165714Y-78716190D01*
X119689523Y-79192380D02*
X119118095Y-79192380D01*
X119403809Y-79192380D02*
X119403809Y-78192380D01*
X119308571Y-78335238D01*
X119213333Y-78430476D01*
X119118095Y-78478095D01*
X120546666Y-78192380D02*
X120356190Y-78192380D01*
X120260952Y-78240000D01*
X120213333Y-78287619D01*
X120118095Y-78430476D01*
X120070476Y-78620952D01*
X120070476Y-79001904D01*
X120118095Y-79097142D01*
X120165714Y-79144761D01*
X120260952Y-79192380D01*
X120451428Y-79192380D01*
X120546666Y-79144761D01*
X120594285Y-79097142D01*
X120641904Y-79001904D01*
X120641904Y-78763809D01*
X120594285Y-78668571D01*
X120546666Y-78620952D01*
X120451428Y-78573333D01*
X120260952Y-78573333D01*
X120165714Y-78620952D01*
X120118095Y-78668571D01*
X120070476Y-78763809D01*
X118737142Y-86177380D02*
X118403809Y-85701190D01*
X118165714Y-86177380D02*
X118165714Y-85177380D01*
X118546666Y-85177380D01*
X118641904Y-85225000D01*
X118689523Y-85272619D01*
X118737142Y-85367857D01*
X118737142Y-85510714D01*
X118689523Y-85605952D01*
X118641904Y-85653571D01*
X118546666Y-85701190D01*
X118165714Y-85701190D01*
X119689523Y-86177380D02*
X119118095Y-86177380D01*
X119403809Y-86177380D02*
X119403809Y-85177380D01*
X119308571Y-85320238D01*
X119213333Y-85415476D01*
X119118095Y-85463095D01*
X120022857Y-85177380D02*
X120689523Y-85177380D01*
X120260952Y-86177380D01*
X128778095Y-93642380D02*
X128778095Y-94451904D01*
X128825714Y-94547142D01*
X128873333Y-94594761D01*
X128968571Y-94642380D01*
X129159047Y-94642380D01*
X129254285Y-94594761D01*
X129301904Y-94547142D01*
X129349523Y-94451904D01*
X129349523Y-93642380D01*
X130349523Y-94642380D02*
X129778095Y-94642380D01*
X130063809Y-94642380D02*
X130063809Y-93642380D01*
X129968571Y-93785238D01*
X129873333Y-93880476D01*
X129778095Y-93928095D01*
X128778095Y-127135000D02*
X128682857Y-127087380D01*
X128540000Y-127087380D01*
X128397142Y-127135000D01*
X128301904Y-127230238D01*
X128254285Y-127325476D01*
X128206666Y-127515952D01*
X128206666Y-127658809D01*
X128254285Y-127849285D01*
X128301904Y-127944523D01*
X128397142Y-128039761D01*
X128540000Y-128087380D01*
X128635238Y-128087380D01*
X128778095Y-128039761D01*
X128825714Y-127992142D01*
X128825714Y-127658809D01*
X128635238Y-127658809D01*
X129254285Y-128087380D02*
X129254285Y-127087380D01*
X129825714Y-128087380D01*
X129825714Y-127087380D01*
X130301904Y-128087380D02*
X130301904Y-127087380D01*
X130540000Y-127087380D01*
X130682857Y-127135000D01*
X130778095Y-127230238D01*
X130825714Y-127325476D01*
X130873333Y-127515952D01*
X130873333Y-127658809D01*
X130825714Y-127849285D01*
X130778095Y-127944523D01*
X130682857Y-128039761D01*
X130540000Y-128087380D01*
X130301904Y-128087380D01*
X143073666Y-92051142D02*
X143026047Y-92098761D01*
X142883190Y-92146380D01*
X142787952Y-92146380D01*
X142645095Y-92098761D01*
X142549857Y-92003523D01*
X142502238Y-91908285D01*
X142454619Y-91717809D01*
X142454619Y-91574952D01*
X142502238Y-91384476D01*
X142549857Y-91289238D01*
X142645095Y-91194000D01*
X142787952Y-91146380D01*
X142883190Y-91146380D01*
X143026047Y-91194000D01*
X143073666Y-91241619D01*
X143502238Y-92146380D02*
X143502238Y-91146380D01*
X143502238Y-91622571D02*
X144073666Y-91622571D01*
X144073666Y-92146380D02*
X144073666Y-91146380D01*
X145073666Y-92146380D02*
X144502238Y-92146380D01*
X144787952Y-92146380D02*
X144787952Y-91146380D01*
X144692714Y-91289238D01*
X144597476Y-91384476D01*
X144502238Y-91432095D01*
X145264142Y-92241619D02*
X146026047Y-92241619D01*
X146264142Y-92146380D02*
X146264142Y-91146380D01*
X146740333Y-92146380D02*
X146740333Y-91146380D01*
X147311761Y-92146380D01*
X147311761Y-91146380D01*
X121325000Y-89257142D02*
X121277380Y-89304761D01*
X121134523Y-89352380D01*
X121039285Y-89352380D01*
X120896428Y-89304761D01*
X120801190Y-89209523D01*
X120753571Y-89114285D01*
X120705952Y-88923809D01*
X120705952Y-88780952D01*
X120753571Y-88590476D01*
X120801190Y-88495238D01*
X120896428Y-88400000D01*
X121039285Y-88352380D01*
X121134523Y-88352380D01*
X121277380Y-88400000D01*
X121325000Y-88447619D01*
X121753571Y-89352380D02*
X121753571Y-88352380D01*
X121753571Y-88828571D02*
X122325000Y-88828571D01*
X122325000Y-89352380D02*
X122325000Y-88352380D01*
X123325000Y-89352380D02*
X122753571Y-89352380D01*
X123039285Y-89352380D02*
X123039285Y-88352380D01*
X122944047Y-88495238D01*
X122848809Y-88590476D01*
X122753571Y-88638095D01*
X123515476Y-89447619D02*
X124277380Y-89447619D01*
X124705952Y-88352380D02*
X124896428Y-88352380D01*
X124991666Y-88400000D01*
X125086904Y-88495238D01*
X125134523Y-88685714D01*
X125134523Y-89019047D01*
X125086904Y-89209523D01*
X124991666Y-89304761D01*
X124896428Y-89352380D01*
X124705952Y-89352380D01*
X124610714Y-89304761D01*
X124515476Y-89209523D01*
X124467857Y-89019047D01*
X124467857Y-88685714D01*
X124515476Y-88495238D01*
X124610714Y-88400000D01*
X124705952Y-88352380D01*
X125563095Y-88352380D02*
X125563095Y-89161904D01*
X125610714Y-89257142D01*
X125658333Y-89304761D01*
X125753571Y-89352380D01*
X125944047Y-89352380D01*
X126039285Y-89304761D01*
X126086904Y-89257142D01*
X126134523Y-89161904D01*
X126134523Y-88352380D01*
X126467857Y-88352380D02*
X127039285Y-88352380D01*
X126753571Y-89352380D02*
X126753571Y-88352380D01*
X128778095Y-79990000D02*
X128682857Y-79942380D01*
X128540000Y-79942380D01*
X128397142Y-79990000D01*
X128301904Y-80085238D01*
X128254285Y-80180476D01*
X128206666Y-80370952D01*
X128206666Y-80513809D01*
X128254285Y-80704285D01*
X128301904Y-80799523D01*
X128397142Y-80894761D01*
X128540000Y-80942380D01*
X128635238Y-80942380D01*
X128778095Y-80894761D01*
X128825714Y-80847142D01*
X128825714Y-80513809D01*
X128635238Y-80513809D01*
X129254285Y-80942380D02*
X129254285Y-79942380D01*
X129825714Y-80942380D01*
X129825714Y-79942380D01*
X130301904Y-80942380D02*
X130301904Y-79942380D01*
X130540000Y-79942380D01*
X130682857Y-79990000D01*
X130778095Y-80085238D01*
X130825714Y-80180476D01*
X130873333Y-80370952D01*
X130873333Y-80513809D01*
X130825714Y-80704285D01*
X130778095Y-80799523D01*
X130682857Y-80894761D01*
X130540000Y-80942380D01*
X130301904Y-80942380D01*
X143581666Y-113387142D02*
X143534047Y-113434761D01*
X143391190Y-113482380D01*
X143295952Y-113482380D01*
X143153095Y-113434761D01*
X143057857Y-113339523D01*
X143010238Y-113244285D01*
X142962619Y-113053809D01*
X142962619Y-112910952D01*
X143010238Y-112720476D01*
X143057857Y-112625238D01*
X143153095Y-112530000D01*
X143295952Y-112482380D01*
X143391190Y-112482380D01*
X143534047Y-112530000D01*
X143581666Y-112577619D01*
X144010238Y-113482380D02*
X144010238Y-112482380D01*
X144010238Y-112958571D02*
X144581666Y-112958571D01*
X144581666Y-113482380D02*
X144581666Y-112482380D01*
X145010238Y-112577619D02*
X145057857Y-112530000D01*
X145153095Y-112482380D01*
X145391190Y-112482380D01*
X145486428Y-112530000D01*
X145534047Y-112577619D01*
X145581666Y-112672857D01*
X145581666Y-112768095D01*
X145534047Y-112910952D01*
X144962619Y-113482380D01*
X145581666Y-113482380D01*
X145772142Y-113577619D02*
X146534047Y-113577619D01*
X146772142Y-113482380D02*
X146772142Y-112482380D01*
X147248333Y-113482380D02*
X147248333Y-112482380D01*
X147819761Y-113482380D01*
X147819761Y-112482380D01*
X118658000Y-93956142D02*
X118610380Y-94003761D01*
X118467523Y-94051380D01*
X118372285Y-94051380D01*
X118229428Y-94003761D01*
X118134190Y-93908523D01*
X118086571Y-93813285D01*
X118038952Y-93622809D01*
X118038952Y-93479952D01*
X118086571Y-93289476D01*
X118134190Y-93194238D01*
X118229428Y-93099000D01*
X118372285Y-93051380D01*
X118467523Y-93051380D01*
X118610380Y-93099000D01*
X118658000Y-93146619D01*
X119086571Y-94051380D02*
X119086571Y-93051380D01*
X119086571Y-93527571D02*
X119658000Y-93527571D01*
X119658000Y-94051380D02*
X119658000Y-93051380D01*
X120086571Y-93146619D02*
X120134190Y-93099000D01*
X120229428Y-93051380D01*
X120467523Y-93051380D01*
X120562761Y-93099000D01*
X120610380Y-93146619D01*
X120658000Y-93241857D01*
X120658000Y-93337095D01*
X120610380Y-93479952D01*
X120038952Y-94051380D01*
X120658000Y-94051380D01*
X120848476Y-94146619D02*
X121610380Y-94146619D01*
X122038952Y-93051380D02*
X122229428Y-93051380D01*
X122324666Y-93099000D01*
X122419904Y-93194238D01*
X122467523Y-93384714D01*
X122467523Y-93718047D01*
X122419904Y-93908523D01*
X122324666Y-94003761D01*
X122229428Y-94051380D01*
X122038952Y-94051380D01*
X121943714Y-94003761D01*
X121848476Y-93908523D01*
X121800857Y-93718047D01*
X121800857Y-93384714D01*
X121848476Y-93194238D01*
X121943714Y-93099000D01*
X122038952Y-93051380D01*
X122896095Y-93051380D02*
X122896095Y-93860904D01*
X122943714Y-93956142D01*
X122991333Y-94003761D01*
X123086571Y-94051380D01*
X123277047Y-94051380D01*
X123372285Y-94003761D01*
X123419904Y-93956142D01*
X123467523Y-93860904D01*
X123467523Y-93051380D01*
X123800857Y-93051380D02*
X124372285Y-93051380D01*
X124086571Y-94051380D02*
X124086571Y-93051380D01*
X149550666Y-92813142D02*
X149503047Y-92860761D01*
X149360190Y-92908380D01*
X149264952Y-92908380D01*
X149122095Y-92860761D01*
X149026857Y-92765523D01*
X148979238Y-92670285D01*
X148931619Y-92479809D01*
X148931619Y-92336952D01*
X148979238Y-92146476D01*
X149026857Y-92051238D01*
X149122095Y-91956000D01*
X149264952Y-91908380D01*
X149360190Y-91908380D01*
X149503047Y-91956000D01*
X149550666Y-92003619D01*
X149979238Y-92908380D02*
X149979238Y-91908380D01*
X149979238Y-92384571D02*
X150550666Y-92384571D01*
X150550666Y-92908380D02*
X150550666Y-91908380D01*
X150931619Y-91908380D02*
X151550666Y-91908380D01*
X151217333Y-92289333D01*
X151360190Y-92289333D01*
X151455428Y-92336952D01*
X151503047Y-92384571D01*
X151550666Y-92479809D01*
X151550666Y-92717904D01*
X151503047Y-92813142D01*
X151455428Y-92860761D01*
X151360190Y-92908380D01*
X151074476Y-92908380D01*
X150979238Y-92860761D01*
X150931619Y-92813142D01*
X151741142Y-93003619D02*
X152503047Y-93003619D01*
X152741142Y-92908380D02*
X152741142Y-91908380D01*
X153217333Y-92908380D02*
X153217333Y-91908380D01*
X153788761Y-92908380D01*
X153788761Y-91908380D01*
X108625000Y-110847142D02*
X108577380Y-110894761D01*
X108434523Y-110942380D01*
X108339285Y-110942380D01*
X108196428Y-110894761D01*
X108101190Y-110799523D01*
X108053571Y-110704285D01*
X108005952Y-110513809D01*
X108005952Y-110370952D01*
X108053571Y-110180476D01*
X108101190Y-110085238D01*
X108196428Y-109990000D01*
X108339285Y-109942380D01*
X108434523Y-109942380D01*
X108577380Y-109990000D01*
X108625000Y-110037619D01*
X109053571Y-110942380D02*
X109053571Y-109942380D01*
X109053571Y-110418571D02*
X109625000Y-110418571D01*
X109625000Y-110942380D02*
X109625000Y-109942380D01*
X110005952Y-109942380D02*
X110625000Y-109942380D01*
X110291666Y-110323333D01*
X110434523Y-110323333D01*
X110529761Y-110370952D01*
X110577380Y-110418571D01*
X110625000Y-110513809D01*
X110625000Y-110751904D01*
X110577380Y-110847142D01*
X110529761Y-110894761D01*
X110434523Y-110942380D01*
X110148809Y-110942380D01*
X110053571Y-110894761D01*
X110005952Y-110847142D01*
X110815476Y-111037619D02*
X111577380Y-111037619D01*
X112005952Y-109942380D02*
X112196428Y-109942380D01*
X112291666Y-109990000D01*
X112386904Y-110085238D01*
X112434523Y-110275714D01*
X112434523Y-110609047D01*
X112386904Y-110799523D01*
X112291666Y-110894761D01*
X112196428Y-110942380D01*
X112005952Y-110942380D01*
X111910714Y-110894761D01*
X111815476Y-110799523D01*
X111767857Y-110609047D01*
X111767857Y-110275714D01*
X111815476Y-110085238D01*
X111910714Y-109990000D01*
X112005952Y-109942380D01*
X112863095Y-109942380D02*
X112863095Y-110751904D01*
X112910714Y-110847142D01*
X112958333Y-110894761D01*
X113053571Y-110942380D01*
X113244047Y-110942380D01*
X113339285Y-110894761D01*
X113386904Y-110847142D01*
X113434523Y-110751904D01*
X113434523Y-109942380D01*
X113767857Y-109942380D02*
X114339285Y-109942380D01*
X114053571Y-110942380D02*
X114053571Y-109942380D01*
X150169761Y-113387142D02*
X150122142Y-113434761D01*
X149979285Y-113482380D01*
X149884047Y-113482380D01*
X149741190Y-113434761D01*
X149645952Y-113339523D01*
X149598333Y-113244285D01*
X149550714Y-113053809D01*
X149550714Y-112910952D01*
X149598333Y-112720476D01*
X149645952Y-112625238D01*
X149741190Y-112530000D01*
X149884047Y-112482380D01*
X149979285Y-112482380D01*
X150122142Y-112530000D01*
X150169761Y-112577619D01*
X150598333Y-113482380D02*
X150598333Y-112482380D01*
X150598333Y-112958571D02*
X151169761Y-112958571D01*
X151169761Y-113482380D02*
X151169761Y-112482380D01*
X152074523Y-112815714D02*
X152074523Y-113482380D01*
X151836428Y-112434761D02*
X151598333Y-113149047D01*
X152217380Y-113149047D01*
X152360238Y-113577619D02*
X153122142Y-113577619D01*
X153360238Y-113482380D02*
X153360238Y-112482380D01*
X153931666Y-113482380D01*
X153931666Y-112482380D01*
X125770000Y-82907142D02*
X125722380Y-82954761D01*
X125579523Y-83002380D01*
X125484285Y-83002380D01*
X125341428Y-82954761D01*
X125246190Y-82859523D01*
X125198571Y-82764285D01*
X125150952Y-82573809D01*
X125150952Y-82430952D01*
X125198571Y-82240476D01*
X125246190Y-82145238D01*
X125341428Y-82050000D01*
X125484285Y-82002380D01*
X125579523Y-82002380D01*
X125722380Y-82050000D01*
X125770000Y-82097619D01*
X126198571Y-83002380D02*
X126198571Y-82002380D01*
X126198571Y-82478571D02*
X126770000Y-82478571D01*
X126770000Y-83002380D02*
X126770000Y-82002380D01*
X127674761Y-82335714D02*
X127674761Y-83002380D01*
X127436666Y-81954761D02*
X127198571Y-82669047D01*
X127817619Y-82669047D01*
X127960476Y-83097619D02*
X128722380Y-83097619D01*
X129150952Y-82002380D02*
X129341428Y-82002380D01*
X129436666Y-82050000D01*
X129531904Y-82145238D01*
X129579523Y-82335714D01*
X129579523Y-82669047D01*
X129531904Y-82859523D01*
X129436666Y-82954761D01*
X129341428Y-83002380D01*
X129150952Y-83002380D01*
X129055714Y-82954761D01*
X128960476Y-82859523D01*
X128912857Y-82669047D01*
X128912857Y-82335714D01*
X128960476Y-82145238D01*
X129055714Y-82050000D01*
X129150952Y-82002380D01*
X130008095Y-82002380D02*
X130008095Y-82811904D01*
X130055714Y-82907142D01*
X130103333Y-82954761D01*
X130198571Y-83002380D01*
X130389047Y-83002380D01*
X130484285Y-82954761D01*
X130531904Y-82907142D01*
X130579523Y-82811904D01*
X130579523Y-82002380D01*
X130912857Y-82002380D02*
X131484285Y-82002380D01*
X131198571Y-83002380D02*
X131198571Y-82002380D01*
%LPC*%
D13*
G36*
X147043263Y-103450516D02*
G01*
X147053674Y-103452061D01*
X147063884Y-103454618D01*
X147073793Y-103458164D01*
X147083308Y-103462664D01*
X147092335Y-103468075D01*
X147100789Y-103474344D01*
X147108587Y-103481413D01*
X147115656Y-103489211D01*
X147121925Y-103497665D01*
X147127336Y-103506692D01*
X147131836Y-103516207D01*
X147135382Y-103526116D01*
X147137939Y-103536326D01*
X147139484Y-103546737D01*
X147140000Y-103557249D01*
X147140000Y-104092751D01*
X147139484Y-104103263D01*
X147137939Y-104113674D01*
X147135382Y-104123884D01*
X147131836Y-104133793D01*
X147127336Y-104143308D01*
X147121925Y-104152335D01*
X147115656Y-104160789D01*
X147108587Y-104168587D01*
X147100789Y-104175656D01*
X147092335Y-104181925D01*
X147083308Y-104187336D01*
X147073793Y-104191836D01*
X147063884Y-104195382D01*
X147053674Y-104197939D01*
X147043263Y-104199484D01*
X147032751Y-104200000D01*
X146197249Y-104200000D01*
X146186737Y-104199484D01*
X146176326Y-104197939D01*
X146166116Y-104195382D01*
X146156207Y-104191836D01*
X146146692Y-104187336D01*
X146137665Y-104181925D01*
X146129211Y-104175656D01*
X146121413Y-104168587D01*
X146114344Y-104160789D01*
X146108075Y-104152335D01*
X146102664Y-104143308D01*
X146098164Y-104133793D01*
X146094618Y-104123884D01*
X146092061Y-104113674D01*
X146090516Y-104103263D01*
X146090000Y-104092751D01*
X146090000Y-103557249D01*
X146090516Y-103546737D01*
X146092061Y-103536326D01*
X146094618Y-103526116D01*
X146098164Y-103516207D01*
X146102664Y-103506692D01*
X146108075Y-103497665D01*
X146114344Y-103489211D01*
X146121413Y-103481413D01*
X146129211Y-103474344D01*
X146137665Y-103468075D01*
X146146692Y-103462664D01*
X146156207Y-103458164D01*
X146166116Y-103454618D01*
X146176326Y-103452061D01*
X146186737Y-103450516D01*
X146197249Y-103450000D01*
X147032751Y-103450000D01*
X147043263Y-103450516D01*
X147043263Y-103450516D01*
G37*
D14*
X146615000Y-103825000D03*
D13*
G36*
X147043263Y-104400516D02*
G01*
X147053674Y-104402061D01*
X147063884Y-104404618D01*
X147073793Y-104408164D01*
X147083308Y-104412664D01*
X147092335Y-104418075D01*
X147100789Y-104424344D01*
X147108587Y-104431413D01*
X147115656Y-104439211D01*
X147121925Y-104447665D01*
X147127336Y-104456692D01*
X147131836Y-104466207D01*
X147135382Y-104476116D01*
X147137939Y-104486326D01*
X147139484Y-104496737D01*
X147140000Y-104507249D01*
X147140000Y-105042751D01*
X147139484Y-105053263D01*
X147137939Y-105063674D01*
X147135382Y-105073884D01*
X147131836Y-105083793D01*
X147127336Y-105093308D01*
X147121925Y-105102335D01*
X147115656Y-105110789D01*
X147108587Y-105118587D01*
X147100789Y-105125656D01*
X147092335Y-105131925D01*
X147083308Y-105137336D01*
X147073793Y-105141836D01*
X147063884Y-105145382D01*
X147053674Y-105147939D01*
X147043263Y-105149484D01*
X147032751Y-105150000D01*
X146197249Y-105150000D01*
X146186737Y-105149484D01*
X146176326Y-105147939D01*
X146166116Y-105145382D01*
X146156207Y-105141836D01*
X146146692Y-105137336D01*
X146137665Y-105131925D01*
X146129211Y-105125656D01*
X146121413Y-105118587D01*
X146114344Y-105110789D01*
X146108075Y-105102335D01*
X146102664Y-105093308D01*
X146098164Y-105083793D01*
X146094618Y-105073884D01*
X146092061Y-105063674D01*
X146090516Y-105053263D01*
X146090000Y-105042751D01*
X146090000Y-104507249D01*
X146090516Y-104496737D01*
X146092061Y-104486326D01*
X146094618Y-104476116D01*
X146098164Y-104466207D01*
X146102664Y-104456692D01*
X146108075Y-104447665D01*
X146114344Y-104439211D01*
X146121413Y-104431413D01*
X146129211Y-104424344D01*
X146137665Y-104418075D01*
X146146692Y-104412664D01*
X146156207Y-104408164D01*
X146166116Y-104404618D01*
X146176326Y-104402061D01*
X146186737Y-104400516D01*
X146197249Y-104400000D01*
X147032751Y-104400000D01*
X147043263Y-104400516D01*
X147043263Y-104400516D01*
G37*
D14*
X146615000Y-104775000D03*
D13*
G36*
X147043263Y-105350516D02*
G01*
X147053674Y-105352061D01*
X147063884Y-105354618D01*
X147073793Y-105358164D01*
X147083308Y-105362664D01*
X147092335Y-105368075D01*
X147100789Y-105374344D01*
X147108587Y-105381413D01*
X147115656Y-105389211D01*
X147121925Y-105397665D01*
X147127336Y-105406692D01*
X147131836Y-105416207D01*
X147135382Y-105426116D01*
X147137939Y-105436326D01*
X147139484Y-105446737D01*
X147140000Y-105457249D01*
X147140000Y-105992751D01*
X147139484Y-106003263D01*
X147137939Y-106013674D01*
X147135382Y-106023884D01*
X147131836Y-106033793D01*
X147127336Y-106043308D01*
X147121925Y-106052335D01*
X147115656Y-106060789D01*
X147108587Y-106068587D01*
X147100789Y-106075656D01*
X147092335Y-106081925D01*
X147083308Y-106087336D01*
X147073793Y-106091836D01*
X147063884Y-106095382D01*
X147053674Y-106097939D01*
X147043263Y-106099484D01*
X147032751Y-106100000D01*
X146197249Y-106100000D01*
X146186737Y-106099484D01*
X146176326Y-106097939D01*
X146166116Y-106095382D01*
X146156207Y-106091836D01*
X146146692Y-106087336D01*
X146137665Y-106081925D01*
X146129211Y-106075656D01*
X146121413Y-106068587D01*
X146114344Y-106060789D01*
X146108075Y-106052335D01*
X146102664Y-106043308D01*
X146098164Y-106033793D01*
X146094618Y-106023884D01*
X146092061Y-106013674D01*
X146090516Y-106003263D01*
X146090000Y-105992751D01*
X146090000Y-105457249D01*
X146090516Y-105446737D01*
X146092061Y-105436326D01*
X146094618Y-105426116D01*
X146098164Y-105416207D01*
X146102664Y-105406692D01*
X146108075Y-105397665D01*
X146114344Y-105389211D01*
X146121413Y-105381413D01*
X146129211Y-105374344D01*
X146137665Y-105368075D01*
X146146692Y-105362664D01*
X146156207Y-105358164D01*
X146166116Y-105354618D01*
X146176326Y-105352061D01*
X146186737Y-105350516D01*
X146197249Y-105350000D01*
X147032751Y-105350000D01*
X147043263Y-105350516D01*
X147043263Y-105350516D01*
G37*
D14*
X146615000Y-105725000D03*
D13*
G36*
X144643263Y-105350516D02*
G01*
X144653674Y-105352061D01*
X144663884Y-105354618D01*
X144673793Y-105358164D01*
X144683308Y-105362664D01*
X144692335Y-105368075D01*
X144700789Y-105374344D01*
X144708587Y-105381413D01*
X144715656Y-105389211D01*
X144721925Y-105397665D01*
X144727336Y-105406692D01*
X144731836Y-105416207D01*
X144735382Y-105426116D01*
X144737939Y-105436326D01*
X144739484Y-105446737D01*
X144740000Y-105457249D01*
X144740000Y-105992751D01*
X144739484Y-106003263D01*
X144737939Y-106013674D01*
X144735382Y-106023884D01*
X144731836Y-106033793D01*
X144727336Y-106043308D01*
X144721925Y-106052335D01*
X144715656Y-106060789D01*
X144708587Y-106068587D01*
X144700789Y-106075656D01*
X144692335Y-106081925D01*
X144683308Y-106087336D01*
X144673793Y-106091836D01*
X144663884Y-106095382D01*
X144653674Y-106097939D01*
X144643263Y-106099484D01*
X144632751Y-106100000D01*
X143797249Y-106100000D01*
X143786737Y-106099484D01*
X143776326Y-106097939D01*
X143766116Y-106095382D01*
X143756207Y-106091836D01*
X143746692Y-106087336D01*
X143737665Y-106081925D01*
X143729211Y-106075656D01*
X143721413Y-106068587D01*
X143714344Y-106060789D01*
X143708075Y-106052335D01*
X143702664Y-106043308D01*
X143698164Y-106033793D01*
X143694618Y-106023884D01*
X143692061Y-106013674D01*
X143690516Y-106003263D01*
X143690000Y-105992751D01*
X143690000Y-105457249D01*
X143690516Y-105446737D01*
X143692061Y-105436326D01*
X143694618Y-105426116D01*
X143698164Y-105416207D01*
X143702664Y-105406692D01*
X143708075Y-105397665D01*
X143714344Y-105389211D01*
X143721413Y-105381413D01*
X143729211Y-105374344D01*
X143737665Y-105368075D01*
X143746692Y-105362664D01*
X143756207Y-105358164D01*
X143766116Y-105354618D01*
X143776326Y-105352061D01*
X143786737Y-105350516D01*
X143797249Y-105350000D01*
X144632751Y-105350000D01*
X144643263Y-105350516D01*
X144643263Y-105350516D01*
G37*
D14*
X144215000Y-105725000D03*
D13*
G36*
X144643263Y-104400516D02*
G01*
X144653674Y-104402061D01*
X144663884Y-104404618D01*
X144673793Y-104408164D01*
X144683308Y-104412664D01*
X144692335Y-104418075D01*
X144700789Y-104424344D01*
X144708587Y-104431413D01*
X144715656Y-104439211D01*
X144721925Y-104447665D01*
X144727336Y-104456692D01*
X144731836Y-104466207D01*
X144735382Y-104476116D01*
X144737939Y-104486326D01*
X144739484Y-104496737D01*
X144740000Y-104507249D01*
X144740000Y-105042751D01*
X144739484Y-105053263D01*
X144737939Y-105063674D01*
X144735382Y-105073884D01*
X144731836Y-105083793D01*
X144727336Y-105093308D01*
X144721925Y-105102335D01*
X144715656Y-105110789D01*
X144708587Y-105118587D01*
X144700789Y-105125656D01*
X144692335Y-105131925D01*
X144683308Y-105137336D01*
X144673793Y-105141836D01*
X144663884Y-105145382D01*
X144653674Y-105147939D01*
X144643263Y-105149484D01*
X144632751Y-105150000D01*
X143797249Y-105150000D01*
X143786737Y-105149484D01*
X143776326Y-105147939D01*
X143766116Y-105145382D01*
X143756207Y-105141836D01*
X143746692Y-105137336D01*
X143737665Y-105131925D01*
X143729211Y-105125656D01*
X143721413Y-105118587D01*
X143714344Y-105110789D01*
X143708075Y-105102335D01*
X143702664Y-105093308D01*
X143698164Y-105083793D01*
X143694618Y-105073884D01*
X143692061Y-105063674D01*
X143690516Y-105053263D01*
X143690000Y-105042751D01*
X143690000Y-104507249D01*
X143690516Y-104496737D01*
X143692061Y-104486326D01*
X143694618Y-104476116D01*
X143698164Y-104466207D01*
X143702664Y-104456692D01*
X143708075Y-104447665D01*
X143714344Y-104439211D01*
X143721413Y-104431413D01*
X143729211Y-104424344D01*
X143737665Y-104418075D01*
X143746692Y-104412664D01*
X143756207Y-104408164D01*
X143766116Y-104404618D01*
X143776326Y-104402061D01*
X143786737Y-104400516D01*
X143797249Y-104400000D01*
X144632751Y-104400000D01*
X144643263Y-104400516D01*
X144643263Y-104400516D01*
G37*
D14*
X144215000Y-104775000D03*
D15*
X144215000Y-103825000D03*
D13*
G36*
X121275505Y-111010311D02*
G01*
X121301925Y-111014230D01*
X121327835Y-111020720D01*
X121352983Y-111029718D01*
X121377128Y-111041138D01*
X121400038Y-111054869D01*
X121421492Y-111070780D01*
X121441282Y-111088718D01*
X121459220Y-111108508D01*
X121475131Y-111129962D01*
X121488862Y-111152872D01*
X121500282Y-111177017D01*
X121509280Y-111202165D01*
X121515770Y-111228075D01*
X121519689Y-111254495D01*
X121521000Y-111281173D01*
X121521000Y-112238827D01*
X121519689Y-112265505D01*
X121515770Y-112291925D01*
X121509280Y-112317835D01*
X121500282Y-112342983D01*
X121488862Y-112367128D01*
X121475131Y-112390038D01*
X121459220Y-112411492D01*
X121441282Y-112431282D01*
X121421492Y-112449220D01*
X121400038Y-112465131D01*
X121377128Y-112478862D01*
X121352983Y-112490282D01*
X121327835Y-112499280D01*
X121301925Y-112505770D01*
X121275505Y-112509689D01*
X121248827Y-112511000D01*
X120541173Y-112511000D01*
X120514495Y-112509689D01*
X120488075Y-112505770D01*
X120462165Y-112499280D01*
X120437017Y-112490282D01*
X120412872Y-112478862D01*
X120389962Y-112465131D01*
X120368508Y-112449220D01*
X120348718Y-112431282D01*
X120330780Y-112411492D01*
X120314869Y-112390038D01*
X120301138Y-112367128D01*
X120289718Y-112342983D01*
X120280720Y-112317835D01*
X120274230Y-112291925D01*
X120270311Y-112265505D01*
X120269000Y-112238827D01*
X120269000Y-111281173D01*
X120270311Y-111254495D01*
X120274230Y-111228075D01*
X120280720Y-111202165D01*
X120289718Y-111177017D01*
X120301138Y-111152872D01*
X120314869Y-111129962D01*
X120330780Y-111108508D01*
X120348718Y-111088718D01*
X120368508Y-111070780D01*
X120389962Y-111054869D01*
X120412872Y-111041138D01*
X120437017Y-111029718D01*
X120462165Y-111020720D01*
X120488075Y-111014230D01*
X120514495Y-111010311D01*
X120541173Y-111009000D01*
X121248827Y-111009000D01*
X121275505Y-111010311D01*
X121275505Y-111010311D01*
G37*
D16*
X120895000Y-111760000D03*
D13*
G36*
X123325505Y-111010311D02*
G01*
X123351925Y-111014230D01*
X123377835Y-111020720D01*
X123402983Y-111029718D01*
X123427128Y-111041138D01*
X123450038Y-111054869D01*
X123471492Y-111070780D01*
X123491282Y-111088718D01*
X123509220Y-111108508D01*
X123525131Y-111129962D01*
X123538862Y-111152872D01*
X123550282Y-111177017D01*
X123559280Y-111202165D01*
X123565770Y-111228075D01*
X123569689Y-111254495D01*
X123571000Y-111281173D01*
X123571000Y-112238827D01*
X123569689Y-112265505D01*
X123565770Y-112291925D01*
X123559280Y-112317835D01*
X123550282Y-112342983D01*
X123538862Y-112367128D01*
X123525131Y-112390038D01*
X123509220Y-112411492D01*
X123491282Y-112431282D01*
X123471492Y-112449220D01*
X123450038Y-112465131D01*
X123427128Y-112478862D01*
X123402983Y-112490282D01*
X123377835Y-112499280D01*
X123351925Y-112505770D01*
X123325505Y-112509689D01*
X123298827Y-112511000D01*
X122591173Y-112511000D01*
X122564495Y-112509689D01*
X122538075Y-112505770D01*
X122512165Y-112499280D01*
X122487017Y-112490282D01*
X122462872Y-112478862D01*
X122439962Y-112465131D01*
X122418508Y-112449220D01*
X122398718Y-112431282D01*
X122380780Y-112411492D01*
X122364869Y-112390038D01*
X122351138Y-112367128D01*
X122339718Y-112342983D01*
X122330720Y-112317835D01*
X122324230Y-112291925D01*
X122320311Y-112265505D01*
X122319000Y-112238827D01*
X122319000Y-111281173D01*
X122320311Y-111254495D01*
X122324230Y-111228075D01*
X122330720Y-111202165D01*
X122339718Y-111177017D01*
X122351138Y-111152872D01*
X122364869Y-111129962D01*
X122380780Y-111108508D01*
X122398718Y-111088718D01*
X122418508Y-111070780D01*
X122439962Y-111054869D01*
X122462872Y-111041138D01*
X122487017Y-111029718D01*
X122512165Y-111020720D01*
X122538075Y-111014230D01*
X122564495Y-111010311D01*
X122591173Y-111009000D01*
X123298827Y-111009000D01*
X123325505Y-111010311D01*
X123325505Y-111010311D01*
G37*
D16*
X122945000Y-111760000D03*
D13*
G36*
X107820505Y-120905311D02*
G01*
X107846925Y-120909230D01*
X107872835Y-120915720D01*
X107897983Y-120924718D01*
X107922128Y-120936138D01*
X107945038Y-120949869D01*
X107966492Y-120965780D01*
X107986282Y-120983718D01*
X108004220Y-121003508D01*
X108020131Y-121024962D01*
X108033862Y-121047872D01*
X108045282Y-121072017D01*
X108054280Y-121097165D01*
X108060770Y-121123075D01*
X108064689Y-121149495D01*
X108066000Y-121176173D01*
X108066000Y-121883827D01*
X108064689Y-121910505D01*
X108060770Y-121936925D01*
X108054280Y-121962835D01*
X108045282Y-121987983D01*
X108033862Y-122012128D01*
X108020131Y-122035038D01*
X108004220Y-122056492D01*
X107986282Y-122076282D01*
X107966492Y-122094220D01*
X107945038Y-122110131D01*
X107922128Y-122123862D01*
X107897983Y-122135282D01*
X107872835Y-122144280D01*
X107846925Y-122150770D01*
X107820505Y-122154689D01*
X107793827Y-122156000D01*
X106836173Y-122156000D01*
X106809495Y-122154689D01*
X106783075Y-122150770D01*
X106757165Y-122144280D01*
X106732017Y-122135282D01*
X106707872Y-122123862D01*
X106684962Y-122110131D01*
X106663508Y-122094220D01*
X106643718Y-122076282D01*
X106625780Y-122056492D01*
X106609869Y-122035038D01*
X106596138Y-122012128D01*
X106584718Y-121987983D01*
X106575720Y-121962835D01*
X106569230Y-121936925D01*
X106565311Y-121910505D01*
X106564000Y-121883827D01*
X106564000Y-121176173D01*
X106565311Y-121149495D01*
X106569230Y-121123075D01*
X106575720Y-121097165D01*
X106584718Y-121072017D01*
X106596138Y-121047872D01*
X106609869Y-121024962D01*
X106625780Y-121003508D01*
X106643718Y-120983718D01*
X106663508Y-120965780D01*
X106684962Y-120949869D01*
X106707872Y-120936138D01*
X106732017Y-120924718D01*
X106757165Y-120915720D01*
X106783075Y-120909230D01*
X106809495Y-120905311D01*
X106836173Y-120904000D01*
X107793827Y-120904000D01*
X107820505Y-120905311D01*
X107820505Y-120905311D01*
G37*
D16*
X107315000Y-121530000D03*
D13*
G36*
X107820505Y-122955311D02*
G01*
X107846925Y-122959230D01*
X107872835Y-122965720D01*
X107897983Y-122974718D01*
X107922128Y-122986138D01*
X107945038Y-122999869D01*
X107966492Y-123015780D01*
X107986282Y-123033718D01*
X108004220Y-123053508D01*
X108020131Y-123074962D01*
X108033862Y-123097872D01*
X108045282Y-123122017D01*
X108054280Y-123147165D01*
X108060770Y-123173075D01*
X108064689Y-123199495D01*
X108066000Y-123226173D01*
X108066000Y-123933827D01*
X108064689Y-123960505D01*
X108060770Y-123986925D01*
X108054280Y-124012835D01*
X108045282Y-124037983D01*
X108033862Y-124062128D01*
X108020131Y-124085038D01*
X108004220Y-124106492D01*
X107986282Y-124126282D01*
X107966492Y-124144220D01*
X107945038Y-124160131D01*
X107922128Y-124173862D01*
X107897983Y-124185282D01*
X107872835Y-124194280D01*
X107846925Y-124200770D01*
X107820505Y-124204689D01*
X107793827Y-124206000D01*
X106836173Y-124206000D01*
X106809495Y-124204689D01*
X106783075Y-124200770D01*
X106757165Y-124194280D01*
X106732017Y-124185282D01*
X106707872Y-124173862D01*
X106684962Y-124160131D01*
X106663508Y-124144220D01*
X106643718Y-124126282D01*
X106625780Y-124106492D01*
X106609869Y-124085038D01*
X106596138Y-124062128D01*
X106584718Y-124037983D01*
X106575720Y-124012835D01*
X106569230Y-123986925D01*
X106565311Y-123960505D01*
X106564000Y-123933827D01*
X106564000Y-123226173D01*
X106565311Y-123199495D01*
X106569230Y-123173075D01*
X106575720Y-123147165D01*
X106584718Y-123122017D01*
X106596138Y-123097872D01*
X106609869Y-123074962D01*
X106625780Y-123053508D01*
X106643718Y-123033718D01*
X106663508Y-123015780D01*
X106684962Y-122999869D01*
X106707872Y-122986138D01*
X106732017Y-122974718D01*
X106757165Y-122965720D01*
X106783075Y-122959230D01*
X106809495Y-122955311D01*
X106836173Y-122954000D01*
X107793827Y-122954000D01*
X107820505Y-122955311D01*
X107820505Y-122955311D01*
G37*
D16*
X107315000Y-123580000D03*
D13*
G36*
X107820505Y-86125311D02*
G01*
X107846925Y-86129230D01*
X107872835Y-86135720D01*
X107897983Y-86144718D01*
X107922128Y-86156138D01*
X107945038Y-86169869D01*
X107966492Y-86185780D01*
X107986282Y-86203718D01*
X108004220Y-86223508D01*
X108020131Y-86244962D01*
X108033862Y-86267872D01*
X108045282Y-86292017D01*
X108054280Y-86317165D01*
X108060770Y-86343075D01*
X108064689Y-86369495D01*
X108066000Y-86396173D01*
X108066000Y-87103827D01*
X108064689Y-87130505D01*
X108060770Y-87156925D01*
X108054280Y-87182835D01*
X108045282Y-87207983D01*
X108033862Y-87232128D01*
X108020131Y-87255038D01*
X108004220Y-87276492D01*
X107986282Y-87296282D01*
X107966492Y-87314220D01*
X107945038Y-87330131D01*
X107922128Y-87343862D01*
X107897983Y-87355282D01*
X107872835Y-87364280D01*
X107846925Y-87370770D01*
X107820505Y-87374689D01*
X107793827Y-87376000D01*
X106836173Y-87376000D01*
X106809495Y-87374689D01*
X106783075Y-87370770D01*
X106757165Y-87364280D01*
X106732017Y-87355282D01*
X106707872Y-87343862D01*
X106684962Y-87330131D01*
X106663508Y-87314220D01*
X106643718Y-87296282D01*
X106625780Y-87276492D01*
X106609869Y-87255038D01*
X106596138Y-87232128D01*
X106584718Y-87207983D01*
X106575720Y-87182835D01*
X106569230Y-87156925D01*
X106565311Y-87130505D01*
X106564000Y-87103827D01*
X106564000Y-86396173D01*
X106565311Y-86369495D01*
X106569230Y-86343075D01*
X106575720Y-86317165D01*
X106584718Y-86292017D01*
X106596138Y-86267872D01*
X106609869Y-86244962D01*
X106625780Y-86223508D01*
X106643718Y-86203718D01*
X106663508Y-86185780D01*
X106684962Y-86169869D01*
X106707872Y-86156138D01*
X106732017Y-86144718D01*
X106757165Y-86135720D01*
X106783075Y-86129230D01*
X106809495Y-86125311D01*
X106836173Y-86124000D01*
X107793827Y-86124000D01*
X107820505Y-86125311D01*
X107820505Y-86125311D01*
G37*
D16*
X107315000Y-86750000D03*
D13*
G36*
X107820505Y-84075311D02*
G01*
X107846925Y-84079230D01*
X107872835Y-84085720D01*
X107897983Y-84094718D01*
X107922128Y-84106138D01*
X107945038Y-84119869D01*
X107966492Y-84135780D01*
X107986282Y-84153718D01*
X108004220Y-84173508D01*
X108020131Y-84194962D01*
X108033862Y-84217872D01*
X108045282Y-84242017D01*
X108054280Y-84267165D01*
X108060770Y-84293075D01*
X108064689Y-84319495D01*
X108066000Y-84346173D01*
X108066000Y-85053827D01*
X108064689Y-85080505D01*
X108060770Y-85106925D01*
X108054280Y-85132835D01*
X108045282Y-85157983D01*
X108033862Y-85182128D01*
X108020131Y-85205038D01*
X108004220Y-85226492D01*
X107986282Y-85246282D01*
X107966492Y-85264220D01*
X107945038Y-85280131D01*
X107922128Y-85293862D01*
X107897983Y-85305282D01*
X107872835Y-85314280D01*
X107846925Y-85320770D01*
X107820505Y-85324689D01*
X107793827Y-85326000D01*
X106836173Y-85326000D01*
X106809495Y-85324689D01*
X106783075Y-85320770D01*
X106757165Y-85314280D01*
X106732017Y-85305282D01*
X106707872Y-85293862D01*
X106684962Y-85280131D01*
X106663508Y-85264220D01*
X106643718Y-85246282D01*
X106625780Y-85226492D01*
X106609869Y-85205038D01*
X106596138Y-85182128D01*
X106584718Y-85157983D01*
X106575720Y-85132835D01*
X106569230Y-85106925D01*
X106565311Y-85080505D01*
X106564000Y-85053827D01*
X106564000Y-84346173D01*
X106565311Y-84319495D01*
X106569230Y-84293075D01*
X106575720Y-84267165D01*
X106584718Y-84242017D01*
X106596138Y-84217872D01*
X106609869Y-84194962D01*
X106625780Y-84173508D01*
X106643718Y-84153718D01*
X106663508Y-84135780D01*
X106684962Y-84119869D01*
X106707872Y-84106138D01*
X106732017Y-84094718D01*
X106757165Y-84085720D01*
X106783075Y-84079230D01*
X106809495Y-84075311D01*
X106836173Y-84074000D01*
X107793827Y-84074000D01*
X107820505Y-84075311D01*
X107820505Y-84075311D01*
G37*
D16*
X107315000Y-84700000D03*
D13*
G36*
X113535505Y-86125311D02*
G01*
X113561925Y-86129230D01*
X113587835Y-86135720D01*
X113612983Y-86144718D01*
X113637128Y-86156138D01*
X113660038Y-86169869D01*
X113681492Y-86185780D01*
X113701282Y-86203718D01*
X113719220Y-86223508D01*
X113735131Y-86244962D01*
X113748862Y-86267872D01*
X113760282Y-86292017D01*
X113769280Y-86317165D01*
X113775770Y-86343075D01*
X113779689Y-86369495D01*
X113781000Y-86396173D01*
X113781000Y-87103827D01*
X113779689Y-87130505D01*
X113775770Y-87156925D01*
X113769280Y-87182835D01*
X113760282Y-87207983D01*
X113748862Y-87232128D01*
X113735131Y-87255038D01*
X113719220Y-87276492D01*
X113701282Y-87296282D01*
X113681492Y-87314220D01*
X113660038Y-87330131D01*
X113637128Y-87343862D01*
X113612983Y-87355282D01*
X113587835Y-87364280D01*
X113561925Y-87370770D01*
X113535505Y-87374689D01*
X113508827Y-87376000D01*
X112551173Y-87376000D01*
X112524495Y-87374689D01*
X112498075Y-87370770D01*
X112472165Y-87364280D01*
X112447017Y-87355282D01*
X112422872Y-87343862D01*
X112399962Y-87330131D01*
X112378508Y-87314220D01*
X112358718Y-87296282D01*
X112340780Y-87276492D01*
X112324869Y-87255038D01*
X112311138Y-87232128D01*
X112299718Y-87207983D01*
X112290720Y-87182835D01*
X112284230Y-87156925D01*
X112280311Y-87130505D01*
X112279000Y-87103827D01*
X112279000Y-86396173D01*
X112280311Y-86369495D01*
X112284230Y-86343075D01*
X112290720Y-86317165D01*
X112299718Y-86292017D01*
X112311138Y-86267872D01*
X112324869Y-86244962D01*
X112340780Y-86223508D01*
X112358718Y-86203718D01*
X112378508Y-86185780D01*
X112399962Y-86169869D01*
X112422872Y-86156138D01*
X112447017Y-86144718D01*
X112472165Y-86135720D01*
X112498075Y-86129230D01*
X112524495Y-86125311D01*
X112551173Y-86124000D01*
X113508827Y-86124000D01*
X113535505Y-86125311D01*
X113535505Y-86125311D01*
G37*
D16*
X113030000Y-86750000D03*
D13*
G36*
X113535505Y-84075311D02*
G01*
X113561925Y-84079230D01*
X113587835Y-84085720D01*
X113612983Y-84094718D01*
X113637128Y-84106138D01*
X113660038Y-84119869D01*
X113681492Y-84135780D01*
X113701282Y-84153718D01*
X113719220Y-84173508D01*
X113735131Y-84194962D01*
X113748862Y-84217872D01*
X113760282Y-84242017D01*
X113769280Y-84267165D01*
X113775770Y-84293075D01*
X113779689Y-84319495D01*
X113781000Y-84346173D01*
X113781000Y-85053827D01*
X113779689Y-85080505D01*
X113775770Y-85106925D01*
X113769280Y-85132835D01*
X113760282Y-85157983D01*
X113748862Y-85182128D01*
X113735131Y-85205038D01*
X113719220Y-85226492D01*
X113701282Y-85246282D01*
X113681492Y-85264220D01*
X113660038Y-85280131D01*
X113637128Y-85293862D01*
X113612983Y-85305282D01*
X113587835Y-85314280D01*
X113561925Y-85320770D01*
X113535505Y-85324689D01*
X113508827Y-85326000D01*
X112551173Y-85326000D01*
X112524495Y-85324689D01*
X112498075Y-85320770D01*
X112472165Y-85314280D01*
X112447017Y-85305282D01*
X112422872Y-85293862D01*
X112399962Y-85280131D01*
X112378508Y-85264220D01*
X112358718Y-85246282D01*
X112340780Y-85226492D01*
X112324869Y-85205038D01*
X112311138Y-85182128D01*
X112299718Y-85157983D01*
X112290720Y-85132835D01*
X112284230Y-85106925D01*
X112280311Y-85080505D01*
X112279000Y-85053827D01*
X112279000Y-84346173D01*
X112280311Y-84319495D01*
X112284230Y-84293075D01*
X112290720Y-84267165D01*
X112299718Y-84242017D01*
X112311138Y-84217872D01*
X112324869Y-84194962D01*
X112340780Y-84173508D01*
X112358718Y-84153718D01*
X112378508Y-84135780D01*
X112399962Y-84119869D01*
X112422872Y-84106138D01*
X112447017Y-84094718D01*
X112472165Y-84085720D01*
X112498075Y-84079230D01*
X112524495Y-84075311D01*
X112551173Y-84074000D01*
X113508827Y-84074000D01*
X113535505Y-84075311D01*
X113535505Y-84075311D01*
G37*
D16*
X113030000Y-84700000D03*
D17*
X153035000Y-109220000D03*
X153035000Y-106680000D03*
X153035000Y-104140000D03*
X153035000Y-101600000D03*
D18*
X153035000Y-99060000D03*
D17*
X106680000Y-92710000D03*
X104140000Y-92710000D03*
X106680000Y-95250000D03*
X104140000Y-95250000D03*
X106680000Y-97790000D03*
X104140000Y-97790000D03*
X106680000Y-100330000D03*
X104140000Y-100330000D03*
X106680000Y-102870000D03*
X104140000Y-102870000D03*
X106680000Y-105410000D03*
X104140000Y-105410000D03*
X106680000Y-107950000D03*
X104140000Y-107950000D03*
X106680000Y-110490000D03*
X104140000Y-110490000D03*
X106680000Y-113030000D03*
X104140000Y-113030000D03*
X106680000Y-115570000D03*
D18*
X104140000Y-115570000D03*
D13*
G36*
X116440505Y-105930311D02*
G01*
X116466925Y-105934230D01*
X116492835Y-105940720D01*
X116517983Y-105949718D01*
X116542128Y-105961138D01*
X116565038Y-105974869D01*
X116586492Y-105990780D01*
X116606282Y-106008718D01*
X116624220Y-106028508D01*
X116640131Y-106049962D01*
X116653862Y-106072872D01*
X116665282Y-106097017D01*
X116674280Y-106122165D01*
X116680770Y-106148075D01*
X116684689Y-106174495D01*
X116686000Y-106201173D01*
X116686000Y-107158827D01*
X116684689Y-107185505D01*
X116680770Y-107211925D01*
X116674280Y-107237835D01*
X116665282Y-107262983D01*
X116653862Y-107287128D01*
X116640131Y-107310038D01*
X116624220Y-107331492D01*
X116606282Y-107351282D01*
X116586492Y-107369220D01*
X116565038Y-107385131D01*
X116542128Y-107398862D01*
X116517983Y-107410282D01*
X116492835Y-107419280D01*
X116466925Y-107425770D01*
X116440505Y-107429689D01*
X116413827Y-107431000D01*
X115706173Y-107431000D01*
X115679495Y-107429689D01*
X115653075Y-107425770D01*
X115627165Y-107419280D01*
X115602017Y-107410282D01*
X115577872Y-107398862D01*
X115554962Y-107385131D01*
X115533508Y-107369220D01*
X115513718Y-107351282D01*
X115495780Y-107331492D01*
X115479869Y-107310038D01*
X115466138Y-107287128D01*
X115454718Y-107262983D01*
X115445720Y-107237835D01*
X115439230Y-107211925D01*
X115435311Y-107185505D01*
X115434000Y-107158827D01*
X115434000Y-106201173D01*
X115435311Y-106174495D01*
X115439230Y-106148075D01*
X115445720Y-106122165D01*
X115454718Y-106097017D01*
X115466138Y-106072872D01*
X115479869Y-106049962D01*
X115495780Y-106028508D01*
X115513718Y-106008718D01*
X115533508Y-105990780D01*
X115554962Y-105974869D01*
X115577872Y-105961138D01*
X115602017Y-105949718D01*
X115627165Y-105940720D01*
X115653075Y-105934230D01*
X115679495Y-105930311D01*
X115706173Y-105929000D01*
X116413827Y-105929000D01*
X116440505Y-105930311D01*
X116440505Y-105930311D01*
G37*
D16*
X116060000Y-106680000D03*
D13*
G36*
X118490505Y-105930311D02*
G01*
X118516925Y-105934230D01*
X118542835Y-105940720D01*
X118567983Y-105949718D01*
X118592128Y-105961138D01*
X118615038Y-105974869D01*
X118636492Y-105990780D01*
X118656282Y-106008718D01*
X118674220Y-106028508D01*
X118690131Y-106049962D01*
X118703862Y-106072872D01*
X118715282Y-106097017D01*
X118724280Y-106122165D01*
X118730770Y-106148075D01*
X118734689Y-106174495D01*
X118736000Y-106201173D01*
X118736000Y-107158827D01*
X118734689Y-107185505D01*
X118730770Y-107211925D01*
X118724280Y-107237835D01*
X118715282Y-107262983D01*
X118703862Y-107287128D01*
X118690131Y-107310038D01*
X118674220Y-107331492D01*
X118656282Y-107351282D01*
X118636492Y-107369220D01*
X118615038Y-107385131D01*
X118592128Y-107398862D01*
X118567983Y-107410282D01*
X118542835Y-107419280D01*
X118516925Y-107425770D01*
X118490505Y-107429689D01*
X118463827Y-107431000D01*
X117756173Y-107431000D01*
X117729495Y-107429689D01*
X117703075Y-107425770D01*
X117677165Y-107419280D01*
X117652017Y-107410282D01*
X117627872Y-107398862D01*
X117604962Y-107385131D01*
X117583508Y-107369220D01*
X117563718Y-107351282D01*
X117545780Y-107331492D01*
X117529869Y-107310038D01*
X117516138Y-107287128D01*
X117504718Y-107262983D01*
X117495720Y-107237835D01*
X117489230Y-107211925D01*
X117485311Y-107185505D01*
X117484000Y-107158827D01*
X117484000Y-106201173D01*
X117485311Y-106174495D01*
X117489230Y-106148075D01*
X117495720Y-106122165D01*
X117504718Y-106097017D01*
X117516138Y-106072872D01*
X117529869Y-106049962D01*
X117545780Y-106028508D01*
X117563718Y-106008718D01*
X117583508Y-105990780D01*
X117604962Y-105974869D01*
X117627872Y-105961138D01*
X117652017Y-105949718D01*
X117677165Y-105940720D01*
X117703075Y-105934230D01*
X117729495Y-105930311D01*
X117756173Y-105929000D01*
X118463827Y-105929000D01*
X118490505Y-105930311D01*
X118490505Y-105930311D01*
G37*
D16*
X118110000Y-106680000D03*
D13*
G36*
X118615505Y-98680311D02*
G01*
X118641925Y-98684230D01*
X118667835Y-98690720D01*
X118692983Y-98699718D01*
X118717128Y-98711138D01*
X118740038Y-98724869D01*
X118761492Y-98740780D01*
X118781282Y-98758718D01*
X118799220Y-98778508D01*
X118815131Y-98799962D01*
X118828862Y-98822872D01*
X118840282Y-98847017D01*
X118849280Y-98872165D01*
X118855770Y-98898075D01*
X118859689Y-98924495D01*
X118861000Y-98951173D01*
X118861000Y-99658827D01*
X118859689Y-99685505D01*
X118855770Y-99711925D01*
X118849280Y-99737835D01*
X118840282Y-99762983D01*
X118828862Y-99787128D01*
X118815131Y-99810038D01*
X118799220Y-99831492D01*
X118781282Y-99851282D01*
X118761492Y-99869220D01*
X118740038Y-99885131D01*
X118717128Y-99898862D01*
X118692983Y-99910282D01*
X118667835Y-99919280D01*
X118641925Y-99925770D01*
X118615505Y-99929689D01*
X118588827Y-99931000D01*
X117631173Y-99931000D01*
X117604495Y-99929689D01*
X117578075Y-99925770D01*
X117552165Y-99919280D01*
X117527017Y-99910282D01*
X117502872Y-99898862D01*
X117479962Y-99885131D01*
X117458508Y-99869220D01*
X117438718Y-99851282D01*
X117420780Y-99831492D01*
X117404869Y-99810038D01*
X117391138Y-99787128D01*
X117379718Y-99762983D01*
X117370720Y-99737835D01*
X117364230Y-99711925D01*
X117360311Y-99685505D01*
X117359000Y-99658827D01*
X117359000Y-98951173D01*
X117360311Y-98924495D01*
X117364230Y-98898075D01*
X117370720Y-98872165D01*
X117379718Y-98847017D01*
X117391138Y-98822872D01*
X117404869Y-98799962D01*
X117420780Y-98778508D01*
X117438718Y-98758718D01*
X117458508Y-98740780D01*
X117479962Y-98724869D01*
X117502872Y-98711138D01*
X117527017Y-98699718D01*
X117552165Y-98690720D01*
X117578075Y-98684230D01*
X117604495Y-98680311D01*
X117631173Y-98679000D01*
X118588827Y-98679000D01*
X118615505Y-98680311D01*
X118615505Y-98680311D01*
G37*
D16*
X118110000Y-99305000D03*
D13*
G36*
X118615505Y-100730311D02*
G01*
X118641925Y-100734230D01*
X118667835Y-100740720D01*
X118692983Y-100749718D01*
X118717128Y-100761138D01*
X118740038Y-100774869D01*
X118761492Y-100790780D01*
X118781282Y-100808718D01*
X118799220Y-100828508D01*
X118815131Y-100849962D01*
X118828862Y-100872872D01*
X118840282Y-100897017D01*
X118849280Y-100922165D01*
X118855770Y-100948075D01*
X118859689Y-100974495D01*
X118861000Y-101001173D01*
X118861000Y-101708827D01*
X118859689Y-101735505D01*
X118855770Y-101761925D01*
X118849280Y-101787835D01*
X118840282Y-101812983D01*
X118828862Y-101837128D01*
X118815131Y-101860038D01*
X118799220Y-101881492D01*
X118781282Y-101901282D01*
X118761492Y-101919220D01*
X118740038Y-101935131D01*
X118717128Y-101948862D01*
X118692983Y-101960282D01*
X118667835Y-101969280D01*
X118641925Y-101975770D01*
X118615505Y-101979689D01*
X118588827Y-101981000D01*
X117631173Y-101981000D01*
X117604495Y-101979689D01*
X117578075Y-101975770D01*
X117552165Y-101969280D01*
X117527017Y-101960282D01*
X117502872Y-101948862D01*
X117479962Y-101935131D01*
X117458508Y-101919220D01*
X117438718Y-101901282D01*
X117420780Y-101881492D01*
X117404869Y-101860038D01*
X117391138Y-101837128D01*
X117379718Y-101812983D01*
X117370720Y-101787835D01*
X117364230Y-101761925D01*
X117360311Y-101735505D01*
X117359000Y-101708827D01*
X117359000Y-101001173D01*
X117360311Y-100974495D01*
X117364230Y-100948075D01*
X117370720Y-100922165D01*
X117379718Y-100897017D01*
X117391138Y-100872872D01*
X117404869Y-100849962D01*
X117420780Y-100828508D01*
X117438718Y-100808718D01*
X117458508Y-100790780D01*
X117479962Y-100774869D01*
X117502872Y-100761138D01*
X117527017Y-100749718D01*
X117552165Y-100740720D01*
X117578075Y-100734230D01*
X117604495Y-100730311D01*
X117631173Y-100729000D01*
X118588827Y-100729000D01*
X118615505Y-100730311D01*
X118615505Y-100730311D01*
G37*
D16*
X118110000Y-101355000D03*
D13*
G36*
X116075505Y-115335311D02*
G01*
X116101925Y-115339230D01*
X116127835Y-115345720D01*
X116152983Y-115354718D01*
X116177128Y-115366138D01*
X116200038Y-115379869D01*
X116221492Y-115395780D01*
X116241282Y-115413718D01*
X116259220Y-115433508D01*
X116275131Y-115454962D01*
X116288862Y-115477872D01*
X116300282Y-115502017D01*
X116309280Y-115527165D01*
X116315770Y-115553075D01*
X116319689Y-115579495D01*
X116321000Y-115606173D01*
X116321000Y-116313827D01*
X116319689Y-116340505D01*
X116315770Y-116366925D01*
X116309280Y-116392835D01*
X116300282Y-116417983D01*
X116288862Y-116442128D01*
X116275131Y-116465038D01*
X116259220Y-116486492D01*
X116241282Y-116506282D01*
X116221492Y-116524220D01*
X116200038Y-116540131D01*
X116177128Y-116553862D01*
X116152983Y-116565282D01*
X116127835Y-116574280D01*
X116101925Y-116580770D01*
X116075505Y-116584689D01*
X116048827Y-116586000D01*
X115091173Y-116586000D01*
X115064495Y-116584689D01*
X115038075Y-116580770D01*
X115012165Y-116574280D01*
X114987017Y-116565282D01*
X114962872Y-116553862D01*
X114939962Y-116540131D01*
X114918508Y-116524220D01*
X114898718Y-116506282D01*
X114880780Y-116486492D01*
X114864869Y-116465038D01*
X114851138Y-116442128D01*
X114839718Y-116417983D01*
X114830720Y-116392835D01*
X114824230Y-116366925D01*
X114820311Y-116340505D01*
X114819000Y-116313827D01*
X114819000Y-115606173D01*
X114820311Y-115579495D01*
X114824230Y-115553075D01*
X114830720Y-115527165D01*
X114839718Y-115502017D01*
X114851138Y-115477872D01*
X114864869Y-115454962D01*
X114880780Y-115433508D01*
X114898718Y-115413718D01*
X114918508Y-115395780D01*
X114939962Y-115379869D01*
X114962872Y-115366138D01*
X114987017Y-115354718D01*
X115012165Y-115345720D01*
X115038075Y-115339230D01*
X115064495Y-115335311D01*
X115091173Y-115334000D01*
X116048827Y-115334000D01*
X116075505Y-115335311D01*
X116075505Y-115335311D01*
G37*
D16*
X115570000Y-115960000D03*
D13*
G36*
X116075505Y-113285311D02*
G01*
X116101925Y-113289230D01*
X116127835Y-113295720D01*
X116152983Y-113304718D01*
X116177128Y-113316138D01*
X116200038Y-113329869D01*
X116221492Y-113345780D01*
X116241282Y-113363718D01*
X116259220Y-113383508D01*
X116275131Y-113404962D01*
X116288862Y-113427872D01*
X116300282Y-113452017D01*
X116309280Y-113477165D01*
X116315770Y-113503075D01*
X116319689Y-113529495D01*
X116321000Y-113556173D01*
X116321000Y-114263827D01*
X116319689Y-114290505D01*
X116315770Y-114316925D01*
X116309280Y-114342835D01*
X116300282Y-114367983D01*
X116288862Y-114392128D01*
X116275131Y-114415038D01*
X116259220Y-114436492D01*
X116241282Y-114456282D01*
X116221492Y-114474220D01*
X116200038Y-114490131D01*
X116177128Y-114503862D01*
X116152983Y-114515282D01*
X116127835Y-114524280D01*
X116101925Y-114530770D01*
X116075505Y-114534689D01*
X116048827Y-114536000D01*
X115091173Y-114536000D01*
X115064495Y-114534689D01*
X115038075Y-114530770D01*
X115012165Y-114524280D01*
X114987017Y-114515282D01*
X114962872Y-114503862D01*
X114939962Y-114490131D01*
X114918508Y-114474220D01*
X114898718Y-114456282D01*
X114880780Y-114436492D01*
X114864869Y-114415038D01*
X114851138Y-114392128D01*
X114839718Y-114367983D01*
X114830720Y-114342835D01*
X114824230Y-114316925D01*
X114820311Y-114290505D01*
X114819000Y-114263827D01*
X114819000Y-113556173D01*
X114820311Y-113529495D01*
X114824230Y-113503075D01*
X114830720Y-113477165D01*
X114839718Y-113452017D01*
X114851138Y-113427872D01*
X114864869Y-113404962D01*
X114880780Y-113383508D01*
X114898718Y-113363718D01*
X114918508Y-113345780D01*
X114939962Y-113329869D01*
X114962872Y-113316138D01*
X114987017Y-113304718D01*
X115012165Y-113295720D01*
X115038075Y-113289230D01*
X115064495Y-113285311D01*
X115091173Y-113284000D01*
X116048827Y-113284000D01*
X116075505Y-113285311D01*
X116075505Y-113285311D01*
G37*
D16*
X115570000Y-113910000D03*
D13*
G36*
X116440505Y-108470311D02*
G01*
X116466925Y-108474230D01*
X116492835Y-108480720D01*
X116517983Y-108489718D01*
X116542128Y-108501138D01*
X116565038Y-108514869D01*
X116586492Y-108530780D01*
X116606282Y-108548718D01*
X116624220Y-108568508D01*
X116640131Y-108589962D01*
X116653862Y-108612872D01*
X116665282Y-108637017D01*
X116674280Y-108662165D01*
X116680770Y-108688075D01*
X116684689Y-108714495D01*
X116686000Y-108741173D01*
X116686000Y-109698827D01*
X116684689Y-109725505D01*
X116680770Y-109751925D01*
X116674280Y-109777835D01*
X116665282Y-109802983D01*
X116653862Y-109827128D01*
X116640131Y-109850038D01*
X116624220Y-109871492D01*
X116606282Y-109891282D01*
X116586492Y-109909220D01*
X116565038Y-109925131D01*
X116542128Y-109938862D01*
X116517983Y-109950282D01*
X116492835Y-109959280D01*
X116466925Y-109965770D01*
X116440505Y-109969689D01*
X116413827Y-109971000D01*
X115706173Y-109971000D01*
X115679495Y-109969689D01*
X115653075Y-109965770D01*
X115627165Y-109959280D01*
X115602017Y-109950282D01*
X115577872Y-109938862D01*
X115554962Y-109925131D01*
X115533508Y-109909220D01*
X115513718Y-109891282D01*
X115495780Y-109871492D01*
X115479869Y-109850038D01*
X115466138Y-109827128D01*
X115454718Y-109802983D01*
X115445720Y-109777835D01*
X115439230Y-109751925D01*
X115435311Y-109725505D01*
X115434000Y-109698827D01*
X115434000Y-108741173D01*
X115435311Y-108714495D01*
X115439230Y-108688075D01*
X115445720Y-108662165D01*
X115454718Y-108637017D01*
X115466138Y-108612872D01*
X115479869Y-108589962D01*
X115495780Y-108568508D01*
X115513718Y-108548718D01*
X115533508Y-108530780D01*
X115554962Y-108514869D01*
X115577872Y-108501138D01*
X115602017Y-108489718D01*
X115627165Y-108480720D01*
X115653075Y-108474230D01*
X115679495Y-108470311D01*
X115706173Y-108469000D01*
X116413827Y-108469000D01*
X116440505Y-108470311D01*
X116440505Y-108470311D01*
G37*
D16*
X116060000Y-109220000D03*
D13*
G36*
X118490505Y-108470311D02*
G01*
X118516925Y-108474230D01*
X118542835Y-108480720D01*
X118567983Y-108489718D01*
X118592128Y-108501138D01*
X118615038Y-108514869D01*
X118636492Y-108530780D01*
X118656282Y-108548718D01*
X118674220Y-108568508D01*
X118690131Y-108589962D01*
X118703862Y-108612872D01*
X118715282Y-108637017D01*
X118724280Y-108662165D01*
X118730770Y-108688075D01*
X118734689Y-108714495D01*
X118736000Y-108741173D01*
X118736000Y-109698827D01*
X118734689Y-109725505D01*
X118730770Y-109751925D01*
X118724280Y-109777835D01*
X118715282Y-109802983D01*
X118703862Y-109827128D01*
X118690131Y-109850038D01*
X118674220Y-109871492D01*
X118656282Y-109891282D01*
X118636492Y-109909220D01*
X118615038Y-109925131D01*
X118592128Y-109938862D01*
X118567983Y-109950282D01*
X118542835Y-109959280D01*
X118516925Y-109965770D01*
X118490505Y-109969689D01*
X118463827Y-109971000D01*
X117756173Y-109971000D01*
X117729495Y-109969689D01*
X117703075Y-109965770D01*
X117677165Y-109959280D01*
X117652017Y-109950282D01*
X117627872Y-109938862D01*
X117604962Y-109925131D01*
X117583508Y-109909220D01*
X117563718Y-109891282D01*
X117545780Y-109871492D01*
X117529869Y-109850038D01*
X117516138Y-109827128D01*
X117504718Y-109802983D01*
X117495720Y-109777835D01*
X117489230Y-109751925D01*
X117485311Y-109725505D01*
X117484000Y-109698827D01*
X117484000Y-108741173D01*
X117485311Y-108714495D01*
X117489230Y-108688075D01*
X117495720Y-108662165D01*
X117504718Y-108637017D01*
X117516138Y-108612872D01*
X117529869Y-108589962D01*
X117545780Y-108568508D01*
X117563718Y-108548718D01*
X117583508Y-108530780D01*
X117604962Y-108514869D01*
X117627872Y-108501138D01*
X117652017Y-108489718D01*
X117677165Y-108480720D01*
X117703075Y-108474230D01*
X117729495Y-108470311D01*
X117756173Y-108469000D01*
X118463827Y-108469000D01*
X118490505Y-108470311D01*
X118490505Y-108470311D01*
G37*
D16*
X118110000Y-109220000D03*
D13*
G36*
X119885505Y-113285311D02*
G01*
X119911925Y-113289230D01*
X119937835Y-113295720D01*
X119962983Y-113304718D01*
X119987128Y-113316138D01*
X120010038Y-113329869D01*
X120031492Y-113345780D01*
X120051282Y-113363718D01*
X120069220Y-113383508D01*
X120085131Y-113404962D01*
X120098862Y-113427872D01*
X120110282Y-113452017D01*
X120119280Y-113477165D01*
X120125770Y-113503075D01*
X120129689Y-113529495D01*
X120131000Y-113556173D01*
X120131000Y-114263827D01*
X120129689Y-114290505D01*
X120125770Y-114316925D01*
X120119280Y-114342835D01*
X120110282Y-114367983D01*
X120098862Y-114392128D01*
X120085131Y-114415038D01*
X120069220Y-114436492D01*
X120051282Y-114456282D01*
X120031492Y-114474220D01*
X120010038Y-114490131D01*
X119987128Y-114503862D01*
X119962983Y-114515282D01*
X119937835Y-114524280D01*
X119911925Y-114530770D01*
X119885505Y-114534689D01*
X119858827Y-114536000D01*
X118901173Y-114536000D01*
X118874495Y-114534689D01*
X118848075Y-114530770D01*
X118822165Y-114524280D01*
X118797017Y-114515282D01*
X118772872Y-114503862D01*
X118749962Y-114490131D01*
X118728508Y-114474220D01*
X118708718Y-114456282D01*
X118690780Y-114436492D01*
X118674869Y-114415038D01*
X118661138Y-114392128D01*
X118649718Y-114367983D01*
X118640720Y-114342835D01*
X118634230Y-114316925D01*
X118630311Y-114290505D01*
X118629000Y-114263827D01*
X118629000Y-113556173D01*
X118630311Y-113529495D01*
X118634230Y-113503075D01*
X118640720Y-113477165D01*
X118649718Y-113452017D01*
X118661138Y-113427872D01*
X118674869Y-113404962D01*
X118690780Y-113383508D01*
X118708718Y-113363718D01*
X118728508Y-113345780D01*
X118749962Y-113329869D01*
X118772872Y-113316138D01*
X118797017Y-113304718D01*
X118822165Y-113295720D01*
X118848075Y-113289230D01*
X118874495Y-113285311D01*
X118901173Y-113284000D01*
X119858827Y-113284000D01*
X119885505Y-113285311D01*
X119885505Y-113285311D01*
G37*
D16*
X119380000Y-113910000D03*
D13*
G36*
X119885505Y-115335311D02*
G01*
X119911925Y-115339230D01*
X119937835Y-115345720D01*
X119962983Y-115354718D01*
X119987128Y-115366138D01*
X120010038Y-115379869D01*
X120031492Y-115395780D01*
X120051282Y-115413718D01*
X120069220Y-115433508D01*
X120085131Y-115454962D01*
X120098862Y-115477872D01*
X120110282Y-115502017D01*
X120119280Y-115527165D01*
X120125770Y-115553075D01*
X120129689Y-115579495D01*
X120131000Y-115606173D01*
X120131000Y-116313827D01*
X120129689Y-116340505D01*
X120125770Y-116366925D01*
X120119280Y-116392835D01*
X120110282Y-116417983D01*
X120098862Y-116442128D01*
X120085131Y-116465038D01*
X120069220Y-116486492D01*
X120051282Y-116506282D01*
X120031492Y-116524220D01*
X120010038Y-116540131D01*
X119987128Y-116553862D01*
X119962983Y-116565282D01*
X119937835Y-116574280D01*
X119911925Y-116580770D01*
X119885505Y-116584689D01*
X119858827Y-116586000D01*
X118901173Y-116586000D01*
X118874495Y-116584689D01*
X118848075Y-116580770D01*
X118822165Y-116574280D01*
X118797017Y-116565282D01*
X118772872Y-116553862D01*
X118749962Y-116540131D01*
X118728508Y-116524220D01*
X118708718Y-116506282D01*
X118690780Y-116486492D01*
X118674869Y-116465038D01*
X118661138Y-116442128D01*
X118649718Y-116417983D01*
X118640720Y-116392835D01*
X118634230Y-116366925D01*
X118630311Y-116340505D01*
X118629000Y-116313827D01*
X118629000Y-115606173D01*
X118630311Y-115579495D01*
X118634230Y-115553075D01*
X118640720Y-115527165D01*
X118649718Y-115502017D01*
X118661138Y-115477872D01*
X118674869Y-115454962D01*
X118690780Y-115433508D01*
X118708718Y-115413718D01*
X118728508Y-115395780D01*
X118749962Y-115379869D01*
X118772872Y-115366138D01*
X118797017Y-115354718D01*
X118822165Y-115345720D01*
X118848075Y-115339230D01*
X118874495Y-115335311D01*
X118901173Y-115334000D01*
X119858827Y-115334000D01*
X119885505Y-115335311D01*
X119885505Y-115335311D01*
G37*
D16*
X119380000Y-115960000D03*
D13*
G36*
X136515505Y-108470311D02*
G01*
X136541925Y-108474230D01*
X136567835Y-108480720D01*
X136592983Y-108489718D01*
X136617128Y-108501138D01*
X136640038Y-108514869D01*
X136661492Y-108530780D01*
X136681282Y-108548718D01*
X136699220Y-108568508D01*
X136715131Y-108589962D01*
X136728862Y-108612872D01*
X136740282Y-108637017D01*
X136749280Y-108662165D01*
X136755770Y-108688075D01*
X136759689Y-108714495D01*
X136761000Y-108741173D01*
X136761000Y-109698827D01*
X136759689Y-109725505D01*
X136755770Y-109751925D01*
X136749280Y-109777835D01*
X136740282Y-109802983D01*
X136728862Y-109827128D01*
X136715131Y-109850038D01*
X136699220Y-109871492D01*
X136681282Y-109891282D01*
X136661492Y-109909220D01*
X136640038Y-109925131D01*
X136617128Y-109938862D01*
X136592983Y-109950282D01*
X136567835Y-109959280D01*
X136541925Y-109965770D01*
X136515505Y-109969689D01*
X136488827Y-109971000D01*
X135781173Y-109971000D01*
X135754495Y-109969689D01*
X135728075Y-109965770D01*
X135702165Y-109959280D01*
X135677017Y-109950282D01*
X135652872Y-109938862D01*
X135629962Y-109925131D01*
X135608508Y-109909220D01*
X135588718Y-109891282D01*
X135570780Y-109871492D01*
X135554869Y-109850038D01*
X135541138Y-109827128D01*
X135529718Y-109802983D01*
X135520720Y-109777835D01*
X135514230Y-109751925D01*
X135510311Y-109725505D01*
X135509000Y-109698827D01*
X135509000Y-108741173D01*
X135510311Y-108714495D01*
X135514230Y-108688075D01*
X135520720Y-108662165D01*
X135529718Y-108637017D01*
X135541138Y-108612872D01*
X135554869Y-108589962D01*
X135570780Y-108568508D01*
X135588718Y-108548718D01*
X135608508Y-108530780D01*
X135629962Y-108514869D01*
X135652872Y-108501138D01*
X135677017Y-108489718D01*
X135702165Y-108480720D01*
X135728075Y-108474230D01*
X135754495Y-108470311D01*
X135781173Y-108469000D01*
X136488827Y-108469000D01*
X136515505Y-108470311D01*
X136515505Y-108470311D01*
G37*
D16*
X136135000Y-109220000D03*
D13*
G36*
X138565505Y-108470311D02*
G01*
X138591925Y-108474230D01*
X138617835Y-108480720D01*
X138642983Y-108489718D01*
X138667128Y-108501138D01*
X138690038Y-108514869D01*
X138711492Y-108530780D01*
X138731282Y-108548718D01*
X138749220Y-108568508D01*
X138765131Y-108589962D01*
X138778862Y-108612872D01*
X138790282Y-108637017D01*
X138799280Y-108662165D01*
X138805770Y-108688075D01*
X138809689Y-108714495D01*
X138811000Y-108741173D01*
X138811000Y-109698827D01*
X138809689Y-109725505D01*
X138805770Y-109751925D01*
X138799280Y-109777835D01*
X138790282Y-109802983D01*
X138778862Y-109827128D01*
X138765131Y-109850038D01*
X138749220Y-109871492D01*
X138731282Y-109891282D01*
X138711492Y-109909220D01*
X138690038Y-109925131D01*
X138667128Y-109938862D01*
X138642983Y-109950282D01*
X138617835Y-109959280D01*
X138591925Y-109965770D01*
X138565505Y-109969689D01*
X138538827Y-109971000D01*
X137831173Y-109971000D01*
X137804495Y-109969689D01*
X137778075Y-109965770D01*
X137752165Y-109959280D01*
X137727017Y-109950282D01*
X137702872Y-109938862D01*
X137679962Y-109925131D01*
X137658508Y-109909220D01*
X137638718Y-109891282D01*
X137620780Y-109871492D01*
X137604869Y-109850038D01*
X137591138Y-109827128D01*
X137579718Y-109802983D01*
X137570720Y-109777835D01*
X137564230Y-109751925D01*
X137560311Y-109725505D01*
X137559000Y-109698827D01*
X137559000Y-108741173D01*
X137560311Y-108714495D01*
X137564230Y-108688075D01*
X137570720Y-108662165D01*
X137579718Y-108637017D01*
X137591138Y-108612872D01*
X137604869Y-108589962D01*
X137620780Y-108568508D01*
X137638718Y-108548718D01*
X137658508Y-108530780D01*
X137679962Y-108514869D01*
X137702872Y-108501138D01*
X137727017Y-108489718D01*
X137752165Y-108480720D01*
X137778075Y-108474230D01*
X137804495Y-108470311D01*
X137831173Y-108469000D01*
X138538827Y-108469000D01*
X138565505Y-108470311D01*
X138565505Y-108470311D01*
G37*
D16*
X138185000Y-109220000D03*
D13*
G36*
X138565505Y-103390311D02*
G01*
X138591925Y-103394230D01*
X138617835Y-103400720D01*
X138642983Y-103409718D01*
X138667128Y-103421138D01*
X138690038Y-103434869D01*
X138711492Y-103450780D01*
X138731282Y-103468718D01*
X138749220Y-103488508D01*
X138765131Y-103509962D01*
X138778862Y-103532872D01*
X138790282Y-103557017D01*
X138799280Y-103582165D01*
X138805770Y-103608075D01*
X138809689Y-103634495D01*
X138811000Y-103661173D01*
X138811000Y-104618827D01*
X138809689Y-104645505D01*
X138805770Y-104671925D01*
X138799280Y-104697835D01*
X138790282Y-104722983D01*
X138778862Y-104747128D01*
X138765131Y-104770038D01*
X138749220Y-104791492D01*
X138731282Y-104811282D01*
X138711492Y-104829220D01*
X138690038Y-104845131D01*
X138667128Y-104858862D01*
X138642983Y-104870282D01*
X138617835Y-104879280D01*
X138591925Y-104885770D01*
X138565505Y-104889689D01*
X138538827Y-104891000D01*
X137831173Y-104891000D01*
X137804495Y-104889689D01*
X137778075Y-104885770D01*
X137752165Y-104879280D01*
X137727017Y-104870282D01*
X137702872Y-104858862D01*
X137679962Y-104845131D01*
X137658508Y-104829220D01*
X137638718Y-104811282D01*
X137620780Y-104791492D01*
X137604869Y-104770038D01*
X137591138Y-104747128D01*
X137579718Y-104722983D01*
X137570720Y-104697835D01*
X137564230Y-104671925D01*
X137560311Y-104645505D01*
X137559000Y-104618827D01*
X137559000Y-103661173D01*
X137560311Y-103634495D01*
X137564230Y-103608075D01*
X137570720Y-103582165D01*
X137579718Y-103557017D01*
X137591138Y-103532872D01*
X137604869Y-103509962D01*
X137620780Y-103488508D01*
X137638718Y-103468718D01*
X137658508Y-103450780D01*
X137679962Y-103434869D01*
X137702872Y-103421138D01*
X137727017Y-103409718D01*
X137752165Y-103400720D01*
X137778075Y-103394230D01*
X137804495Y-103390311D01*
X137831173Y-103389000D01*
X138538827Y-103389000D01*
X138565505Y-103390311D01*
X138565505Y-103390311D01*
G37*
D16*
X138185000Y-104140000D03*
D13*
G36*
X136515505Y-103390311D02*
G01*
X136541925Y-103394230D01*
X136567835Y-103400720D01*
X136592983Y-103409718D01*
X136617128Y-103421138D01*
X136640038Y-103434869D01*
X136661492Y-103450780D01*
X136681282Y-103468718D01*
X136699220Y-103488508D01*
X136715131Y-103509962D01*
X136728862Y-103532872D01*
X136740282Y-103557017D01*
X136749280Y-103582165D01*
X136755770Y-103608075D01*
X136759689Y-103634495D01*
X136761000Y-103661173D01*
X136761000Y-104618827D01*
X136759689Y-104645505D01*
X136755770Y-104671925D01*
X136749280Y-104697835D01*
X136740282Y-104722983D01*
X136728862Y-104747128D01*
X136715131Y-104770038D01*
X136699220Y-104791492D01*
X136681282Y-104811282D01*
X136661492Y-104829220D01*
X136640038Y-104845131D01*
X136617128Y-104858862D01*
X136592983Y-104870282D01*
X136567835Y-104879280D01*
X136541925Y-104885770D01*
X136515505Y-104889689D01*
X136488827Y-104891000D01*
X135781173Y-104891000D01*
X135754495Y-104889689D01*
X135728075Y-104885770D01*
X135702165Y-104879280D01*
X135677017Y-104870282D01*
X135652872Y-104858862D01*
X135629962Y-104845131D01*
X135608508Y-104829220D01*
X135588718Y-104811282D01*
X135570780Y-104791492D01*
X135554869Y-104770038D01*
X135541138Y-104747128D01*
X135529718Y-104722983D01*
X135520720Y-104697835D01*
X135514230Y-104671925D01*
X135510311Y-104645505D01*
X135509000Y-104618827D01*
X135509000Y-103661173D01*
X135510311Y-103634495D01*
X135514230Y-103608075D01*
X135520720Y-103582165D01*
X135529718Y-103557017D01*
X135541138Y-103532872D01*
X135554869Y-103509962D01*
X135570780Y-103488508D01*
X135588718Y-103468718D01*
X135608508Y-103450780D01*
X135629962Y-103434869D01*
X135652872Y-103421138D01*
X135677017Y-103409718D01*
X135702165Y-103400720D01*
X135728075Y-103394230D01*
X135754495Y-103390311D01*
X135781173Y-103389000D01*
X136488827Y-103389000D01*
X136515505Y-103390311D01*
X136515505Y-103390311D01*
G37*
D16*
X136135000Y-104140000D03*
D13*
G36*
X135880505Y-98310311D02*
G01*
X135906925Y-98314230D01*
X135932835Y-98320720D01*
X135957983Y-98329718D01*
X135982128Y-98341138D01*
X136005038Y-98354869D01*
X136026492Y-98370780D01*
X136046282Y-98388718D01*
X136064220Y-98408508D01*
X136080131Y-98429962D01*
X136093862Y-98452872D01*
X136105282Y-98477017D01*
X136114280Y-98502165D01*
X136120770Y-98528075D01*
X136124689Y-98554495D01*
X136126000Y-98581173D01*
X136126000Y-99538827D01*
X136124689Y-99565505D01*
X136120770Y-99591925D01*
X136114280Y-99617835D01*
X136105282Y-99642983D01*
X136093862Y-99667128D01*
X136080131Y-99690038D01*
X136064220Y-99711492D01*
X136046282Y-99731282D01*
X136026492Y-99749220D01*
X136005038Y-99765131D01*
X135982128Y-99778862D01*
X135957983Y-99790282D01*
X135932835Y-99799280D01*
X135906925Y-99805770D01*
X135880505Y-99809689D01*
X135853827Y-99811000D01*
X135146173Y-99811000D01*
X135119495Y-99809689D01*
X135093075Y-99805770D01*
X135067165Y-99799280D01*
X135042017Y-99790282D01*
X135017872Y-99778862D01*
X134994962Y-99765131D01*
X134973508Y-99749220D01*
X134953718Y-99731282D01*
X134935780Y-99711492D01*
X134919869Y-99690038D01*
X134906138Y-99667128D01*
X134894718Y-99642983D01*
X134885720Y-99617835D01*
X134879230Y-99591925D01*
X134875311Y-99565505D01*
X134874000Y-99538827D01*
X134874000Y-98581173D01*
X134875311Y-98554495D01*
X134879230Y-98528075D01*
X134885720Y-98502165D01*
X134894718Y-98477017D01*
X134906138Y-98452872D01*
X134919869Y-98429962D01*
X134935780Y-98408508D01*
X134953718Y-98388718D01*
X134973508Y-98370780D01*
X134994962Y-98354869D01*
X135017872Y-98341138D01*
X135042017Y-98329718D01*
X135067165Y-98320720D01*
X135093075Y-98314230D01*
X135119495Y-98310311D01*
X135146173Y-98309000D01*
X135853827Y-98309000D01*
X135880505Y-98310311D01*
X135880505Y-98310311D01*
G37*
D16*
X135500000Y-99060000D03*
D13*
G36*
X137930505Y-98310311D02*
G01*
X137956925Y-98314230D01*
X137982835Y-98320720D01*
X138007983Y-98329718D01*
X138032128Y-98341138D01*
X138055038Y-98354869D01*
X138076492Y-98370780D01*
X138096282Y-98388718D01*
X138114220Y-98408508D01*
X138130131Y-98429962D01*
X138143862Y-98452872D01*
X138155282Y-98477017D01*
X138164280Y-98502165D01*
X138170770Y-98528075D01*
X138174689Y-98554495D01*
X138176000Y-98581173D01*
X138176000Y-99538827D01*
X138174689Y-99565505D01*
X138170770Y-99591925D01*
X138164280Y-99617835D01*
X138155282Y-99642983D01*
X138143862Y-99667128D01*
X138130131Y-99690038D01*
X138114220Y-99711492D01*
X138096282Y-99731282D01*
X138076492Y-99749220D01*
X138055038Y-99765131D01*
X138032128Y-99778862D01*
X138007983Y-99790282D01*
X137982835Y-99799280D01*
X137956925Y-99805770D01*
X137930505Y-99809689D01*
X137903827Y-99811000D01*
X137196173Y-99811000D01*
X137169495Y-99809689D01*
X137143075Y-99805770D01*
X137117165Y-99799280D01*
X137092017Y-99790282D01*
X137067872Y-99778862D01*
X137044962Y-99765131D01*
X137023508Y-99749220D01*
X137003718Y-99731282D01*
X136985780Y-99711492D01*
X136969869Y-99690038D01*
X136956138Y-99667128D01*
X136944718Y-99642983D01*
X136935720Y-99617835D01*
X136929230Y-99591925D01*
X136925311Y-99565505D01*
X136924000Y-99538827D01*
X136924000Y-98581173D01*
X136925311Y-98554495D01*
X136929230Y-98528075D01*
X136935720Y-98502165D01*
X136944718Y-98477017D01*
X136956138Y-98452872D01*
X136969869Y-98429962D01*
X136985780Y-98408508D01*
X137003718Y-98388718D01*
X137023508Y-98370780D01*
X137044962Y-98354869D01*
X137067872Y-98341138D01*
X137092017Y-98329718D01*
X137117165Y-98320720D01*
X137143075Y-98314230D01*
X137169495Y-98310311D01*
X137196173Y-98309000D01*
X137903827Y-98309000D01*
X137930505Y-98310311D01*
X137930505Y-98310311D01*
G37*
D16*
X137550000Y-99060000D03*
D13*
G36*
X113535505Y-79630311D02*
G01*
X113561925Y-79634230D01*
X113587835Y-79640720D01*
X113612983Y-79649718D01*
X113637128Y-79661138D01*
X113660038Y-79674869D01*
X113681492Y-79690780D01*
X113701282Y-79708718D01*
X113719220Y-79728508D01*
X113735131Y-79749962D01*
X113748862Y-79772872D01*
X113760282Y-79797017D01*
X113769280Y-79822165D01*
X113775770Y-79848075D01*
X113779689Y-79874495D01*
X113781000Y-79901173D01*
X113781000Y-80608827D01*
X113779689Y-80635505D01*
X113775770Y-80661925D01*
X113769280Y-80687835D01*
X113760282Y-80712983D01*
X113748862Y-80737128D01*
X113735131Y-80760038D01*
X113719220Y-80781492D01*
X113701282Y-80801282D01*
X113681492Y-80819220D01*
X113660038Y-80835131D01*
X113637128Y-80848862D01*
X113612983Y-80860282D01*
X113587835Y-80869280D01*
X113561925Y-80875770D01*
X113535505Y-80879689D01*
X113508827Y-80881000D01*
X112551173Y-80881000D01*
X112524495Y-80879689D01*
X112498075Y-80875770D01*
X112472165Y-80869280D01*
X112447017Y-80860282D01*
X112422872Y-80848862D01*
X112399962Y-80835131D01*
X112378508Y-80819220D01*
X112358718Y-80801282D01*
X112340780Y-80781492D01*
X112324869Y-80760038D01*
X112311138Y-80737128D01*
X112299718Y-80712983D01*
X112290720Y-80687835D01*
X112284230Y-80661925D01*
X112280311Y-80635505D01*
X112279000Y-80608827D01*
X112279000Y-79901173D01*
X112280311Y-79874495D01*
X112284230Y-79848075D01*
X112290720Y-79822165D01*
X112299718Y-79797017D01*
X112311138Y-79772872D01*
X112324869Y-79749962D01*
X112340780Y-79728508D01*
X112358718Y-79708718D01*
X112378508Y-79690780D01*
X112399962Y-79674869D01*
X112422872Y-79661138D01*
X112447017Y-79649718D01*
X112472165Y-79640720D01*
X112498075Y-79634230D01*
X112524495Y-79630311D01*
X112551173Y-79629000D01*
X113508827Y-79629000D01*
X113535505Y-79630311D01*
X113535505Y-79630311D01*
G37*
D16*
X113030000Y-80255000D03*
D13*
G36*
X113535505Y-81680311D02*
G01*
X113561925Y-81684230D01*
X113587835Y-81690720D01*
X113612983Y-81699718D01*
X113637128Y-81711138D01*
X113660038Y-81724869D01*
X113681492Y-81740780D01*
X113701282Y-81758718D01*
X113719220Y-81778508D01*
X113735131Y-81799962D01*
X113748862Y-81822872D01*
X113760282Y-81847017D01*
X113769280Y-81872165D01*
X113775770Y-81898075D01*
X113779689Y-81924495D01*
X113781000Y-81951173D01*
X113781000Y-82658827D01*
X113779689Y-82685505D01*
X113775770Y-82711925D01*
X113769280Y-82737835D01*
X113760282Y-82762983D01*
X113748862Y-82787128D01*
X113735131Y-82810038D01*
X113719220Y-82831492D01*
X113701282Y-82851282D01*
X113681492Y-82869220D01*
X113660038Y-82885131D01*
X113637128Y-82898862D01*
X113612983Y-82910282D01*
X113587835Y-82919280D01*
X113561925Y-82925770D01*
X113535505Y-82929689D01*
X113508827Y-82931000D01*
X112551173Y-82931000D01*
X112524495Y-82929689D01*
X112498075Y-82925770D01*
X112472165Y-82919280D01*
X112447017Y-82910282D01*
X112422872Y-82898862D01*
X112399962Y-82885131D01*
X112378508Y-82869220D01*
X112358718Y-82851282D01*
X112340780Y-82831492D01*
X112324869Y-82810038D01*
X112311138Y-82787128D01*
X112299718Y-82762983D01*
X112290720Y-82737835D01*
X112284230Y-82711925D01*
X112280311Y-82685505D01*
X112279000Y-82658827D01*
X112279000Y-81951173D01*
X112280311Y-81924495D01*
X112284230Y-81898075D01*
X112290720Y-81872165D01*
X112299718Y-81847017D01*
X112311138Y-81822872D01*
X112324869Y-81799962D01*
X112340780Y-81778508D01*
X112358718Y-81758718D01*
X112378508Y-81740780D01*
X112399962Y-81724869D01*
X112422872Y-81711138D01*
X112447017Y-81699718D01*
X112472165Y-81690720D01*
X112498075Y-81684230D01*
X112524495Y-81680311D01*
X112551173Y-81679000D01*
X113508827Y-81679000D01*
X113535505Y-81680311D01*
X113535505Y-81680311D01*
G37*
D16*
X113030000Y-82305000D03*
D13*
G36*
X107820505Y-81680311D02*
G01*
X107846925Y-81684230D01*
X107872835Y-81690720D01*
X107897983Y-81699718D01*
X107922128Y-81711138D01*
X107945038Y-81724869D01*
X107966492Y-81740780D01*
X107986282Y-81758718D01*
X108004220Y-81778508D01*
X108020131Y-81799962D01*
X108033862Y-81822872D01*
X108045282Y-81847017D01*
X108054280Y-81872165D01*
X108060770Y-81898075D01*
X108064689Y-81924495D01*
X108066000Y-81951173D01*
X108066000Y-82658827D01*
X108064689Y-82685505D01*
X108060770Y-82711925D01*
X108054280Y-82737835D01*
X108045282Y-82762983D01*
X108033862Y-82787128D01*
X108020131Y-82810038D01*
X108004220Y-82831492D01*
X107986282Y-82851282D01*
X107966492Y-82869220D01*
X107945038Y-82885131D01*
X107922128Y-82898862D01*
X107897983Y-82910282D01*
X107872835Y-82919280D01*
X107846925Y-82925770D01*
X107820505Y-82929689D01*
X107793827Y-82931000D01*
X106836173Y-82931000D01*
X106809495Y-82929689D01*
X106783075Y-82925770D01*
X106757165Y-82919280D01*
X106732017Y-82910282D01*
X106707872Y-82898862D01*
X106684962Y-82885131D01*
X106663508Y-82869220D01*
X106643718Y-82851282D01*
X106625780Y-82831492D01*
X106609869Y-82810038D01*
X106596138Y-82787128D01*
X106584718Y-82762983D01*
X106575720Y-82737835D01*
X106569230Y-82711925D01*
X106565311Y-82685505D01*
X106564000Y-82658827D01*
X106564000Y-81951173D01*
X106565311Y-81924495D01*
X106569230Y-81898075D01*
X106575720Y-81872165D01*
X106584718Y-81847017D01*
X106596138Y-81822872D01*
X106609869Y-81799962D01*
X106625780Y-81778508D01*
X106643718Y-81758718D01*
X106663508Y-81740780D01*
X106684962Y-81724869D01*
X106707872Y-81711138D01*
X106732017Y-81699718D01*
X106757165Y-81690720D01*
X106783075Y-81684230D01*
X106809495Y-81680311D01*
X106836173Y-81679000D01*
X107793827Y-81679000D01*
X107820505Y-81680311D01*
X107820505Y-81680311D01*
G37*
D16*
X107315000Y-82305000D03*
D13*
G36*
X107820505Y-79630311D02*
G01*
X107846925Y-79634230D01*
X107872835Y-79640720D01*
X107897983Y-79649718D01*
X107922128Y-79661138D01*
X107945038Y-79674869D01*
X107966492Y-79690780D01*
X107986282Y-79708718D01*
X108004220Y-79728508D01*
X108020131Y-79749962D01*
X108033862Y-79772872D01*
X108045282Y-79797017D01*
X108054280Y-79822165D01*
X108060770Y-79848075D01*
X108064689Y-79874495D01*
X108066000Y-79901173D01*
X108066000Y-80608827D01*
X108064689Y-80635505D01*
X108060770Y-80661925D01*
X108054280Y-80687835D01*
X108045282Y-80712983D01*
X108033862Y-80737128D01*
X108020131Y-80760038D01*
X108004220Y-80781492D01*
X107986282Y-80801282D01*
X107966492Y-80819220D01*
X107945038Y-80835131D01*
X107922128Y-80848862D01*
X107897983Y-80860282D01*
X107872835Y-80869280D01*
X107846925Y-80875770D01*
X107820505Y-80879689D01*
X107793827Y-80881000D01*
X106836173Y-80881000D01*
X106809495Y-80879689D01*
X106783075Y-80875770D01*
X106757165Y-80869280D01*
X106732017Y-80860282D01*
X106707872Y-80848862D01*
X106684962Y-80835131D01*
X106663508Y-80819220D01*
X106643718Y-80801282D01*
X106625780Y-80781492D01*
X106609869Y-80760038D01*
X106596138Y-80737128D01*
X106584718Y-80712983D01*
X106575720Y-80687835D01*
X106569230Y-80661925D01*
X106565311Y-80635505D01*
X106564000Y-80608827D01*
X106564000Y-79901173D01*
X106565311Y-79874495D01*
X106569230Y-79848075D01*
X106575720Y-79822165D01*
X106584718Y-79797017D01*
X106596138Y-79772872D01*
X106609869Y-79749962D01*
X106625780Y-79728508D01*
X106643718Y-79708718D01*
X106663508Y-79690780D01*
X106684962Y-79674869D01*
X106707872Y-79661138D01*
X106732017Y-79649718D01*
X106757165Y-79640720D01*
X106783075Y-79634230D01*
X106809495Y-79630311D01*
X106836173Y-79629000D01*
X107793827Y-79629000D01*
X107820505Y-79630311D01*
X107820505Y-79630311D01*
G37*
D16*
X107315000Y-80255000D03*
D13*
G36*
X107820505Y-128035311D02*
G01*
X107846925Y-128039230D01*
X107872835Y-128045720D01*
X107897983Y-128054718D01*
X107922128Y-128066138D01*
X107945038Y-128079869D01*
X107966492Y-128095780D01*
X107986282Y-128113718D01*
X108004220Y-128133508D01*
X108020131Y-128154962D01*
X108033862Y-128177872D01*
X108045282Y-128202017D01*
X108054280Y-128227165D01*
X108060770Y-128253075D01*
X108064689Y-128279495D01*
X108066000Y-128306173D01*
X108066000Y-129013827D01*
X108064689Y-129040505D01*
X108060770Y-129066925D01*
X108054280Y-129092835D01*
X108045282Y-129117983D01*
X108033862Y-129142128D01*
X108020131Y-129165038D01*
X108004220Y-129186492D01*
X107986282Y-129206282D01*
X107966492Y-129224220D01*
X107945038Y-129240131D01*
X107922128Y-129253862D01*
X107897983Y-129265282D01*
X107872835Y-129274280D01*
X107846925Y-129280770D01*
X107820505Y-129284689D01*
X107793827Y-129286000D01*
X106836173Y-129286000D01*
X106809495Y-129284689D01*
X106783075Y-129280770D01*
X106757165Y-129274280D01*
X106732017Y-129265282D01*
X106707872Y-129253862D01*
X106684962Y-129240131D01*
X106663508Y-129224220D01*
X106643718Y-129206282D01*
X106625780Y-129186492D01*
X106609869Y-129165038D01*
X106596138Y-129142128D01*
X106584718Y-129117983D01*
X106575720Y-129092835D01*
X106569230Y-129066925D01*
X106565311Y-129040505D01*
X106564000Y-129013827D01*
X106564000Y-128306173D01*
X106565311Y-128279495D01*
X106569230Y-128253075D01*
X106575720Y-128227165D01*
X106584718Y-128202017D01*
X106596138Y-128177872D01*
X106609869Y-128154962D01*
X106625780Y-128133508D01*
X106643718Y-128113718D01*
X106663508Y-128095780D01*
X106684962Y-128079869D01*
X106707872Y-128066138D01*
X106732017Y-128054718D01*
X106757165Y-128045720D01*
X106783075Y-128039230D01*
X106809495Y-128035311D01*
X106836173Y-128034000D01*
X107793827Y-128034000D01*
X107820505Y-128035311D01*
X107820505Y-128035311D01*
G37*
D16*
X107315000Y-128660000D03*
D13*
G36*
X107820505Y-125985311D02*
G01*
X107846925Y-125989230D01*
X107872835Y-125995720D01*
X107897983Y-126004718D01*
X107922128Y-126016138D01*
X107945038Y-126029869D01*
X107966492Y-126045780D01*
X107986282Y-126063718D01*
X108004220Y-126083508D01*
X108020131Y-126104962D01*
X108033862Y-126127872D01*
X108045282Y-126152017D01*
X108054280Y-126177165D01*
X108060770Y-126203075D01*
X108064689Y-126229495D01*
X108066000Y-126256173D01*
X108066000Y-126963827D01*
X108064689Y-126990505D01*
X108060770Y-127016925D01*
X108054280Y-127042835D01*
X108045282Y-127067983D01*
X108033862Y-127092128D01*
X108020131Y-127115038D01*
X108004220Y-127136492D01*
X107986282Y-127156282D01*
X107966492Y-127174220D01*
X107945038Y-127190131D01*
X107922128Y-127203862D01*
X107897983Y-127215282D01*
X107872835Y-127224280D01*
X107846925Y-127230770D01*
X107820505Y-127234689D01*
X107793827Y-127236000D01*
X106836173Y-127236000D01*
X106809495Y-127234689D01*
X106783075Y-127230770D01*
X106757165Y-127224280D01*
X106732017Y-127215282D01*
X106707872Y-127203862D01*
X106684962Y-127190131D01*
X106663508Y-127174220D01*
X106643718Y-127156282D01*
X106625780Y-127136492D01*
X106609869Y-127115038D01*
X106596138Y-127092128D01*
X106584718Y-127067983D01*
X106575720Y-127042835D01*
X106569230Y-127016925D01*
X106565311Y-126990505D01*
X106564000Y-126963827D01*
X106564000Y-126256173D01*
X106565311Y-126229495D01*
X106569230Y-126203075D01*
X106575720Y-126177165D01*
X106584718Y-126152017D01*
X106596138Y-126127872D01*
X106609869Y-126104962D01*
X106625780Y-126083508D01*
X106643718Y-126063718D01*
X106663508Y-126045780D01*
X106684962Y-126029869D01*
X106707872Y-126016138D01*
X106732017Y-126004718D01*
X106757165Y-125995720D01*
X106783075Y-125989230D01*
X106809495Y-125985311D01*
X106836173Y-125984000D01*
X107793827Y-125984000D01*
X107820505Y-125985311D01*
X107820505Y-125985311D01*
G37*
D16*
X107315000Y-126610000D03*
D13*
G36*
X118735505Y-83070311D02*
G01*
X118761925Y-83074230D01*
X118787835Y-83080720D01*
X118812983Y-83089718D01*
X118837128Y-83101138D01*
X118860038Y-83114869D01*
X118881492Y-83130780D01*
X118901282Y-83148718D01*
X118919220Y-83168508D01*
X118935131Y-83189962D01*
X118948862Y-83212872D01*
X118960282Y-83237017D01*
X118969280Y-83262165D01*
X118975770Y-83288075D01*
X118979689Y-83314495D01*
X118981000Y-83341173D01*
X118981000Y-84298827D01*
X118979689Y-84325505D01*
X118975770Y-84351925D01*
X118969280Y-84377835D01*
X118960282Y-84402983D01*
X118948862Y-84427128D01*
X118935131Y-84450038D01*
X118919220Y-84471492D01*
X118901282Y-84491282D01*
X118881492Y-84509220D01*
X118860038Y-84525131D01*
X118837128Y-84538862D01*
X118812983Y-84550282D01*
X118787835Y-84559280D01*
X118761925Y-84565770D01*
X118735505Y-84569689D01*
X118708827Y-84571000D01*
X118001173Y-84571000D01*
X117974495Y-84569689D01*
X117948075Y-84565770D01*
X117922165Y-84559280D01*
X117897017Y-84550282D01*
X117872872Y-84538862D01*
X117849962Y-84525131D01*
X117828508Y-84509220D01*
X117808718Y-84491282D01*
X117790780Y-84471492D01*
X117774869Y-84450038D01*
X117761138Y-84427128D01*
X117749718Y-84402983D01*
X117740720Y-84377835D01*
X117734230Y-84351925D01*
X117730311Y-84325505D01*
X117729000Y-84298827D01*
X117729000Y-83341173D01*
X117730311Y-83314495D01*
X117734230Y-83288075D01*
X117740720Y-83262165D01*
X117749718Y-83237017D01*
X117761138Y-83212872D01*
X117774869Y-83189962D01*
X117790780Y-83168508D01*
X117808718Y-83148718D01*
X117828508Y-83130780D01*
X117849962Y-83114869D01*
X117872872Y-83101138D01*
X117897017Y-83089718D01*
X117922165Y-83080720D01*
X117948075Y-83074230D01*
X117974495Y-83070311D01*
X118001173Y-83069000D01*
X118708827Y-83069000D01*
X118735505Y-83070311D01*
X118735505Y-83070311D01*
G37*
D16*
X118355000Y-83820000D03*
D13*
G36*
X120785505Y-83070311D02*
G01*
X120811925Y-83074230D01*
X120837835Y-83080720D01*
X120862983Y-83089718D01*
X120887128Y-83101138D01*
X120910038Y-83114869D01*
X120931492Y-83130780D01*
X120951282Y-83148718D01*
X120969220Y-83168508D01*
X120985131Y-83189962D01*
X120998862Y-83212872D01*
X121010282Y-83237017D01*
X121019280Y-83262165D01*
X121025770Y-83288075D01*
X121029689Y-83314495D01*
X121031000Y-83341173D01*
X121031000Y-84298827D01*
X121029689Y-84325505D01*
X121025770Y-84351925D01*
X121019280Y-84377835D01*
X121010282Y-84402983D01*
X120998862Y-84427128D01*
X120985131Y-84450038D01*
X120969220Y-84471492D01*
X120951282Y-84491282D01*
X120931492Y-84509220D01*
X120910038Y-84525131D01*
X120887128Y-84538862D01*
X120862983Y-84550282D01*
X120837835Y-84559280D01*
X120811925Y-84565770D01*
X120785505Y-84569689D01*
X120758827Y-84571000D01*
X120051173Y-84571000D01*
X120024495Y-84569689D01*
X119998075Y-84565770D01*
X119972165Y-84559280D01*
X119947017Y-84550282D01*
X119922872Y-84538862D01*
X119899962Y-84525131D01*
X119878508Y-84509220D01*
X119858718Y-84491282D01*
X119840780Y-84471492D01*
X119824869Y-84450038D01*
X119811138Y-84427128D01*
X119799718Y-84402983D01*
X119790720Y-84377835D01*
X119784230Y-84351925D01*
X119780311Y-84325505D01*
X119779000Y-84298827D01*
X119779000Y-83341173D01*
X119780311Y-83314495D01*
X119784230Y-83288075D01*
X119790720Y-83262165D01*
X119799718Y-83237017D01*
X119811138Y-83212872D01*
X119824869Y-83189962D01*
X119840780Y-83168508D01*
X119858718Y-83148718D01*
X119878508Y-83130780D01*
X119899962Y-83114869D01*
X119922872Y-83101138D01*
X119947017Y-83089718D01*
X119972165Y-83080720D01*
X119998075Y-83074230D01*
X120024495Y-83070311D01*
X120051173Y-83069000D01*
X120758827Y-83069000D01*
X120785505Y-83070311D01*
X120785505Y-83070311D01*
G37*
D16*
X120405000Y-83820000D03*
D13*
G36*
X118735505Y-79895311D02*
G01*
X118761925Y-79899230D01*
X118787835Y-79905720D01*
X118812983Y-79914718D01*
X118837128Y-79926138D01*
X118860038Y-79939869D01*
X118881492Y-79955780D01*
X118901282Y-79973718D01*
X118919220Y-79993508D01*
X118935131Y-80014962D01*
X118948862Y-80037872D01*
X118960282Y-80062017D01*
X118969280Y-80087165D01*
X118975770Y-80113075D01*
X118979689Y-80139495D01*
X118981000Y-80166173D01*
X118981000Y-81123827D01*
X118979689Y-81150505D01*
X118975770Y-81176925D01*
X118969280Y-81202835D01*
X118960282Y-81227983D01*
X118948862Y-81252128D01*
X118935131Y-81275038D01*
X118919220Y-81296492D01*
X118901282Y-81316282D01*
X118881492Y-81334220D01*
X118860038Y-81350131D01*
X118837128Y-81363862D01*
X118812983Y-81375282D01*
X118787835Y-81384280D01*
X118761925Y-81390770D01*
X118735505Y-81394689D01*
X118708827Y-81396000D01*
X118001173Y-81396000D01*
X117974495Y-81394689D01*
X117948075Y-81390770D01*
X117922165Y-81384280D01*
X117897017Y-81375282D01*
X117872872Y-81363862D01*
X117849962Y-81350131D01*
X117828508Y-81334220D01*
X117808718Y-81316282D01*
X117790780Y-81296492D01*
X117774869Y-81275038D01*
X117761138Y-81252128D01*
X117749718Y-81227983D01*
X117740720Y-81202835D01*
X117734230Y-81176925D01*
X117730311Y-81150505D01*
X117729000Y-81123827D01*
X117729000Y-80166173D01*
X117730311Y-80139495D01*
X117734230Y-80113075D01*
X117740720Y-80087165D01*
X117749718Y-80062017D01*
X117761138Y-80037872D01*
X117774869Y-80014962D01*
X117790780Y-79993508D01*
X117808718Y-79973718D01*
X117828508Y-79955780D01*
X117849962Y-79939869D01*
X117872872Y-79926138D01*
X117897017Y-79914718D01*
X117922165Y-79905720D01*
X117948075Y-79899230D01*
X117974495Y-79895311D01*
X118001173Y-79894000D01*
X118708827Y-79894000D01*
X118735505Y-79895311D01*
X118735505Y-79895311D01*
G37*
D16*
X118355000Y-80645000D03*
D13*
G36*
X120785505Y-79895311D02*
G01*
X120811925Y-79899230D01*
X120837835Y-79905720D01*
X120862983Y-79914718D01*
X120887128Y-79926138D01*
X120910038Y-79939869D01*
X120931492Y-79955780D01*
X120951282Y-79973718D01*
X120969220Y-79993508D01*
X120985131Y-80014962D01*
X120998862Y-80037872D01*
X121010282Y-80062017D01*
X121019280Y-80087165D01*
X121025770Y-80113075D01*
X121029689Y-80139495D01*
X121031000Y-80166173D01*
X121031000Y-81123827D01*
X121029689Y-81150505D01*
X121025770Y-81176925D01*
X121019280Y-81202835D01*
X121010282Y-81227983D01*
X120998862Y-81252128D01*
X120985131Y-81275038D01*
X120969220Y-81296492D01*
X120951282Y-81316282D01*
X120931492Y-81334220D01*
X120910038Y-81350131D01*
X120887128Y-81363862D01*
X120862983Y-81375282D01*
X120837835Y-81384280D01*
X120811925Y-81390770D01*
X120785505Y-81394689D01*
X120758827Y-81396000D01*
X120051173Y-81396000D01*
X120024495Y-81394689D01*
X119998075Y-81390770D01*
X119972165Y-81384280D01*
X119947017Y-81375282D01*
X119922872Y-81363862D01*
X119899962Y-81350131D01*
X119878508Y-81334220D01*
X119858718Y-81316282D01*
X119840780Y-81296492D01*
X119824869Y-81275038D01*
X119811138Y-81252128D01*
X119799718Y-81227983D01*
X119790720Y-81202835D01*
X119784230Y-81176925D01*
X119780311Y-81150505D01*
X119779000Y-81123827D01*
X119779000Y-80166173D01*
X119780311Y-80139495D01*
X119784230Y-80113075D01*
X119790720Y-80087165D01*
X119799718Y-80062017D01*
X119811138Y-80037872D01*
X119824869Y-80014962D01*
X119840780Y-79993508D01*
X119858718Y-79973718D01*
X119878508Y-79955780D01*
X119899962Y-79939869D01*
X119922872Y-79926138D01*
X119947017Y-79914718D01*
X119972165Y-79905720D01*
X119998075Y-79899230D01*
X120024495Y-79895311D01*
X120051173Y-79894000D01*
X120758827Y-79894000D01*
X120785505Y-79895311D01*
X120785505Y-79895311D01*
G37*
D16*
X120405000Y-80645000D03*
D19*
X125730000Y-96520000D03*
D20*
X133350000Y-111760000D03*
X125730000Y-99060000D03*
X133350000Y-109220000D03*
X125730000Y-101600000D03*
X133350000Y-106680000D03*
X125730000Y-104140000D03*
X133350000Y-104140000D03*
X125730000Y-106680000D03*
X133350000Y-101600000D03*
X125730000Y-109220000D03*
X133350000Y-99060000D03*
X125730000Y-111760000D03*
X133350000Y-96520000D03*
D21*
X129540000Y-129540000D03*
X146050000Y-93980000D03*
X119380000Y-88900000D03*
X129540000Y-78740000D03*
X146050000Y-111125000D03*
X121920000Y-95250000D03*
X150749000Y-94361000D03*
X109855000Y-108585000D03*
X149225000Y-111125000D03*
X123825000Y-82550000D03*
X127635000Y-117475000D03*
X154559000Y-116713000D03*
X149225000Y-99695000D03*
D22*
X115570000Y-84455000D03*
X116205000Y-102870000D03*
X120015000Y-104140000D03*
X116205000Y-81915000D03*
X129540000Y-91630000D03*
X110045000Y-97155000D03*
X121480000Y-110045000D03*
X111125000Y-113030000D03*
X112395000Y-99695000D03*
X118110000Y-96520000D03*
X118110000Y-96520000D03*
X114300000Y-106045000D03*
X114300000Y-96520000D03*
X141605000Y-92710000D03*
X141605000Y-101600000D03*
X145975000Y-101600000D03*
X149860000Y-108585000D03*
X113030000Y-107950000D03*
X116205000Y-90170000D03*
X137795000Y-91440000D03*
X142901921Y-106693460D03*
X140462000Y-109220000D03*
X147955000Y-102616000D03*
X150749000Y-102743000D03*
X142240000Y-103505000D03*
X148275000Y-105725000D03*
X132080000Y-93535000D03*
X135890000Y-107315000D03*
M02*
