G04 #@! TF.GenerationSoftware,KiCad,Pcbnew,(5.1.2)-1*
G04 #@! TF.CreationDate,2019-10-30T10:00:19+01:00*
G04 #@! TF.ProjectId,temalab_comparator,74656d61-6c61-4625-9f63-6f6d70617261,rev?*
G04 #@! TF.SameCoordinates,Original*
G04 #@! TF.FileFunction,Legend,Bot*
G04 #@! TF.FilePolarity,Positive*
%FSLAX46Y46*%
G04 Gerber Fmt 4.6, Leading zero omitted, Abs format (unit mm)*
G04 Created by KiCad (PCBNEW (5.1.2)-1) date 2019-10-30 10:00:19*
%MOMM*%
%LPD*%
G04 APERTURE LIST*
%ADD10C,0.120000*%
%ADD11C,0.150000*%
%ADD12O,1.802000X1.802000*%
%ADD13R,1.802000X1.802000*%
%ADD14C,0.100000*%
%ADD15C,1.252000*%
%ADD16R,1.702000X1.702000*%
%ADD17O,1.702000X1.702000*%
%ADD18C,1.602000*%
%ADD19C,1.002000*%
G04 APERTURE END LIST*
D10*
X129801252Y-100890000D02*
X129278748Y-100890000D01*
X129801252Y-102310000D02*
X129278748Y-102310000D01*
X136263748Y-95810000D02*
X136786252Y-95810000D01*
X136263748Y-97230000D02*
X136786252Y-97230000D01*
X129278748Y-95325000D02*
X129801252Y-95325000D01*
X129278748Y-93905000D02*
X129801252Y-93905000D01*
X129278748Y-99770000D02*
X129801252Y-99770000D01*
X129278748Y-98350000D02*
X129801252Y-98350000D01*
D11*
X129706666Y-103862142D02*
X129754285Y-103909761D01*
X129897142Y-103957380D01*
X129992380Y-103957380D01*
X130135238Y-103909761D01*
X130230476Y-103814523D01*
X130278095Y-103719285D01*
X130325714Y-103528809D01*
X130325714Y-103385952D01*
X130278095Y-103195476D01*
X130230476Y-103100238D01*
X130135238Y-103005000D01*
X129992380Y-102957380D01*
X129897142Y-102957380D01*
X129754285Y-103005000D01*
X129706666Y-103052619D01*
X128754285Y-103957380D02*
X129325714Y-103957380D01*
X129040000Y-103957380D02*
X129040000Y-102957380D01*
X129135238Y-103100238D01*
X129230476Y-103195476D01*
X129325714Y-103243095D01*
X136691666Y-95067380D02*
X137025000Y-94591190D01*
X137263095Y-95067380D02*
X137263095Y-94067380D01*
X136882142Y-94067380D01*
X136786904Y-94115000D01*
X136739285Y-94162619D01*
X136691666Y-94257857D01*
X136691666Y-94400714D01*
X136739285Y-94495952D01*
X136786904Y-94543571D01*
X136882142Y-94591190D01*
X137263095Y-94591190D01*
X136120238Y-94495952D02*
X136215476Y-94448333D01*
X136263095Y-94400714D01*
X136310714Y-94305476D01*
X136310714Y-94257857D01*
X136263095Y-94162619D01*
X136215476Y-94115000D01*
X136120238Y-94067380D01*
X135929761Y-94067380D01*
X135834523Y-94115000D01*
X135786904Y-94162619D01*
X135739285Y-94257857D01*
X135739285Y-94305476D01*
X135786904Y-94400714D01*
X135834523Y-94448333D01*
X135929761Y-94495952D01*
X136120238Y-94495952D01*
X136215476Y-94543571D01*
X136263095Y-94591190D01*
X136310714Y-94686428D01*
X136310714Y-94876904D01*
X136263095Y-94972142D01*
X136215476Y-95019761D01*
X136120238Y-95067380D01*
X135929761Y-95067380D01*
X135834523Y-95019761D01*
X135786904Y-94972142D01*
X135739285Y-94876904D01*
X135739285Y-94686428D01*
X135786904Y-94591190D01*
X135834523Y-94543571D01*
X135929761Y-94495952D01*
X129706666Y-93162380D02*
X130040000Y-92686190D01*
X130278095Y-93162380D02*
X130278095Y-92162380D01*
X129897142Y-92162380D01*
X129801904Y-92210000D01*
X129754285Y-92257619D01*
X129706666Y-92352857D01*
X129706666Y-92495714D01*
X129754285Y-92590952D01*
X129801904Y-92638571D01*
X129897142Y-92686190D01*
X130278095Y-92686190D01*
X129230476Y-93162380D02*
X129040000Y-93162380D01*
X128944761Y-93114761D01*
X128897142Y-93067142D01*
X128801904Y-92924285D01*
X128754285Y-92733809D01*
X128754285Y-92352857D01*
X128801904Y-92257619D01*
X128849523Y-92210000D01*
X128944761Y-92162380D01*
X129135238Y-92162380D01*
X129230476Y-92210000D01*
X129278095Y-92257619D01*
X129325714Y-92352857D01*
X129325714Y-92590952D01*
X129278095Y-92686190D01*
X129230476Y-92733809D01*
X129135238Y-92781428D01*
X128944761Y-92781428D01*
X128849523Y-92733809D01*
X128801904Y-92686190D01*
X128754285Y-92590952D01*
X130182857Y-97607380D02*
X130516190Y-97131190D01*
X130754285Y-97607380D02*
X130754285Y-96607380D01*
X130373333Y-96607380D01*
X130278095Y-96655000D01*
X130230476Y-96702619D01*
X130182857Y-96797857D01*
X130182857Y-96940714D01*
X130230476Y-97035952D01*
X130278095Y-97083571D01*
X130373333Y-97131190D01*
X130754285Y-97131190D01*
X129230476Y-97607380D02*
X129801904Y-97607380D01*
X129516190Y-97607380D02*
X129516190Y-96607380D01*
X129611428Y-96750238D01*
X129706666Y-96845476D01*
X129801904Y-96893095D01*
X128849523Y-96702619D02*
X128801904Y-96655000D01*
X128706666Y-96607380D01*
X128468571Y-96607380D01*
X128373333Y-96655000D01*
X128325714Y-96702619D01*
X128278095Y-96797857D01*
X128278095Y-96893095D01*
X128325714Y-97035952D01*
X128897142Y-97607380D01*
X128278095Y-97607380D01*
%LPC*%
D12*
X153035000Y-109220000D03*
X153035000Y-106680000D03*
X153035000Y-104140000D03*
X153035000Y-101600000D03*
D13*
X153035000Y-99060000D03*
D14*
G36*
X130945505Y-100850311D02*
G01*
X130971925Y-100854230D01*
X130997835Y-100860720D01*
X131022983Y-100869718D01*
X131047128Y-100881138D01*
X131070038Y-100894869D01*
X131091492Y-100910780D01*
X131111282Y-100928718D01*
X131129220Y-100948508D01*
X131145131Y-100969962D01*
X131158862Y-100992872D01*
X131170282Y-101017017D01*
X131179280Y-101042165D01*
X131185770Y-101068075D01*
X131189689Y-101094495D01*
X131191000Y-101121173D01*
X131191000Y-102078827D01*
X131189689Y-102105505D01*
X131185770Y-102131925D01*
X131179280Y-102157835D01*
X131170282Y-102182983D01*
X131158862Y-102207128D01*
X131145131Y-102230038D01*
X131129220Y-102251492D01*
X131111282Y-102271282D01*
X131091492Y-102289220D01*
X131070038Y-102305131D01*
X131047128Y-102318862D01*
X131022983Y-102330282D01*
X130997835Y-102339280D01*
X130971925Y-102345770D01*
X130945505Y-102349689D01*
X130918827Y-102351000D01*
X130211173Y-102351000D01*
X130184495Y-102349689D01*
X130158075Y-102345770D01*
X130132165Y-102339280D01*
X130107017Y-102330282D01*
X130082872Y-102318862D01*
X130059962Y-102305131D01*
X130038508Y-102289220D01*
X130018718Y-102271282D01*
X130000780Y-102251492D01*
X129984869Y-102230038D01*
X129971138Y-102207128D01*
X129959718Y-102182983D01*
X129950720Y-102157835D01*
X129944230Y-102131925D01*
X129940311Y-102105505D01*
X129939000Y-102078827D01*
X129939000Y-101121173D01*
X129940311Y-101094495D01*
X129944230Y-101068075D01*
X129950720Y-101042165D01*
X129959718Y-101017017D01*
X129971138Y-100992872D01*
X129984869Y-100969962D01*
X130000780Y-100948508D01*
X130018718Y-100928718D01*
X130038508Y-100910780D01*
X130059962Y-100894869D01*
X130082872Y-100881138D01*
X130107017Y-100869718D01*
X130132165Y-100860720D01*
X130158075Y-100854230D01*
X130184495Y-100850311D01*
X130211173Y-100849000D01*
X130918827Y-100849000D01*
X130945505Y-100850311D01*
X130945505Y-100850311D01*
G37*
D15*
X130565000Y-101600000D03*
D14*
G36*
X128895505Y-100850311D02*
G01*
X128921925Y-100854230D01*
X128947835Y-100860720D01*
X128972983Y-100869718D01*
X128997128Y-100881138D01*
X129020038Y-100894869D01*
X129041492Y-100910780D01*
X129061282Y-100928718D01*
X129079220Y-100948508D01*
X129095131Y-100969962D01*
X129108862Y-100992872D01*
X129120282Y-101017017D01*
X129129280Y-101042165D01*
X129135770Y-101068075D01*
X129139689Y-101094495D01*
X129141000Y-101121173D01*
X129141000Y-102078827D01*
X129139689Y-102105505D01*
X129135770Y-102131925D01*
X129129280Y-102157835D01*
X129120282Y-102182983D01*
X129108862Y-102207128D01*
X129095131Y-102230038D01*
X129079220Y-102251492D01*
X129061282Y-102271282D01*
X129041492Y-102289220D01*
X129020038Y-102305131D01*
X128997128Y-102318862D01*
X128972983Y-102330282D01*
X128947835Y-102339280D01*
X128921925Y-102345770D01*
X128895505Y-102349689D01*
X128868827Y-102351000D01*
X128161173Y-102351000D01*
X128134495Y-102349689D01*
X128108075Y-102345770D01*
X128082165Y-102339280D01*
X128057017Y-102330282D01*
X128032872Y-102318862D01*
X128009962Y-102305131D01*
X127988508Y-102289220D01*
X127968718Y-102271282D01*
X127950780Y-102251492D01*
X127934869Y-102230038D01*
X127921138Y-102207128D01*
X127909718Y-102182983D01*
X127900720Y-102157835D01*
X127894230Y-102131925D01*
X127890311Y-102105505D01*
X127889000Y-102078827D01*
X127889000Y-101121173D01*
X127890311Y-101094495D01*
X127894230Y-101068075D01*
X127900720Y-101042165D01*
X127909718Y-101017017D01*
X127921138Y-100992872D01*
X127934869Y-100969962D01*
X127950780Y-100948508D01*
X127968718Y-100928718D01*
X127988508Y-100910780D01*
X128009962Y-100894869D01*
X128032872Y-100881138D01*
X128057017Y-100869718D01*
X128082165Y-100860720D01*
X128108075Y-100854230D01*
X128134495Y-100850311D01*
X128161173Y-100849000D01*
X128868827Y-100849000D01*
X128895505Y-100850311D01*
X128895505Y-100850311D01*
G37*
D15*
X128515000Y-101600000D03*
D12*
X106680000Y-92710000D03*
X104140000Y-92710000D03*
X106680000Y-95250000D03*
X104140000Y-95250000D03*
X106680000Y-97790000D03*
X104140000Y-97790000D03*
X106680000Y-100330000D03*
X104140000Y-100330000D03*
X106680000Y-102870000D03*
X104140000Y-102870000D03*
X106680000Y-105410000D03*
X104140000Y-105410000D03*
X106680000Y-107950000D03*
X104140000Y-107950000D03*
X106680000Y-110490000D03*
X104140000Y-110490000D03*
X106680000Y-113030000D03*
X104140000Y-113030000D03*
X106680000Y-115570000D03*
D13*
X104140000Y-115570000D03*
D14*
G36*
X137930505Y-95770311D02*
G01*
X137956925Y-95774230D01*
X137982835Y-95780720D01*
X138007983Y-95789718D01*
X138032128Y-95801138D01*
X138055038Y-95814869D01*
X138076492Y-95830780D01*
X138096282Y-95848718D01*
X138114220Y-95868508D01*
X138130131Y-95889962D01*
X138143862Y-95912872D01*
X138155282Y-95937017D01*
X138164280Y-95962165D01*
X138170770Y-95988075D01*
X138174689Y-96014495D01*
X138176000Y-96041173D01*
X138176000Y-96998827D01*
X138174689Y-97025505D01*
X138170770Y-97051925D01*
X138164280Y-97077835D01*
X138155282Y-97102983D01*
X138143862Y-97127128D01*
X138130131Y-97150038D01*
X138114220Y-97171492D01*
X138096282Y-97191282D01*
X138076492Y-97209220D01*
X138055038Y-97225131D01*
X138032128Y-97238862D01*
X138007983Y-97250282D01*
X137982835Y-97259280D01*
X137956925Y-97265770D01*
X137930505Y-97269689D01*
X137903827Y-97271000D01*
X137196173Y-97271000D01*
X137169495Y-97269689D01*
X137143075Y-97265770D01*
X137117165Y-97259280D01*
X137092017Y-97250282D01*
X137067872Y-97238862D01*
X137044962Y-97225131D01*
X137023508Y-97209220D01*
X137003718Y-97191282D01*
X136985780Y-97171492D01*
X136969869Y-97150038D01*
X136956138Y-97127128D01*
X136944718Y-97102983D01*
X136935720Y-97077835D01*
X136929230Y-97051925D01*
X136925311Y-97025505D01*
X136924000Y-96998827D01*
X136924000Y-96041173D01*
X136925311Y-96014495D01*
X136929230Y-95988075D01*
X136935720Y-95962165D01*
X136944718Y-95937017D01*
X136956138Y-95912872D01*
X136969869Y-95889962D01*
X136985780Y-95868508D01*
X137003718Y-95848718D01*
X137023508Y-95830780D01*
X137044962Y-95814869D01*
X137067872Y-95801138D01*
X137092017Y-95789718D01*
X137117165Y-95780720D01*
X137143075Y-95774230D01*
X137169495Y-95770311D01*
X137196173Y-95769000D01*
X137903827Y-95769000D01*
X137930505Y-95770311D01*
X137930505Y-95770311D01*
G37*
D15*
X137550000Y-96520000D03*
D14*
G36*
X135880505Y-95770311D02*
G01*
X135906925Y-95774230D01*
X135932835Y-95780720D01*
X135957983Y-95789718D01*
X135982128Y-95801138D01*
X136005038Y-95814869D01*
X136026492Y-95830780D01*
X136046282Y-95848718D01*
X136064220Y-95868508D01*
X136080131Y-95889962D01*
X136093862Y-95912872D01*
X136105282Y-95937017D01*
X136114280Y-95962165D01*
X136120770Y-95988075D01*
X136124689Y-96014495D01*
X136126000Y-96041173D01*
X136126000Y-96998827D01*
X136124689Y-97025505D01*
X136120770Y-97051925D01*
X136114280Y-97077835D01*
X136105282Y-97102983D01*
X136093862Y-97127128D01*
X136080131Y-97150038D01*
X136064220Y-97171492D01*
X136046282Y-97191282D01*
X136026492Y-97209220D01*
X136005038Y-97225131D01*
X135982128Y-97238862D01*
X135957983Y-97250282D01*
X135932835Y-97259280D01*
X135906925Y-97265770D01*
X135880505Y-97269689D01*
X135853827Y-97271000D01*
X135146173Y-97271000D01*
X135119495Y-97269689D01*
X135093075Y-97265770D01*
X135067165Y-97259280D01*
X135042017Y-97250282D01*
X135017872Y-97238862D01*
X134994962Y-97225131D01*
X134973508Y-97209220D01*
X134953718Y-97191282D01*
X134935780Y-97171492D01*
X134919869Y-97150038D01*
X134906138Y-97127128D01*
X134894718Y-97102983D01*
X134885720Y-97077835D01*
X134879230Y-97051925D01*
X134875311Y-97025505D01*
X134874000Y-96998827D01*
X134874000Y-96041173D01*
X134875311Y-96014495D01*
X134879230Y-95988075D01*
X134885720Y-95962165D01*
X134894718Y-95937017D01*
X134906138Y-95912872D01*
X134919869Y-95889962D01*
X134935780Y-95868508D01*
X134953718Y-95848718D01*
X134973508Y-95830780D01*
X134994962Y-95814869D01*
X135017872Y-95801138D01*
X135042017Y-95789718D01*
X135067165Y-95780720D01*
X135093075Y-95774230D01*
X135119495Y-95770311D01*
X135146173Y-95769000D01*
X135853827Y-95769000D01*
X135880505Y-95770311D01*
X135880505Y-95770311D01*
G37*
D15*
X135500000Y-96520000D03*
D14*
G36*
X128895505Y-93865311D02*
G01*
X128921925Y-93869230D01*
X128947835Y-93875720D01*
X128972983Y-93884718D01*
X128997128Y-93896138D01*
X129020038Y-93909869D01*
X129041492Y-93925780D01*
X129061282Y-93943718D01*
X129079220Y-93963508D01*
X129095131Y-93984962D01*
X129108862Y-94007872D01*
X129120282Y-94032017D01*
X129129280Y-94057165D01*
X129135770Y-94083075D01*
X129139689Y-94109495D01*
X129141000Y-94136173D01*
X129141000Y-95093827D01*
X129139689Y-95120505D01*
X129135770Y-95146925D01*
X129129280Y-95172835D01*
X129120282Y-95197983D01*
X129108862Y-95222128D01*
X129095131Y-95245038D01*
X129079220Y-95266492D01*
X129061282Y-95286282D01*
X129041492Y-95304220D01*
X129020038Y-95320131D01*
X128997128Y-95333862D01*
X128972983Y-95345282D01*
X128947835Y-95354280D01*
X128921925Y-95360770D01*
X128895505Y-95364689D01*
X128868827Y-95366000D01*
X128161173Y-95366000D01*
X128134495Y-95364689D01*
X128108075Y-95360770D01*
X128082165Y-95354280D01*
X128057017Y-95345282D01*
X128032872Y-95333862D01*
X128009962Y-95320131D01*
X127988508Y-95304220D01*
X127968718Y-95286282D01*
X127950780Y-95266492D01*
X127934869Y-95245038D01*
X127921138Y-95222128D01*
X127909718Y-95197983D01*
X127900720Y-95172835D01*
X127894230Y-95146925D01*
X127890311Y-95120505D01*
X127889000Y-95093827D01*
X127889000Y-94136173D01*
X127890311Y-94109495D01*
X127894230Y-94083075D01*
X127900720Y-94057165D01*
X127909718Y-94032017D01*
X127921138Y-94007872D01*
X127934869Y-93984962D01*
X127950780Y-93963508D01*
X127968718Y-93943718D01*
X127988508Y-93925780D01*
X128009962Y-93909869D01*
X128032872Y-93896138D01*
X128057017Y-93884718D01*
X128082165Y-93875720D01*
X128108075Y-93869230D01*
X128134495Y-93865311D01*
X128161173Y-93864000D01*
X128868827Y-93864000D01*
X128895505Y-93865311D01*
X128895505Y-93865311D01*
G37*
D15*
X128515000Y-94615000D03*
D14*
G36*
X130945505Y-93865311D02*
G01*
X130971925Y-93869230D01*
X130997835Y-93875720D01*
X131022983Y-93884718D01*
X131047128Y-93896138D01*
X131070038Y-93909869D01*
X131091492Y-93925780D01*
X131111282Y-93943718D01*
X131129220Y-93963508D01*
X131145131Y-93984962D01*
X131158862Y-94007872D01*
X131170282Y-94032017D01*
X131179280Y-94057165D01*
X131185770Y-94083075D01*
X131189689Y-94109495D01*
X131191000Y-94136173D01*
X131191000Y-95093827D01*
X131189689Y-95120505D01*
X131185770Y-95146925D01*
X131179280Y-95172835D01*
X131170282Y-95197983D01*
X131158862Y-95222128D01*
X131145131Y-95245038D01*
X131129220Y-95266492D01*
X131111282Y-95286282D01*
X131091492Y-95304220D01*
X131070038Y-95320131D01*
X131047128Y-95333862D01*
X131022983Y-95345282D01*
X130997835Y-95354280D01*
X130971925Y-95360770D01*
X130945505Y-95364689D01*
X130918827Y-95366000D01*
X130211173Y-95366000D01*
X130184495Y-95364689D01*
X130158075Y-95360770D01*
X130132165Y-95354280D01*
X130107017Y-95345282D01*
X130082872Y-95333862D01*
X130059962Y-95320131D01*
X130038508Y-95304220D01*
X130018718Y-95286282D01*
X130000780Y-95266492D01*
X129984869Y-95245038D01*
X129971138Y-95222128D01*
X129959718Y-95197983D01*
X129950720Y-95172835D01*
X129944230Y-95146925D01*
X129940311Y-95120505D01*
X129939000Y-95093827D01*
X129939000Y-94136173D01*
X129940311Y-94109495D01*
X129944230Y-94083075D01*
X129950720Y-94057165D01*
X129959718Y-94032017D01*
X129971138Y-94007872D01*
X129984869Y-93984962D01*
X130000780Y-93963508D01*
X130018718Y-93943718D01*
X130038508Y-93925780D01*
X130059962Y-93909869D01*
X130082872Y-93896138D01*
X130107017Y-93884718D01*
X130132165Y-93875720D01*
X130158075Y-93869230D01*
X130184495Y-93865311D01*
X130211173Y-93864000D01*
X130918827Y-93864000D01*
X130945505Y-93865311D01*
X130945505Y-93865311D01*
G37*
D15*
X130565000Y-94615000D03*
D14*
G36*
X128895505Y-98310311D02*
G01*
X128921925Y-98314230D01*
X128947835Y-98320720D01*
X128972983Y-98329718D01*
X128997128Y-98341138D01*
X129020038Y-98354869D01*
X129041492Y-98370780D01*
X129061282Y-98388718D01*
X129079220Y-98408508D01*
X129095131Y-98429962D01*
X129108862Y-98452872D01*
X129120282Y-98477017D01*
X129129280Y-98502165D01*
X129135770Y-98528075D01*
X129139689Y-98554495D01*
X129141000Y-98581173D01*
X129141000Y-99538827D01*
X129139689Y-99565505D01*
X129135770Y-99591925D01*
X129129280Y-99617835D01*
X129120282Y-99642983D01*
X129108862Y-99667128D01*
X129095131Y-99690038D01*
X129079220Y-99711492D01*
X129061282Y-99731282D01*
X129041492Y-99749220D01*
X129020038Y-99765131D01*
X128997128Y-99778862D01*
X128972983Y-99790282D01*
X128947835Y-99799280D01*
X128921925Y-99805770D01*
X128895505Y-99809689D01*
X128868827Y-99811000D01*
X128161173Y-99811000D01*
X128134495Y-99809689D01*
X128108075Y-99805770D01*
X128082165Y-99799280D01*
X128057017Y-99790282D01*
X128032872Y-99778862D01*
X128009962Y-99765131D01*
X127988508Y-99749220D01*
X127968718Y-99731282D01*
X127950780Y-99711492D01*
X127934869Y-99690038D01*
X127921138Y-99667128D01*
X127909718Y-99642983D01*
X127900720Y-99617835D01*
X127894230Y-99591925D01*
X127890311Y-99565505D01*
X127889000Y-99538827D01*
X127889000Y-98581173D01*
X127890311Y-98554495D01*
X127894230Y-98528075D01*
X127900720Y-98502165D01*
X127909718Y-98477017D01*
X127921138Y-98452872D01*
X127934869Y-98429962D01*
X127950780Y-98408508D01*
X127968718Y-98388718D01*
X127988508Y-98370780D01*
X128009962Y-98354869D01*
X128032872Y-98341138D01*
X128057017Y-98329718D01*
X128082165Y-98320720D01*
X128108075Y-98314230D01*
X128134495Y-98310311D01*
X128161173Y-98309000D01*
X128868827Y-98309000D01*
X128895505Y-98310311D01*
X128895505Y-98310311D01*
G37*
D15*
X128515000Y-99060000D03*
D14*
G36*
X130945505Y-98310311D02*
G01*
X130971925Y-98314230D01*
X130997835Y-98320720D01*
X131022983Y-98329718D01*
X131047128Y-98341138D01*
X131070038Y-98354869D01*
X131091492Y-98370780D01*
X131111282Y-98388718D01*
X131129220Y-98408508D01*
X131145131Y-98429962D01*
X131158862Y-98452872D01*
X131170282Y-98477017D01*
X131179280Y-98502165D01*
X131185770Y-98528075D01*
X131189689Y-98554495D01*
X131191000Y-98581173D01*
X131191000Y-99538827D01*
X131189689Y-99565505D01*
X131185770Y-99591925D01*
X131179280Y-99617835D01*
X131170282Y-99642983D01*
X131158862Y-99667128D01*
X131145131Y-99690038D01*
X131129220Y-99711492D01*
X131111282Y-99731282D01*
X131091492Y-99749220D01*
X131070038Y-99765131D01*
X131047128Y-99778862D01*
X131022983Y-99790282D01*
X130997835Y-99799280D01*
X130971925Y-99805770D01*
X130945505Y-99809689D01*
X130918827Y-99811000D01*
X130211173Y-99811000D01*
X130184495Y-99809689D01*
X130158075Y-99805770D01*
X130132165Y-99799280D01*
X130107017Y-99790282D01*
X130082872Y-99778862D01*
X130059962Y-99765131D01*
X130038508Y-99749220D01*
X130018718Y-99731282D01*
X130000780Y-99711492D01*
X129984869Y-99690038D01*
X129971138Y-99667128D01*
X129959718Y-99642983D01*
X129950720Y-99617835D01*
X129944230Y-99591925D01*
X129940311Y-99565505D01*
X129939000Y-99538827D01*
X129939000Y-98581173D01*
X129940311Y-98554495D01*
X129944230Y-98528075D01*
X129950720Y-98502165D01*
X129959718Y-98477017D01*
X129971138Y-98452872D01*
X129984869Y-98429962D01*
X130000780Y-98408508D01*
X130018718Y-98388718D01*
X130038508Y-98370780D01*
X130059962Y-98354869D01*
X130082872Y-98341138D01*
X130107017Y-98329718D01*
X130132165Y-98320720D01*
X130158075Y-98314230D01*
X130184495Y-98310311D01*
X130211173Y-98309000D01*
X130918827Y-98309000D01*
X130945505Y-98310311D01*
X130945505Y-98310311D01*
G37*
D15*
X130565000Y-99060000D03*
D16*
X125730000Y-96520000D03*
D17*
X133350000Y-111760000D03*
X125730000Y-99060000D03*
X133350000Y-109220000D03*
X125730000Y-101600000D03*
X133350000Y-106680000D03*
X125730000Y-104140000D03*
X133350000Y-104140000D03*
X125730000Y-106680000D03*
X133350000Y-101600000D03*
X125730000Y-109220000D03*
X133350000Y-99060000D03*
X125730000Y-111760000D03*
X133350000Y-96520000D03*
D18*
X129540000Y-129540000D03*
X146050000Y-93980000D03*
X119380000Y-88900000D03*
X129540000Y-78740000D03*
X146050000Y-111125000D03*
X121920000Y-95250000D03*
X150749000Y-94361000D03*
X109855000Y-108585000D03*
X149225000Y-111125000D03*
X123825000Y-82550000D03*
X127635000Y-117475000D03*
X154559000Y-116713000D03*
X149225000Y-99695000D03*
D19*
X115570000Y-84455000D03*
X116205000Y-102870000D03*
X120015000Y-104140000D03*
X116205000Y-81915000D03*
X129540000Y-91630000D03*
X110045000Y-97155000D03*
X121480000Y-110045000D03*
X111125000Y-113030000D03*
X112395000Y-99695000D03*
X118110000Y-96520000D03*
X118110000Y-96520000D03*
X114300000Y-106045000D03*
X114300000Y-96520000D03*
X141605000Y-92710000D03*
X141605000Y-101600000D03*
X145975000Y-101600000D03*
X149860000Y-108585000D03*
X113030000Y-107950000D03*
X116205000Y-90170000D03*
X137795000Y-91440000D03*
X142901921Y-106693460D03*
X140462000Y-109220000D03*
X147955000Y-102616000D03*
X150749000Y-102743000D03*
X142240000Y-103505000D03*
X148275000Y-105725000D03*
X132080000Y-93535000D03*
X135890000Y-107315000D03*
M02*
