M48
; DRILL file {KiCad (5.1.2)-1} date 30/10/2019 10:00:28
; FORMAT={-:-/ absolute / inch / decimal}
; #@! TF.CreationDate,2019-10-30T10:00:28+01:00
; #@! TF.GenerationSoftware,Kicad,Pcbnew,(5.1.2)-1
; #@! TF.FileFunction,Plated,1,2,PTH
FMAT,2
INCH
T1C0.0276
T2C0.0315
T3C0.0394
%
G90
G05
T1
X4.3325Y-3.825
X4.375Y-4.45
X4.425Y-3.925
X4.45Y-4.25
X4.5Y-3.8
X4.5Y-4.175
X4.55Y-3.325
X4.575Y-3.225
X4.575Y-3.55
X4.575Y-4.05
X4.65Y-3.8
X4.65Y-3.8
X4.725Y-4.1
X4.7827Y-4.3325
X5.1Y-3.6075
X5.2Y-3.6825
X5.35Y-4.225
X5.425Y-3.6
X5.53Y-4.3
X5.575Y-3.65
X5.575Y-4.0
X5.6Y-4.075
X5.6261Y-4.2005
X5.747Y-4.0
X5.825Y-4.04
X5.8376Y-4.1624
X5.9Y-4.275
X5.935Y-4.045
X4.875Y-3.25
X5.75Y-3.7
X5.935Y-3.715
X4.325Y-4.275
X4.7Y-3.5
X5.75Y-4.375
X5.875Y-4.375
X5.1Y-3.1
X4.8Y-3.75
X5.1Y-5.1
T2
X4.95Y-3.8
X4.95Y-3.9
X4.95Y-4.0
X4.95Y-4.1
X4.95Y-4.2
X4.95Y-4.3
X4.95Y-4.4
X5.25Y-3.8
X5.25Y-3.9
X5.25Y-4.0
X5.25Y-4.1
X5.25Y-4.2
X5.25Y-4.3
X5.25Y-4.4
T3
X5.025Y-4.625
X5.875Y-3.925
X6.085Y-4.595
X6.025Y-3.9
X6.025Y-4.0
X6.025Y-4.1
X6.025Y-4.2
X6.025Y-4.3
X4.1Y-3.65
X4.1Y-3.75
X4.1Y-3.85
X4.1Y-3.95
X4.1Y-4.05
X4.1Y-4.15
X4.1Y-4.25
X4.1Y-4.35
X4.1Y-4.45
X4.1Y-4.55
X4.2Y-3.65
X4.2Y-3.75
X4.2Y-3.85
X4.2Y-3.95
X4.2Y-4.05
X4.2Y-4.15
X4.2Y-4.25
X4.2Y-4.35
X4.2Y-4.45
X4.2Y-4.55
T0
M30
